<svg width="47" height="47" viewBox="0 0 47 47" fill="none" xmlns="http://www.w3.org/2000/svg">
<path d="M17.3274 34.3744H12.3931V17.4332H17.3274V34.3744ZM14.8576 15.1223C13.2798 15.1223 12 13.7289 12 12.0467C12 11.2387 12.3011 10.4637 12.837 9.89236C13.3729 9.32099 14.0997 9 14.8576 9C15.6155 9 16.3423 9.32099 16.8782 9.89236C17.4141 10.4637 17.7152 11.2387 17.7152 12.0467C17.7152 13.7289 16.4349 15.1223 14.8576 15.1223ZM35.7947 34.3744H30.8711V26.1276C30.8711 24.1621 30.8339 21.6416 28.3057 21.6416C25.7402 21.6416 25.3471 23.777 25.3471 25.986V34.3744H20.4182V17.4332H25.1506V19.7442H25.2196C25.8784 18.4131 27.4875 17.0084 29.8882 17.0084C34.882 17.0084 35.8 20.5145 35.8 25.0684V34.3744H35.7947Z" fill="#EEEEEE"/>
<rect x="0.5" y="0.5" width="45.809" height="45.809" rx="22.9045" stroke="#F8F9FA"/>
</svg>
