<svg width="47" height="47" viewBox="0 0 47 47" fill="none" xmlns="http://www.w3.org/2000/svg">
<path d="M23.4076 16.2038C19.4227 16.2038 16.2085 19.4187 16.2085 23.4045C16.2085 27.3903 19.4227 30.6053 23.4076 30.6053C27.3925 30.6053 30.6068 27.3903 30.6068 23.4045C30.6068 19.4187 27.3925 16.2038 23.4076 16.2038ZM23.4076 28.0859C20.8325 28.0859 18.7273 25.9865 18.7273 23.4045C18.7273 20.8225 20.8262 18.7231 23.4076 18.7231C25.9891 18.7231 28.088 20.8225 28.088 23.4045C28.088 25.9865 25.9828 28.0859 23.4076 28.0859ZM32.5804 15.9092C32.5804 16.843 31.8286 17.5888 30.9013 17.5888C29.9677 17.5888 29.2221 16.8367 29.2221 15.9092C29.2221 14.9817 29.974 14.2297 30.9013 14.2297C31.8286 14.2297 32.5804 14.9817 32.5804 15.9092ZM37.3485 17.6138C37.242 15.364 36.7282 13.3711 35.0804 11.7292C33.4388 10.0872 31.4464 9.57333 29.197 9.46052C26.8788 9.32891 19.9303 9.32891 17.612 9.46052C15.3689 9.56706 13.3765 10.081 11.7286 11.7229C10.0808 13.3648 9.57328 15.3577 9.4605 17.6076C9.32892 19.9263 9.32892 26.8764 9.4605 29.1952C9.56701 31.445 10.0808 33.4379 11.7286 35.0799C13.3765 36.7218 15.3627 37.2357 17.612 37.3485C19.9303 37.4801 26.8788 37.4801 29.197 37.3485C31.4464 37.242 33.4388 36.7281 35.0804 35.0799C36.722 33.4379 37.2358 31.445 37.3485 29.1952C37.4801 26.8764 37.4801 19.9326 37.3485 17.6138ZM34.3536 31.6832C33.8649 32.9115 32.9188 33.8578 31.6845 34.3529C29.8361 35.0861 25.4502 34.9169 23.4076 34.9169C21.3651 34.9169 16.9729 35.0799 15.1308 34.3529C13.9028 33.8641 12.9567 32.9178 12.4617 31.6832C11.7286 29.8344 11.8978 25.4475 11.8978 23.4045C11.8978 21.3615 11.7349 16.9683 12.4617 15.1259C12.9504 13.8975 13.8965 12.9512 15.1308 12.4561C16.9792 11.7229 21.3651 11.8921 23.4076 11.8921C25.4502 11.8921 29.8424 11.7292 31.6845 12.4561C32.9125 12.945 33.8586 13.8913 34.3536 15.1259C35.0867 16.9746 34.9175 21.3615 34.9175 23.4045C34.9175 25.4475 35.0867 29.8407 34.3536 31.6832Z" fill="#EEEEEE"/>
<rect x="0.5" y="0.5" width="45.809" height="45.809" rx="22.9045" stroke="#F8F9FA"/>
</svg>
