<svg width="47" height="47" viewBox="0 0 47 47" fill="none" xmlns="http://www.w3.org/2000/svg">
<path d="M36.2014 16.9337C35.907 15.779 35.0395 14.8695 33.9381 14.5608C31.9417 14 23.9363 14 23.9363 14C23.9363 14 15.931 14 13.9345 14.5608C12.8331 14.8695 11.9657 15.779 11.6712 16.9337C11.1363 19.0269 11.1363 23.3939 11.1363 23.3939C11.1363 23.3939 11.1363 27.761 11.6712 29.8541C11.9657 31.0089 12.8331 31.8805 13.9345 32.1892C15.931 32.75 23.9363 32.75 23.9363 32.75C23.9363 32.75 31.9416 32.75 33.9381 32.1892C35.0395 31.8805 35.907 31.0089 36.2014 29.8541C36.7363 27.761 36.2014 21.3008 36.2014 21.3008C36.2014 21.3008 36.7363 19.0269 36.2014 16.9337ZM21.3181 27.3589V19.429L28.009 23.394L21.3181 27.3589Z" fill="#EEEEEE"/>
<rect x="0.5" y="0.5" width="45.809" height="45.809" rx="22.9045" stroke="#F8F9FA"/>
</svg>
