<svg width="45" height="47" viewBox="0 0 45 47" fill="none" xmlns="http://www.w3.org/2000/svg">
<path fill-rule="evenodd" clip-rule="evenodd" d="M32.5 10.5732H17.5C16.125 10.5732 15 11.7952 15 13.2887V29.5812C15 31.0747 16.125 32.2966 17.5 32.2966H32.5C33.875 32.2966 35 31.0747 35 29.5812V13.2887C35 11.7952 33.875 10.5732 32.5 10.5732ZM11.25 16.0041C10.5625 16.0041 10 16.615 10 17.3618V35.012C10 36.5055 11.125 37.7275 12.5 37.7275H28.75C29.4375 37.7275 30 37.1165 30 36.3697C30 35.623 29.4375 35.012 28.75 35.012H13.75C13.0625 35.012 12.5 34.4011 12.5 33.6543V17.3618C12.5 16.615 11.9375 16.0041 11.25 16.0041ZM20 22.7926H30C30.6875 22.7926 31.25 22.1817 31.25 21.4349C31.25 20.6882 30.6875 20.0772 30 20.0772H20C19.3125 20.0772 18.75 20.6882 18.75 21.4349C18.75 22.1817 19.3125 22.7926 20 22.7926ZM25 28.2235H20C19.3125 28.2235 18.75 27.6125 18.75 26.8658C18.75 26.119 19.3125 25.5081 20 25.5081H25C25.6875 25.5081 26.25 26.119 26.25 26.8658C26.25 27.6125 25.6875 28.2235 25 28.2235ZM20 17.3618H30C30.6875 17.3618 31.25 16.7508 31.25 16.0041C31.25 15.2573 30.6875 14.6464 30 14.6464H20C19.3125 14.6464 18.75 15.2573 18.75 16.0041C18.75 16.7508 19.3125 17.3618 20 17.3618Z" fill="#0E1821"/>
<path d="M43.5 23.5C43.5 35.7124 34.0372 45.5 22.5 45.5C10.9628 45.5 1.5 35.7124 1.5 23.5C1.5 11.2876 10.9628 1.5 22.5 1.5C34.0372 1.5 43.5 11.2876 43.5 23.5Z" stroke="#0E1821" stroke-width="3"/>
</svg>
