<svg width="45" height="47" viewBox="0 0 45 47" fill="none" xmlns="http://www.w3.org/2000/svg">
<path d="M43.5 23.5C43.5 35.7124 34.0372 45.5 22.5 45.5C10.9628 45.5 1.5 35.7124 1.5 23.5C1.5 11.2876 10.9628 1.5 22.5 1.5C34.0372 1.5 43.5 11.2876 43.5 23.5Z" stroke="#0E1821" stroke-width="3"/>
<path d="M22.625 22.5935C19.7875 21.8023 18.875 20.9844 18.875 19.7105C18.875 18.2488 20.1375 17.2297 22.25 17.2297C24.025 17.2297 24.9125 17.9538 25.2375 19.107C25.3875 19.6434 25.8 20.0457 26.325 20.0457H26.7C27.525 20.0457 28.1125 19.1741 27.825 18.3427C27.3 16.7604 26.075 15.4462 24.125 14.9367V14.0114C24.125 12.8984 23.2875 12 22.25 12C21.2125 12 20.375 12.8984 20.375 14.0114V14.8965C17.95 15.4596 16 17.1492 16 19.7373C16 22.8349 18.3875 24.377 21.875 25.2754C25 26.08 25.625 27.26 25.625 28.5071C25.625 29.4323 25.0125 30.9074 22.25 30.9074C20.1875 30.9074 19.125 30.1162 18.7125 28.9898C18.525 28.4669 18.1 28.0914 17.5875 28.0914H17.2375C16.4 28.0914 15.8125 29.0032 16.125 29.8346C16.8375 31.6985 18.5 32.7981 20.375 33.2272V34.1257C20.375 35.2387 21.2125 36.1371 22.25 36.1371C23.2875 36.1371 24.125 35.2387 24.125 34.1257V33.2541C26.5625 32.7579 28.5 31.2426 28.5 28.4937C28.5 24.6854 25.4625 23.3847 22.625 22.5935Z" fill="black"/>
</svg>
