<svg width="560" height="480" viewBox="0 0 560 480" fill="none" xmlns="http://www.w3.org/2000/svg">
<path d="M282 2H335.511C335.072 11.3763 351.883 16.0645 351.883 16.0645C354.337 47.7829 343.796 117.241 282 141.327" stroke="#F8EBBC" stroke-width="3.07661"/>
<path d="M282.036 2H230.292C230.732 11.3763 212.153 16.0645 212.153 16.0645C209.699 47.7829 220.24 117.241 282.036 141.327" stroke="#EED98D" stroke-width="3.07661"/>
<path d="M211.382 17.2732H349.06" stroke="black" stroke-width="3.07661"/>
<path d="M352.017 14.9658H209.188C204.933 96.7244 256.986 134.518 283.545 143.195C345.475 118.749 354.997 47.5229 352.017 14.9658Z" fill="#EED98D"/>
<path d="M282.144 142.975V3.42847H334.117C337.897 13.0099 348.291 14.8925 353.016 14.6361C356.444 100.166 307.197 135.833 282.144 142.975Z" fill="#F8EBBC"/>
<path d="M282.421 3H230.499C230.499 11.3508 217.5 15.2698 211 16.1855H282.421V3Z" fill="#EED98D"/>
<path d="M239.072 217.363C267.904 192.662 271.742 153.89 270.057 137.591H282.144V217.363H239.072Z" fill="#EED98D"/>
<path d="M325.107 217.363C296.275 192.662 292.436 153.89 294.121 137.591H282.034V217.363H325.107Z" fill="#F8EBBC"/>
<rect x="237.643" y="217.363" width="89.002" height="2.6371" fill="#8D3300"/>
<path d="M223.359 36.9414H217.096C214.349 52.9837 223.579 80.3436 228.413 85.5079L234.017 82.3214C228.413 78.5856 220.942 48.3688 223.359 36.9414Z" fill="white"/>
<path d="M235.336 84.519L230.171 87.3759V88.1451C232.105 91.0459 235.519 91.6978 236.984 91.6612L235.336 84.519Z" fill="white"/>
<path d="M377.409 23.866H353.016V30.6785H372.135C374.421 46.501 356.532 87.9254 336.314 94.9577L331.809 103.089C367.498 87.7936 377.08 43.9006 377.409 23.866Z" fill="#F8EBBC"/>
<path d="M186 23.9758H210.393V30.7883H191.274C188.989 46.6109 206.877 88.0353 227.095 95.0676L231.6 103.199C195.911 87.9035 186.33 44.0104 186 23.9758Z" fill="#EED98D"/>
<path d="M94.1664 73H147.677C147.238 82.3763 164.049 87.0645 164.049 87.0645C166.503 118.783 155.962 188.241 94.1664 212.327" stroke="#C5C5C5" stroke-width="3.07661"/>
<path d="M95.0364 73H43.2924C43.7319 82.3763 25.1533 87.0645 25.1533 87.0645C22.6994 118.783 33.2404 188.241 95.0364 212.327" stroke="#888888" stroke-width="3.07661"/>
<path d="M25.3821 88.2732H163.06" stroke="black" stroke-width="3.07661"/>
<path d="M166.017 85.9658H23.1882C18.9328 167.724 70.9863 205.518 97.5451 214.195C159.475 189.749 168.997 118.523 166.017 85.9658Z" fill="#888888"/>
<path d="M96.1442 213.975V74.4285H148.117C151.897 84.0099 162.291 85.8925 167.016 85.6361C170.444 171.166 121.197 206.833 96.1442 213.975Z" fill="#C5C5C5"/>
<path d="M96.254 73H44.3315C44.3315 81.3508 31.3322 85.2698 24.8326 86.1855H96.254V73Z" fill="#888888"/>
<path d="M53.0716 288.363C81.9039 263.662 85.7423 224.89 84.0575 208.591H96.1442V288.363H53.0716Z" fill="#888888"/>
<path d="M139.107 288.363C110.275 263.662 106.436 224.89 108.121 208.591H96.0343V288.363H139.107Z" fill="#C5C5C5"/>
<rect x="51.6431" y="288.363" width="89.002" height="2.6371" fill="#8D3300"/>
<path d="M37.3589 107.942H31.0958C28.3488 123.984 37.5786 151.344 42.4133 156.508L48.0172 153.322C42.4133 149.586 34.9415 119.369 37.3589 107.942Z" fill="white"/>
<path d="M49.3357 155.519L44.1714 158.376V159.145C46.1053 162.046 49.5188 162.698 50.9839 162.661L49.3357 155.519Z" fill="white"/>
<path d="M191.409 94.866H167.016V101.678H186.135C188.421 117.501 170.532 158.925 150.314 165.958L145.809 174.089C181.498 158.794 191.08 114.901 191.409 94.866Z" fill="#C5C5C5"/>
<path d="M-7.62939e-06 94.9758H24.3931V101.788H5.27419C2.9887 117.611 20.877 159.035 41.0948 166.068L45.5998 174.199C9.91108 158.903 0.329628 115.01 -7.62939e-06 94.9758Z" fill="#888888"/>
<path d="M462.166 113H515.677C515.238 122.376 532.049 127.065 532.049 127.065C534.503 158.783 523.962 228.241 462.166 252.327" stroke="#CD5600" stroke-width="3.07661"/>
<path d="M463.036 113H411.292C411.732 122.376 393.153 127.065 393.153 127.065C390.699 158.783 401.24 228.241 463.036 252.327" stroke="#AA4700" stroke-width="3.07661"/>
<path d="M393.382 128.273H531.061" stroke="black" stroke-width="3.07661"/>
<path d="M534.017 125.966H391.188C386.933 207.724 438.986 245.518 465.545 254.195C527.475 229.749 536.997 158.523 534.017 125.966Z" fill="#AA4700"/>
<path d="M464.144 253.975V114.428H516.117C519.897 124.01 530.291 125.893 535.016 125.636C538.444 211.166 489.197 246.833 464.144 253.975Z" fill="#CD5600"/>
<path d="M464.254 113H412.331C412.331 121.351 399.332 125.27 392.833 126.185H464.254V113Z" fill="#AA4700"/>
<path d="M421.072 328.363C449.904 303.662 453.742 264.89 452.057 248.591H464.144V328.363H421.072Z" fill="#AA4700"/>
<path d="M507.107 328.363C478.275 303.662 474.436 264.89 476.121 248.591H464.034V328.363H507.107Z" fill="#CD5600"/>
<rect x="419.643" y="328.363" width="89.002" height="2.6371" fill="#8D3300"/>
<path d="M405.359 147.942H399.096C396.349 163.984 405.579 191.344 410.413 196.508L416.017 193.322C410.413 189.586 402.942 159.369 405.359 147.942Z" fill="white"/>
<path d="M417.336 195.519L412.171 198.376V199.145C414.105 202.046 417.519 202.698 418.984 202.661L417.336 195.519Z" fill="white"/>
<path d="M559.409 134.866H535.016V141.678H554.135C556.421 157.501 538.532 198.925 518.315 205.958L513.809 214.089C549.498 198.794 559.08 154.901 559.409 134.866Z" fill="#CD5600"/>
<path d="M368 134.976H392.393V141.788H373.274C370.989 157.611 388.877 199.035 409.095 206.068L413.6 214.199C377.911 198.903 368.33 155.01 368 134.976Z" fill="#AA4700"/>
<rect x="190.5" y="221.5" width="182" height="258" fill="#F8EBBC" stroke="#482700"/>
<rect x="7.5" y="291.5" width="182" height="188" fill="#C9C9C9" stroke="#482700"/>
<rect x="373.5" y="331.5" width="182" height="148" fill="#CD5600" stroke="#482700"/>
<path d="M246.5 320.65C249.4 319.45 252.4 318.1 255.5 316.6C258.7 315 261.8 313.3 264.8 311.5C267.8 309.6 270.65 307.65 273.35 305.65C276.15 303.55 278.65 301.35 280.85 299.05H296.45V403H274.1V328.15C271.1 330.15 267.75 332 264.05 333.7C260.35 335.3 256.75 336.7 253.25 337.9L246.5 320.65Z" fill="white"/>
<path d="M246.5 320.65L246.118 319.726L245.211 320.101L245.569 321.014L246.5 320.65ZM255.5 316.6L255.936 317.5L255.947 317.494L255.5 316.6ZM264.8 311.5L265.314 312.357L265.325 312.351L265.335 312.345L264.8 311.5ZM273.35 305.65L273.945 306.454L273.95 306.45L273.35 305.65ZM280.85 299.05V298.05H280.423L280.127 298.359L280.85 299.05ZM296.45 299.05H297.45V298.05H296.45V299.05ZM296.45 403V404H297.45V403H296.45ZM274.1 403H273.1V404H274.1V403ZM274.1 328.15H275.1V326.281L273.545 327.318L274.1 328.15ZM264.05 333.7L264.447 334.618L264.457 334.613L264.468 334.609L264.05 333.7ZM253.25 337.9L252.319 338.264L252.668 339.157L253.574 338.846L253.25 337.9ZM246.882 321.574C249.802 320.366 252.82 319.008 255.936 317.5L255.064 315.7C251.98 317.192 248.998 318.534 246.118 319.726L246.882 321.574ZM255.947 317.494C259.17 315.883 262.292 314.171 265.314 312.357L264.286 310.643C261.308 312.429 258.23 314.117 255.053 315.706L255.947 317.494ZM265.335 312.345C268.354 310.433 271.225 308.469 273.945 306.454L272.755 304.846C270.075 306.831 267.246 308.767 264.265 310.655L265.335 312.345ZM273.95 306.45C276.79 304.32 279.331 302.084 281.573 299.741L280.127 298.359C277.969 300.616 275.51 302.78 272.75 304.85L273.95 306.45ZM280.85 300.05H296.45V298.05H280.85V300.05ZM295.45 299.05V403H297.45V299.05H295.45ZM296.45 402H274.1V404H296.45V402ZM275.1 403V328.15H273.1V403H275.1ZM273.545 327.318C270.594 329.285 267.291 331.11 263.633 332.791L264.468 334.609C268.209 332.89 271.606 331.015 274.655 328.982L273.545 327.318ZM263.653 332.782C259.975 334.373 256.399 335.763 252.926 336.954L253.574 338.846C257.101 337.637 260.725 336.227 264.447 334.618L263.653 332.782ZM254.181 337.536L247.431 320.286L245.569 321.014L252.319 338.264L254.181 337.536Z" fill="black"/>
<path d="M132.4 356.35C132.4 360.15 131.65 363.8 130.15 367.3C128.65 370.8 126.7 374.2 124.3 377.5C121.9 380.7 119.2 383.8 116.2 386.8C113.2 389.8 110.25 392.65 107.35 395.35C105.85 396.75 104.2 398.35 102.4 400.15C100.7 401.85 99.05 403.6 97.45 405.4C95.85 407.2 94.4 408.9 93.1 410.5C91.9 412 91.15 413.25 90.85 414.25H135.55V433H66.25C66.05 431.9 65.95 430.5 65.95 428.8C65.95 427.1 65.95 425.9 65.95 425.2C65.95 420.4 66.7 416 68.2 412C69.8 408 71.85 404.3 74.35 400.9C76.85 397.4 79.65 394.15 82.75 391.15C85.95 388.15 89.1 385.15 92.2 382.15C94.6 379.85 96.85 377.7 98.95 375.7C101.05 373.6 102.9 371.6 104.5 369.7C106.1 367.7 107.35 365.75 108.25 363.85C109.15 361.85 109.6 359.85 109.6 357.85C109.6 353.45 108.35 350.35 105.85 348.55C103.35 346.75 100.25 345.85 96.55 345.85C93.85 345.85 91.3 346.3 88.9 347.2C86.6 348 84.45 349 82.45 350.2C80.55 351.3 78.9 352.45 77.5 353.65C76.1 354.75 75.05 355.65 74.35 356.35L63.25 340.75C67.65 336.65 72.75 333.3 78.55 330.7C84.45 328 90.75 326.65 97.45 326.65C103.55 326.65 108.8 327.35 113.2 328.75C117.6 330.15 121.2 332.15 124 334.75C126.9 337.25 129 340.35 130.3 344.05C131.7 347.65 132.4 351.75 132.4 356.35Z" fill="white"/>
<path d="M130.15 367.3L131.069 367.694L131.069 367.694L130.15 367.3ZM124.3 377.5L125.1 378.1L125.104 378.094L125.109 378.088L124.3 377.5ZM107.35 395.35L106.669 394.618L106.668 394.619L107.35 395.35ZM102.4 400.15L101.693 399.443L101.693 399.443L102.4 400.15ZM97.45 405.4L96.7026 404.736L96.7026 404.736L97.45 405.4ZM93.1 410.5L92.3239 409.869L92.3191 409.875L93.1 410.5ZM90.85 414.25L89.8922 413.963L89.506 415.25H90.85V414.25ZM135.55 414.25H136.55V413.25H135.55V414.25ZM135.55 433V434H136.55V433H135.55ZM66.25 433L65.2661 433.179L65.4154 434H66.25V433ZM68.2 412L67.2715 411.629L67.2675 411.639L67.2637 411.649L68.2 412ZM74.35 400.9L75.1557 401.492L75.1637 401.481L74.35 400.9ZM82.75 391.15L82.0661 390.42L82.0603 390.426L82.0546 390.431L82.75 391.15ZM92.2 382.15L91.5081 381.428L91.5046 381.431L92.2 382.15ZM98.95 375.7L99.6397 376.424L99.6485 376.416L99.6571 376.407L98.95 375.7ZM104.5 369.7L105.265 370.344L105.273 370.335L105.281 370.325L104.5 369.7ZM108.25 363.85L109.154 364.278L109.158 364.269L109.162 364.26L108.25 363.85ZM88.9 347.2L89.2285 348.144L89.2399 348.141L89.2511 348.136L88.9 347.2ZM82.45 350.2L82.951 351.065L82.9578 351.062L82.9645 351.057L82.45 350.2ZM77.5 353.65L78.1178 354.436L78.1346 354.423L78.1508 354.409L77.5 353.65ZM74.35 356.35L73.5352 356.93L74.2209 357.893L75.0571 357.057L74.35 356.35ZM63.25 340.75L62.5683 340.018L61.9272 340.616L62.4352 341.33L63.25 340.75ZM78.55 330.7L78.9591 331.613L78.9661 331.609L78.55 330.7ZM113.2 328.75L113.503 327.797L113.503 327.797L113.2 328.75ZM124 334.75L123.32 335.483L123.333 335.495L123.347 335.507L124 334.75ZM130.3 344.05L129.357 344.381L129.362 344.397L129.368 344.412L130.3 344.05ZM131.4 356.35C131.4 360.014 130.678 363.53 129.231 366.906L131.069 367.694C132.622 364.07 133.4 360.286 133.4 356.35H131.4ZM129.231 366.906C127.762 370.333 125.85 373.668 123.491 376.912L125.109 378.088C127.55 374.732 129.538 371.267 131.069 367.694L129.231 366.906ZM123.5 376.9C121.13 380.06 118.461 383.124 115.493 386.093L116.907 387.507C119.939 384.476 122.67 381.34 125.1 378.1L123.5 376.9ZM115.493 386.093C112.501 389.085 109.559 391.927 106.669 394.618L108.031 396.082C110.941 393.373 113.899 390.515 116.907 387.507L115.493 386.093ZM106.668 394.619C105.158 396.028 103.499 397.637 101.693 399.443L103.107 400.857C104.901 399.063 106.542 397.472 108.032 396.081L106.668 394.619ZM101.693 399.443C99.979 401.157 98.3156 402.921 96.7026 404.736L98.1974 406.064C99.7844 404.279 101.421 402.543 103.107 400.857L101.693 399.443ZM96.7026 404.736C95.0944 406.545 93.6346 408.256 92.3239 409.869L93.8761 411.131C95.1654 409.544 96.6056 407.855 98.1974 406.064L96.7026 404.736ZM92.3191 409.875C91.0949 411.406 90.2481 412.776 89.8922 413.963L91.8078 414.537C92.0519 413.724 92.7051 412.594 93.8809 411.125L92.3191 409.875ZM90.85 415.25H135.55V413.25H90.85V415.25ZM134.55 414.25V433H136.55V414.25H134.55ZM135.55 432H66.25V434H135.55V432ZM67.2339 432.821C67.0486 431.802 66.95 430.468 66.95 428.8H64.95C64.95 430.532 65.0514 431.998 65.2661 433.179L67.2339 432.821ZM66.95 428.8C66.95 428.797 66.95 428.793 66.95 428.79C66.95 428.787 66.95 428.783 66.95 428.78C66.95 428.777 66.95 428.773 66.95 428.77C66.95 428.767 66.95 428.764 66.95 428.76C66.95 428.757 66.95 428.754 66.95 428.75C66.95 428.747 66.95 428.744 66.95 428.74C66.95 428.737 66.95 428.734 66.95 428.731C66.95 428.727 66.95 428.724 66.95 428.721C66.95 428.717 66.95 428.714 66.95 428.711C66.95 428.708 66.95 428.704 66.95 428.701C66.95 428.698 66.95 428.694 66.95 428.691C66.95 428.688 66.95 428.685 66.95 428.681C66.95 428.678 66.95 428.675 66.95 428.671C66.95 428.668 66.95 428.665 66.95 428.662C66.95 428.658 66.95 428.655 66.95 428.652C66.95 428.649 66.95 428.645 66.95 428.642C66.95 428.639 66.95 428.636 66.95 428.632C66.95 428.629 66.95 428.626 66.95 428.623C66.95 428.619 66.95 428.616 66.95 428.613C66.95 428.61 66.95 428.606 66.95 428.603C66.95 428.6 66.95 428.597 66.95 428.593C66.95 428.59 66.95 428.587 66.95 428.584C66.95 428.58 66.95 428.577 66.95 428.574C66.95 428.571 66.95 428.567 66.95 428.564C66.95 428.561 66.95 428.558 66.95 428.555C66.95 428.551 66.95 428.548 66.95 428.545C66.95 428.542 66.95 428.538 66.95 428.535C66.95 428.532 66.95 428.529 66.95 428.526C66.95 428.522 66.95 428.519 66.95 428.516C66.95 428.513 66.95 428.51 66.95 428.506C66.95 428.503 66.95 428.5 66.95 428.497C66.95 428.494 66.95 428.49 66.95 428.487C66.95 428.484 66.95 428.481 66.95 428.478C66.95 428.474 66.95 428.471 66.95 428.468C66.95 428.465 66.95 428.462 66.95 428.458C66.95 428.455 66.95 428.452 66.95 428.449C66.95 428.446 66.95 428.442 66.95 428.439C66.95 428.436 66.95 428.433 66.95 428.43C66.95 428.427 66.95 428.423 66.95 428.42C66.95 428.417 66.95 428.414 66.95 428.411C66.95 428.408 66.95 428.404 66.95 428.401C66.95 428.398 66.95 428.395 66.95 428.392C66.95 428.389 66.95 428.385 66.95 428.382C66.95 428.379 66.95 428.376 66.95 428.373C66.95 428.37 66.95 428.366 66.95 428.363C66.95 428.36 66.95 428.357 66.95 428.354C66.95 428.351 66.95 428.348 66.95 428.344C66.95 428.341 66.95 428.338 66.95 428.335C66.95 428.332 66.95 428.329 66.95 428.326C66.95 428.323 66.95 428.319 66.95 428.316C66.95 428.313 66.95 428.31 66.95 428.307C66.95 428.304 66.95 428.301 66.95 428.298C66.95 428.294 66.95 428.291 66.95 428.288C66.95 428.285 66.95 428.282 66.95 428.279C66.95 428.276 66.95 428.273 66.95 428.269C66.95 428.266 66.95 428.263 66.95 428.26C66.95 428.257 66.95 428.254 66.95 428.251C66.95 428.248 66.95 428.245 66.95 428.242C66.95 428.238 66.95 428.235 66.95 428.232C66.95 428.229 66.95 428.226 66.95 428.223C66.95 428.22 66.95 428.217 66.95 428.214C66.95 428.211 66.95 428.208 66.95 428.204C66.95 428.201 66.95 428.198 66.95 428.195C66.95 428.192 66.95 428.189 66.95 428.186C66.95 428.183 66.95 428.18 66.95 428.177C66.95 428.174 66.95 428.171 66.95 428.168C66.95 428.164 66.95 428.161 66.95 428.158C66.95 428.155 66.95 428.152 66.95 428.149C66.95 428.146 66.95 428.143 66.95 428.14C66.95 428.137 66.95 428.134 66.95 428.131C66.95 428.128 66.95 428.125 66.95 428.122C66.95 428.119 66.95 428.116 66.95 428.112C66.95 428.109 66.95 428.106 66.95 428.103C66.95 428.1 66.95 428.097 66.95 428.094C66.95 428.091 66.95 428.088 66.95 428.085C66.95 428.082 66.95 428.079 66.95 428.076C66.95 428.073 66.95 428.07 66.95 428.067C66.95 428.064 66.95 428.061 66.95 428.058C66.95 428.055 66.95 428.052 66.95 428.049C66.95 428.046 66.95 428.043 66.95 428.04C66.95 428.037 66.95 428.034 66.95 428.031C66.95 428.028 66.95 428.025 66.95 428.022C66.95 428.019 66.95 428.016 66.95 428.013C66.95 428.01 66.95 428.007 66.95 428.004C66.95 428.001 66.95 427.998 66.95 427.995C66.95 427.992 66.95 427.989 66.95 427.986C66.95 427.983 66.95 427.98 66.95 427.977C66.95 427.974 66.95 427.971 66.95 427.968C66.95 427.965 66.95 427.962 66.95 427.959C66.95 427.956 66.95 427.953 66.95 427.95C66.95 427.947 66.95 427.944 66.95 427.941C66.95 427.938 66.95 427.935 66.95 427.932C66.95 427.929 66.95 427.926 66.95 427.923C66.95 427.92 66.95 427.917 66.95 427.914C66.95 427.911 66.95 427.908 66.95 427.905C66.95 427.902 66.95 427.899 66.95 427.896C66.95 427.894 66.95 427.891 66.95 427.888C66.95 427.885 66.95 427.882 66.95 427.879C66.95 427.876 66.95 427.873 66.95 427.87C66.95 427.867 66.95 427.864 66.95 427.861C66.95 427.858 66.95 427.855 66.95 427.852C66.95 427.849 66.95 427.846 66.95 427.844C66.95 427.841 66.95 427.838 66.95 427.835C66.95 427.832 66.95 427.829 66.95 427.826C66.95 427.823 66.95 427.82 66.95 427.817C66.95 427.814 66.95 427.811 66.95 427.808C66.95 427.806 66.95 427.803 66.95 427.8C66.95 427.797 66.95 427.794 66.95 427.791C66.95 427.788 66.95 427.785 66.95 427.782C66.95 427.779 66.95 427.776 66.95 427.774C66.95 427.771 66.95 427.768 66.95 427.765C66.95 427.762 66.95 427.759 66.95 427.756C66.95 427.753 66.95 427.75 66.95 427.747C66.95 427.745 66.95 427.742 66.95 427.739C66.95 427.736 66.95 427.733 66.95 427.73C66.95 427.727 66.95 427.724 66.95 427.722C66.95 427.719 66.95 427.716 66.95 427.713C66.95 427.71 66.95 427.707 66.95 427.704C66.95 427.701 66.95 427.699 66.95 427.696C66.95 427.693 66.95 427.69 66.95 427.687C66.95 427.684 66.95 427.681 66.95 427.679C66.95 427.676 66.95 427.673 66.95 427.67C66.95 427.667 66.95 427.664 66.95 427.661C66.95 427.659 66.95 427.656 66.95 427.653C66.95 427.65 66.95 427.647 66.95 427.644C66.95 427.641 66.95 427.639 66.95 427.636C66.95 427.633 66.95 427.63 66.95 427.627C66.95 427.624 66.95 427.622 66.95 427.619C66.95 427.616 66.95 427.613 66.95 427.61C66.95 427.607 66.95 427.605 66.95 427.602C66.95 427.599 66.95 427.596 66.95 427.593C66.95 427.59 66.95 427.588 66.95 427.585C66.95 427.582 66.95 427.579 66.95 427.576C66.95 427.574 66.95 427.571 66.95 427.568C66.95 427.565 66.95 427.562 66.95 427.56C66.95 427.557 66.95 427.554 66.95 427.551C66.95 427.548 66.95 427.546 66.95 427.543C66.95 427.54 66.95 427.537 66.95 427.534C66.95 427.532 66.95 427.529 66.95 427.526C66.95 427.523 66.95 427.52 66.95 427.518C66.95 427.515 66.95 427.512 66.95 427.509C66.95 427.506 66.95 427.504 66.95 427.501C66.95 427.498 66.95 427.495 66.95 427.493C66.95 427.49 66.95 427.487 66.95 427.484C66.95 427.482 66.95 427.479 66.95 427.476C66.95 427.473 66.95 427.47 66.95 427.468C66.95 427.465 66.95 427.462 66.95 427.459C66.95 427.457 66.95 427.454 66.95 427.451C66.95 427.448 66.95 427.446 66.95 427.443C66.95 427.44 66.95 427.437 66.95 427.435C66.95 427.432 66.95 427.429 66.95 427.426C66.95 427.424 66.95 427.421 66.95 427.418C66.95 427.415 66.95 427.413 66.95 427.41C66.95 427.407 66.95 427.404 66.95 427.402C66.95 427.399 66.95 427.396 66.95 427.394C66.95 427.391 66.95 427.388 66.95 427.385C66.95 427.383 66.95 427.38 66.95 427.377C66.95 427.374 66.95 427.372 66.95 427.369C66.95 427.366 66.95 427.364 66.95 427.361C66.95 427.358 66.95 427.355 66.95 427.353C66.95 427.35 66.95 427.347 66.95 427.345C66.95 427.342 66.95 427.339 66.95 427.336C66.95 427.334 66.95 427.331 66.95 427.328C66.95 427.326 66.95 427.323 66.95 427.32C66.95 427.318 66.95 427.315 66.95 427.312C66.95 427.31 66.95 427.307 66.95 427.304C66.95 427.301 66.95 427.299 66.95 427.296C66.95 427.293 66.95 427.291 66.95 427.288C66.95 427.285 66.95 427.283 66.95 427.28C66.95 427.277 66.95 427.275 66.95 427.272C66.95 427.269 66.95 427.267 66.95 427.264C66.95 427.261 66.95 427.259 66.95 427.256C66.95 427.253 66.95 427.251 66.95 427.248C66.95 427.245 66.95 427.243 66.95 427.24C66.95 427.237 66.95 427.235 66.95 427.232C66.95 427.229 66.95 427.227 66.95 427.224C66.95 427.221 66.95 427.219 66.95 427.216C66.95 427.214 66.95 427.211 66.95 427.208C66.95 427.206 66.95 427.203 66.95 427.2C66.95 427.198 66.95 427.195 66.95 427.192C66.95 427.19 66.95 427.187 66.95 427.185C66.95 427.182 66.95 427.179 66.95 427.177C66.95 427.174 66.95 427.171 66.95 427.169C66.95 427.166 66.95 427.164 66.95 427.161C66.95 427.158 66.95 427.156 66.95 427.153C66.95 427.15 66.95 427.148 66.95 427.145C66.95 427.143 66.95 427.14 66.95 427.137C66.95 427.135 66.95 427.132 66.95 427.13C66.95 427.127 66.95 427.124 66.95 427.122C66.95 427.119 66.95 427.117 66.95 427.114C66.95 427.111 66.95 427.109 66.95 427.106C66.95 427.104 66.95 427.101 66.95 427.098C66.95 427.096 66.95 427.093 66.95 427.091C66.95 427.088 66.95 427.086 66.95 427.083C66.95 427.08 66.95 427.078 66.95 427.075C66.95 427.073 66.95 427.07 66.95 427.067C66.95 427.065 66.95 427.062 66.95 427.06C66.95 427.057 66.95 427.055 66.95 427.052C66.95 427.049 66.95 427.047 66.95 427.044C66.95 427.042 66.95 427.039 66.95 427.037C66.95 427.034 66.95 427.032 66.95 427.029C66.95 427.026 66.95 427.024 66.95 427.021C66.95 427.019 66.95 427.016 66.95 427.014C66.95 427.011 66.95 427.009 66.95 427.006C66.95 427.004 66.95 427.001 66.95 426.998C66.95 426.996 66.95 426.993 66.95 426.991C66.95 426.988 66.95 426.986 66.95 426.983C66.95 426.981 66.95 426.978 66.95 426.976C66.95 426.973 66.95 426.971 66.95 426.968C66.95 426.966 66.95 426.963 66.95 426.961C66.95 426.958 66.95 426.956 66.95 426.953C66.95 426.95 66.95 426.948 66.95 426.945C66.95 426.943 66.95 426.94 66.95 426.938C66.95 426.935 66.95 426.933 66.95 426.93C66.95 426.928 66.95 426.925 66.95 426.923C66.95 426.92 66.95 426.918 66.95 426.915C66.95 426.913 66.95 426.91 66.95 426.908C66.95 426.905 66.95 426.903 66.95 426.9C66.95 426.898 66.95 426.895 66.95 426.893C66.95 426.891 66.95 426.888 66.95 426.886C66.95 426.883 66.95 426.881 66.95 426.878C66.95 426.876 66.95 426.873 66.95 426.871C66.95 426.868 66.95 426.866 66.95 426.863C66.95 426.861 66.95 426.858 66.95 426.856C66.95 426.853 66.95 426.851 66.95 426.848C66.95 426.846 66.95 426.844 66.95 426.841C66.95 426.839 66.95 426.836 66.95 426.834C66.95 426.831 66.95 426.829 66.95 426.826C66.95 426.824 66.95 426.821 66.95 426.819C66.95 426.817 66.95 426.814 66.95 426.812C66.95 426.809 66.95 426.807 66.95 426.804C66.95 426.802 66.95 426.799 66.95 426.797C66.95 426.795 66.95 426.792 66.95 426.79C66.95 426.787 66.95 426.785 66.95 426.782C66.95 426.78 66.95 426.778 66.95 426.775C66.95 426.773 66.95 426.77 66.95 426.768C66.95 426.765 66.95 426.763 66.95 426.761C66.95 426.758 66.95 426.756 66.95 426.753C66.95 426.751 66.95 426.749 66.95 426.746C66.95 426.744 66.95 426.741 66.95 426.739C66.95 426.737 66.95 426.734 66.95 426.732C66.95 426.729 66.95 426.727 66.95 426.725C66.95 426.722 66.95 426.72 66.95 426.717C66.95 426.715 66.95 426.713 66.95 426.71C66.95 426.708 66.95 426.705 66.95 426.703C66.95 426.701 66.95 426.698 66.95 426.696C66.95 426.694 66.95 426.691 66.95 426.689C66.95 426.686 66.95 426.684 66.95 426.682C66.95 426.679 66.95 426.677 66.95 426.674C66.95 426.672 66.95 426.67 66.95 426.667C66.95 426.665 66.95 426.663 66.95 426.66C66.95 426.658 66.95 426.656 66.95 426.653C66.95 426.651 66.95 426.649 66.95 426.646C66.95 426.644 66.95 426.641 66.95 426.639C66.95 426.637 66.95 426.634 66.95 426.632C66.95 426.63 66.95 426.627 66.95 426.625C66.95 426.623 66.95 426.62 66.95 426.618C66.95 426.616 66.95 426.613 66.95 426.611C66.95 426.609 66.95 426.606 66.95 426.604C66.95 426.602 66.95 426.599 66.95 426.597C66.95 426.595 66.95 426.592 66.95 426.59C66.95 426.588 66.95 426.585 66.95 426.583C66.95 426.581 66.95 426.578 66.95 426.576C66.95 426.574 66.95 426.571 66.95 426.569C66.95 426.567 66.95 426.564 66.95 426.562C66.95 426.56 66.95 426.558 66.95 426.555C66.95 426.553 66.95 426.551 66.95 426.548C66.95 426.546 66.95 426.544 66.95 426.541C66.95 426.539 66.95 426.537 66.95 426.535C66.95 426.532 66.95 426.53 66.95 426.528C66.95 426.525 66.95 426.523 66.95 426.521C66.95 426.519 66.95 426.516 66.95 426.514C66.95 426.512 66.95 426.509 66.95 426.507C66.95 426.505 66.95 426.503 66.95 426.5C66.95 426.498 66.95 426.496 66.95 426.493C66.95 426.491 66.95 426.489 66.95 426.487C66.95 426.484 66.95 426.482 66.95 426.48C66.95 426.478 66.95 426.475 66.95 426.473C66.95 426.471 66.95 426.469 66.95 426.466C66.95 426.464 66.95 426.462 66.95 426.46C66.95 426.457 66.95 426.455 66.95 426.453C66.95 426.451 66.95 426.448 66.95 426.446C66.95 426.444 66.95 426.442 66.95 426.439C66.95 426.437 66.95 426.435 66.95 426.433C66.95 426.43 66.95 426.428 66.95 426.426C66.95 426.424 66.95 426.421 66.95 426.419C66.95 426.417 66.95 426.415 66.95 426.413C66.95 426.41 66.95 426.408 66.95 426.406C66.95 426.404 66.95 426.401 66.95 426.399C66.95 426.397 66.95 426.395 66.95 426.393C66.95 426.39 66.95 426.388 66.95 426.386C66.95 426.384 66.95 426.381 66.95 426.379C66.95 426.377 66.95 426.375 66.95 426.373C66.95 426.37 66.95 426.368 66.95 426.366C66.95 426.364 66.95 426.362 66.95 426.359C66.95 426.357 66.95 426.355 66.95 426.353C66.95 426.351 66.95 426.349 66.95 426.346C66.95 426.344 66.95 426.342 66.95 426.34C66.95 426.338 66.95 426.335 66.95 426.333C66.95 426.331 66.95 426.329 66.95 426.327C66.95 426.325 66.95 426.322 66.95 426.32C66.95 426.318 66.95 426.316 66.95 426.314C66.95 426.312 66.95 426.309 66.95 426.307C66.95 426.305 66.95 426.303 66.95 426.301C66.95 426.299 66.95 426.296 66.95 426.294C66.95 426.292 66.95 426.29 66.95 426.288C66.95 426.286 66.95 426.283 66.95 426.281C66.95 426.279 66.95 426.277 66.95 426.275C66.95 426.273 66.95 426.271 66.95 426.268C66.95 426.266 66.95 426.264 66.95 426.262C66.95 426.26 66.95 426.258 66.95 426.256C66.95 426.253 66.95 426.251 66.95 426.249C66.95 426.247 66.95 426.245 66.95 426.243C66.95 426.241 66.95 426.239 66.95 426.236C66.95 426.234 66.95 426.232 66.95 426.23C66.95 426.228 66.95 426.226 66.95 426.224C66.95 426.222 66.95 426.219 66.95 426.217C66.95 426.215 66.95 426.213 66.95 426.211C66.95 426.209 66.95 426.207 66.95 426.205C66.95 426.203 66.95 426.201 66.95 426.198C66.95 426.196 66.95 426.194 66.95 426.192C66.95 426.19 66.95 426.188 66.95 426.186C66.95 426.184 66.95 426.182 66.95 426.18C66.95 426.178 66.95 426.175 66.95 426.173C66.95 426.171 66.95 426.169 66.95 426.167C66.95 426.165 66.95 426.163 66.95 426.161C66.95 426.159 66.95 426.157 66.95 426.155C66.95 426.153 66.95 426.15 66.95 426.148C66.95 426.146 66.95 426.144 66.95 426.142C66.95 426.14 66.95 426.138 66.95 426.136C66.95 426.134 66.95 426.132 66.95 426.13C66.95 426.128 66.95 426.126 66.95 426.124C66.95 426.122 66.95 426.12 66.95 426.118C66.95 426.115 66.95 426.113 66.95 426.111C66.95 426.109 66.95 426.107 66.95 426.105C66.95 426.103 66.95 426.101 66.95 426.099C66.95 426.097 66.95 426.095 66.95 426.093C66.95 426.091 66.95 426.089 66.95 426.087C66.95 426.085 66.95 426.083 66.95 426.081C66.95 426.079 66.95 426.077 66.95 426.075C66.95 426.073 66.95 426.071 66.95 426.069C66.95 426.067 66.95 426.065 66.95 426.063C66.95 426.061 66.95 426.059 66.95 426.057C66.95 426.055 66.95 426.053 66.95 426.051C66.95 426.049 66.95 426.047 66.95 426.045C66.95 426.043 66.95 426.041 66.95 426.039C66.95 426.037 66.95 426.035 66.95 426.033C66.95 426.031 66.95 426.029 66.95 426.027C66.95 426.025 66.95 426.023 66.95 426.021C66.95 426.019 66.95 426.017 66.95 426.015C66.95 426.013 66.95 426.011 66.95 426.009C66.95 426.007 66.95 426.005 66.95 426.003C66.95 426.001 66.95 425.999 66.95 425.997C66.95 425.995 66.95 425.993 66.95 425.991C66.95 425.989 66.95 425.987 66.95 425.985C66.95 425.983 66.95 425.981 66.95 425.979C66.95 425.977 66.95 425.975 66.95 425.973C66.95 425.971 66.95 425.969 66.95 425.967C66.95 425.965 66.95 425.963 66.95 425.961C66.95 425.96 66.95 425.958 66.95 425.956C66.95 425.954 66.95 425.952 66.95 425.95C66.95 425.948 66.95 425.946 66.95 425.944C66.95 425.942 66.95 425.94 66.95 425.938C66.95 425.936 66.95 425.934 66.95 425.932C66.95 425.93 66.95 425.929 66.95 425.927C66.95 425.925 66.95 425.923 66.95 425.921C66.95 425.919 66.95 425.917 66.95 425.915C66.95 425.913 66.95 425.911 66.95 425.909C66.95 425.907 66.95 425.905 66.95 425.904C66.95 425.902 66.95 425.9 66.95 425.898C66.95 425.896 66.95 425.894 66.95 425.892C66.95 425.89 66.95 425.888 66.95 425.886C66.95 425.884 66.95 425.883 66.95 425.881C66.95 425.879 66.95 425.877 66.95 425.875C66.95 425.873 66.95 425.871 66.95 425.869C66.95 425.867 66.95 425.866 66.95 425.864C66.95 425.862 66.95 425.86 66.95 425.858C66.95 425.856 66.95 425.854 66.95 425.852C66.95 425.85 66.95 425.849 66.95 425.847C66.95 425.845 66.95 425.843 66.95 425.841C66.95 425.839 66.95 425.837 66.95 425.836C66.95 425.834 66.95 425.832 66.95 425.83C66.95 425.828 66.95 425.826 66.95 425.824C66.95 425.822 66.95 425.821 66.95 425.819C66.95 425.817 66.95 425.815 66.95 425.813C66.95 425.811 66.95 425.809 66.95 425.808C66.95 425.806 66.95 425.804 66.95 425.802C66.95 425.8 66.95 425.798 66.95 425.797C66.95 425.795 66.95 425.793 66.95 425.791C66.95 425.789 66.95 425.787 66.95 425.786C66.95 425.784 66.95 425.782 66.95 425.78C66.95 425.778 66.95 425.776 66.95 425.775C66.95 425.773 66.95 425.771 66.95 425.769C66.95 425.767 66.95 425.765 66.95 425.764C66.95 425.762 66.95 425.76 66.95 425.758C66.95 425.756 66.95 425.755 66.95 425.753C66.95 425.751 66.95 425.749 66.95 425.747C66.95 425.746 66.95 425.744 66.95 425.742C66.95 425.74 66.95 425.738 66.95 425.737C66.95 425.735 66.95 425.733 66.95 425.731C66.95 425.729 66.95 425.728 66.95 425.726C66.95 425.724 66.95 425.722 66.95 425.72C66.95 425.719 66.95 425.717 66.95 425.715C66.95 425.713 66.95 425.711 66.95 425.71C66.95 425.708 66.95 425.706 66.95 425.704C66.95 425.703 66.95 425.701 66.95 425.699C66.95 425.697 66.95 425.696 66.95 425.694C66.95 425.692 66.95 425.69 66.95 425.688C66.95 425.687 66.95 425.685 66.95 425.683C66.95 425.681 66.95 425.68 66.95 425.678C66.95 425.676 66.95 425.674 66.95 425.673C66.95 425.671 66.95 425.669 66.95 425.667C66.95 425.666 66.95 425.664 66.95 425.662C66.95 425.66 66.95 425.659 66.95 425.657C66.95 425.655 66.95 425.653 66.95 425.652C66.95 425.65 66.95 425.648 66.95 425.646C66.95 425.645 66.95 425.643 66.95 425.641C66.95 425.64 66.95 425.638 66.95 425.636C66.95 425.634 66.95 425.633 66.95 425.631C66.95 425.629 66.95 425.627 66.95 425.626C66.95 425.624 66.95 425.622 66.95 425.621C66.95 425.619 66.95 425.617 66.95 425.615C66.95 425.614 66.95 425.612 66.95 425.61C66.95 425.609 66.95 425.607 66.95 425.605C66.95 425.604 66.95 425.602 66.95 425.6C66.95 425.598 66.95 425.597 66.95 425.595C66.95 425.593 66.95 425.592 66.95 425.59C66.95 425.588 66.95 425.587 66.95 425.585C66.95 425.583 66.95 425.582 66.95 425.58C66.95 425.578 66.95 425.576 66.95 425.575C66.95 425.573 66.95 425.571 66.95 425.57C66.95 425.568 66.95 425.566 66.95 425.565C66.95 425.563 66.95 425.561 66.95 425.56C66.95 425.558 66.95 425.556 66.95 425.555C66.95 425.553 66.95 425.551 66.95 425.55C66.95 425.548 66.95 425.546 66.95 425.545C66.95 425.543 66.95 425.541 66.95 425.54C66.95 425.538 66.95 425.536 66.95 425.535C66.95 425.533 66.95 425.532 66.95 425.53C66.95 425.528 66.95 425.527 66.95 425.525C66.95 425.523 66.95 425.522 66.95 425.52C66.95 425.518 66.95 425.517 66.95 425.515C66.95 425.514 66.95 425.512 66.95 425.51C66.95 425.509 66.95 425.507 66.95 425.505C66.95 425.504 66.95 425.502 66.95 425.5C66.95 425.499 66.95 425.497 66.95 425.496C66.95 425.494 66.95 425.492 66.95 425.491C66.95 425.489 66.95 425.488 66.95 425.486C66.95 425.484 66.95 425.483 66.95 425.481C66.95 425.48 66.95 425.478 66.95 425.476C66.95 425.475 66.95 425.473 66.95 425.471C66.95 425.47 66.95 425.468 66.95 425.467C66.95 425.465 66.95 425.464 66.95 425.462C66.95 425.46 66.95 425.459 66.95 425.457C66.95 425.456 66.95 425.454 66.95 425.452C66.95 425.451 66.95 425.449 66.95 425.448C66.95 425.446 66.95 425.444 66.95 425.443C66.95 425.441 66.95 425.44 66.95 425.438C66.95 425.437 66.95 425.435 66.95 425.433C66.95 425.432 66.95 425.43 66.95 425.429C66.95 425.427 66.95 425.426 66.95 425.424C66.95 425.423 66.95 425.421 66.95 425.419C66.95 425.418 66.95 425.416 66.95 425.415C66.95 425.413 66.95 425.412 66.95 425.41C66.95 425.409 66.95 425.407 66.95 425.405C66.95 425.404 66.95 425.402 66.95 425.401C66.95 425.399 66.95 425.398 66.95 425.396C66.95 425.395 66.95 425.393 66.95 425.392C66.95 425.39 66.95 425.388 66.95 425.387C66.95 425.385 66.95 425.384 66.95 425.382C66.95 425.381 66.95 425.379 66.95 425.378C66.95 425.376 66.95 425.375 66.95 425.373C66.95 425.372 66.95 425.37 66.95 425.369C66.95 425.367 66.95 425.366 66.95 425.364C66.95 425.363 66.95 425.361 66.95 425.36C66.95 425.358 66.95 425.357 66.95 425.355C66.95 425.354 66.95 425.352 66.95 425.351C66.95 425.349 66.95 425.348 66.95 425.346C66.95 425.345 66.95 425.343 66.95 425.342C66.95 425.34 66.95 425.339 66.95 425.337C66.95 425.336 66.95 425.334 66.95 425.333C66.95 425.331 66.95 425.33 66.95 425.328C66.95 425.327 66.95 425.325 66.95 425.324C66.95 425.322 66.95 425.321 66.95 425.319C66.95 425.318 66.95 425.316 66.95 425.315C66.95 425.313 66.95 425.312 66.95 425.311C66.95 425.309 66.95 425.308 66.95 425.306C66.95 425.305 66.95 425.303 66.95 425.302C66.95 425.3 66.95 425.299 66.95 425.297C66.95 425.296 66.95 425.294 66.95 425.293C66.95 425.292 66.95 425.29 66.95 425.289C66.95 425.287 66.95 425.286 66.95 425.284C66.95 425.283 66.95 425.281 66.95 425.28C66.95 425.279 66.95 425.277 66.95 425.276C66.95 425.274 66.95 425.273 66.95 425.271C66.95 425.27 66.95 425.269 66.95 425.267C66.95 425.266 66.95 425.264 66.95 425.263C66.95 425.261 66.95 425.26 66.95 425.259C66.95 425.257 66.95 425.256 66.95 425.254C66.95 425.253 66.95 425.251 66.95 425.25C66.95 425.249 66.95 425.247 66.95 425.246C66.95 425.244 66.95 425.243 66.95 425.242C66.95 425.24 66.95 425.239 66.95 425.237C66.95 425.236 66.95 425.235 66.95 425.233C66.95 425.232 66.95 425.23 66.95 425.229C66.95 425.228 66.95 425.226 66.95 425.225C66.95 425.223 66.95 425.222 66.95 425.221C66.95 425.219 66.95 425.218 66.95 425.216C66.95 425.215 66.95 425.214 66.95 425.212C66.95 425.211 66.95 425.21 66.95 425.208C66.95 425.207 66.95 425.205 66.95 425.204C66.95 425.203 66.95 425.201 66.95 425.2H64.95C64.95 425.201 64.95 425.203 64.95 425.204C64.95 425.205 64.95 425.207 64.95 425.208C64.95 425.21 64.95 425.211 64.95 425.212C64.95 425.214 64.95 425.215 64.95 425.216C64.95 425.218 64.95 425.219 64.95 425.221C64.95 425.222 64.95 425.223 64.95 425.225C64.95 425.226 64.95 425.228 64.95 425.229C64.95 425.23 64.95 425.232 64.95 425.233C64.95 425.235 64.95 425.236 64.95 425.237C64.95 425.239 64.95 425.24 64.95 425.242C64.95 425.243 64.95 425.244 64.95 425.246C64.95 425.247 64.95 425.249 64.95 425.25C64.95 425.251 64.95 425.253 64.95 425.254C64.95 425.256 64.95 425.257 64.95 425.259C64.95 425.26 64.95 425.261 64.95 425.263C64.95 425.264 64.95 425.266 64.95 425.267C64.95 425.269 64.95 425.27 64.95 425.271C64.95 425.273 64.95 425.274 64.95 425.276C64.95 425.277 64.95 425.279 64.95 425.28C64.95 425.281 64.95 425.283 64.95 425.284C64.95 425.286 64.95 425.287 64.95 425.289C64.95 425.29 64.95 425.292 64.95 425.293C64.95 425.294 64.95 425.296 64.95 425.297C64.95 425.299 64.95 425.3 64.95 425.302C64.95 425.303 64.95 425.305 64.95 425.306C64.95 425.308 64.95 425.309 64.95 425.311C64.95 425.312 64.95 425.313 64.95 425.315C64.95 425.316 64.95 425.318 64.95 425.319C64.95 425.321 64.95 425.322 64.95 425.324C64.95 425.325 64.95 425.327 64.95 425.328C64.95 425.33 64.95 425.331 64.95 425.333C64.95 425.334 64.95 425.336 64.95 425.337C64.95 425.339 64.95 425.34 64.95 425.342C64.95 425.343 64.95 425.345 64.95 425.346C64.95 425.348 64.95 425.349 64.95 425.351C64.95 425.352 64.95 425.354 64.95 425.355C64.95 425.357 64.95 425.358 64.95 425.36C64.95 425.361 64.95 425.363 64.95 425.364C64.95 425.366 64.95 425.367 64.95 425.369C64.95 425.37 64.95 425.372 64.95 425.373C64.95 425.375 64.95 425.376 64.95 425.378C64.95 425.379 64.95 425.381 64.95 425.382C64.95 425.384 64.95 425.385 64.95 425.387C64.95 425.388 64.95 425.39 64.95 425.392C64.95 425.393 64.95 425.395 64.95 425.396C64.95 425.398 64.95 425.399 64.95 425.401C64.95 425.402 64.95 425.404 64.95 425.405C64.95 425.407 64.95 425.409 64.95 425.41C64.95 425.412 64.95 425.413 64.95 425.415C64.95 425.416 64.95 425.418 64.95 425.419C64.95 425.421 64.95 425.423 64.95 425.424C64.95 425.426 64.95 425.427 64.95 425.429C64.95 425.43 64.95 425.432 64.95 425.433C64.95 425.435 64.95 425.437 64.95 425.438C64.95 425.44 64.95 425.441 64.95 425.443C64.95 425.444 64.95 425.446 64.95 425.448C64.95 425.449 64.95 425.451 64.95 425.452C64.95 425.454 64.95 425.456 64.95 425.457C64.95 425.459 64.95 425.46 64.95 425.462C64.95 425.464 64.95 425.465 64.95 425.467C64.95 425.468 64.95 425.47 64.95 425.471C64.95 425.473 64.95 425.475 64.95 425.476C64.95 425.478 64.95 425.48 64.95 425.481C64.95 425.483 64.95 425.484 64.95 425.486C64.95 425.488 64.95 425.489 64.95 425.491C64.95 425.492 64.95 425.494 64.95 425.496C64.95 425.497 64.95 425.499 64.95 425.5C64.95 425.502 64.95 425.504 64.95 425.505C64.95 425.507 64.95 425.509 64.95 425.51C64.95 425.512 64.95 425.514 64.95 425.515C64.95 425.517 64.95 425.518 64.95 425.52C64.95 425.522 64.95 425.523 64.95 425.525C64.95 425.527 64.95 425.528 64.95 425.53C64.95 425.532 64.95 425.533 64.95 425.535C64.95 425.536 64.95 425.538 64.95 425.54C64.95 425.541 64.95 425.543 64.95 425.545C64.95 425.546 64.95 425.548 64.95 425.55C64.95 425.551 64.95 425.553 64.95 425.555C64.95 425.556 64.95 425.558 64.95 425.56C64.95 425.561 64.95 425.563 64.95 425.565C64.95 425.566 64.95 425.568 64.95 425.57C64.95 425.571 64.95 425.573 64.95 425.575C64.95 425.576 64.95 425.578 64.95 425.58C64.95 425.582 64.95 425.583 64.95 425.585C64.95 425.587 64.95 425.588 64.95 425.59C64.95 425.592 64.95 425.593 64.95 425.595C64.95 425.597 64.95 425.598 64.95 425.6C64.95 425.602 64.95 425.604 64.95 425.605C64.95 425.607 64.95 425.609 64.95 425.61C64.95 425.612 64.95 425.614 64.95 425.615C64.95 425.617 64.95 425.619 64.95 425.621C64.95 425.622 64.95 425.624 64.95 425.626C64.95 425.627 64.95 425.629 64.95 425.631C64.95 425.633 64.95 425.634 64.95 425.636C64.95 425.638 64.95 425.64 64.95 425.641C64.95 425.643 64.95 425.645 64.95 425.646C64.95 425.648 64.95 425.65 64.95 425.652C64.95 425.653 64.95 425.655 64.95 425.657C64.95 425.659 64.95 425.66 64.95 425.662C64.95 425.664 64.95 425.666 64.95 425.667C64.95 425.669 64.95 425.671 64.95 425.673C64.95 425.674 64.95 425.676 64.95 425.678C64.95 425.68 64.95 425.681 64.95 425.683C64.95 425.685 64.95 425.687 64.95 425.688C64.95 425.69 64.95 425.692 64.95 425.694C64.95 425.696 64.95 425.697 64.95 425.699C64.95 425.701 64.95 425.703 64.95 425.704C64.95 425.706 64.95 425.708 64.95 425.71C64.95 425.711 64.95 425.713 64.95 425.715C64.95 425.717 64.95 425.719 64.95 425.72C64.95 425.722 64.95 425.724 64.95 425.726C64.95 425.728 64.95 425.729 64.95 425.731C64.95 425.733 64.95 425.735 64.95 425.737C64.95 425.738 64.95 425.74 64.95 425.742C64.95 425.744 64.95 425.746 64.95 425.747C64.95 425.749 64.95 425.751 64.95 425.753C64.95 425.755 64.95 425.756 64.95 425.758C64.95 425.76 64.95 425.762 64.95 425.764C64.95 425.765 64.95 425.767 64.95 425.769C64.95 425.771 64.95 425.773 64.95 425.775C64.95 425.776 64.95 425.778 64.95 425.78C64.95 425.782 64.95 425.784 64.95 425.786C64.95 425.787 64.95 425.789 64.95 425.791C64.95 425.793 64.95 425.795 64.95 425.797C64.95 425.798 64.95 425.8 64.95 425.802C64.95 425.804 64.95 425.806 64.95 425.808C64.95 425.809 64.95 425.811 64.95 425.813C64.95 425.815 64.95 425.817 64.95 425.819C64.95 425.821 64.95 425.822 64.95 425.824C64.95 425.826 64.95 425.828 64.95 425.83C64.95 425.832 64.95 425.834 64.95 425.836C64.95 425.837 64.95 425.839 64.95 425.841C64.95 425.843 64.95 425.845 64.95 425.847C64.95 425.849 64.95 425.85 64.95 425.852C64.95 425.854 64.95 425.856 64.95 425.858C64.95 425.86 64.95 425.862 64.95 425.864C64.95 425.866 64.95 425.867 64.95 425.869C64.95 425.871 64.95 425.873 64.95 425.875C64.95 425.877 64.95 425.879 64.95 425.881C64.95 425.883 64.95 425.884 64.95 425.886C64.95 425.888 64.95 425.89 64.95 425.892C64.95 425.894 64.95 425.896 64.95 425.898C64.95 425.9 64.95 425.902 64.95 425.904C64.95 425.905 64.95 425.907 64.95 425.909C64.95 425.911 64.95 425.913 64.95 425.915C64.95 425.917 64.95 425.919 64.95 425.921C64.95 425.923 64.95 425.925 64.95 425.927C64.95 425.929 64.95 425.93 64.95 425.932C64.95 425.934 64.95 425.936 64.95 425.938C64.95 425.94 64.95 425.942 64.95 425.944C64.95 425.946 64.95 425.948 64.95 425.95C64.95 425.952 64.95 425.954 64.95 425.956C64.95 425.958 64.95 425.96 64.95 425.961C64.95 425.963 64.95 425.965 64.95 425.967C64.95 425.969 64.95 425.971 64.95 425.973C64.95 425.975 64.95 425.977 64.95 425.979C64.95 425.981 64.95 425.983 64.95 425.985C64.95 425.987 64.95 425.989 64.95 425.991C64.95 425.993 64.95 425.995 64.95 425.997C64.95 425.999 64.95 426.001 64.95 426.003C64.95 426.005 64.95 426.007 64.95 426.009C64.95 426.011 64.95 426.013 64.95 426.015C64.95 426.017 64.95 426.019 64.95 426.021C64.95 426.023 64.95 426.025 64.95 426.027C64.95 426.029 64.95 426.031 64.95 426.033C64.95 426.035 64.95 426.037 64.95 426.039C64.95 426.041 64.95 426.043 64.95 426.045C64.95 426.047 64.95 426.049 64.95 426.051C64.95 426.053 64.95 426.055 64.95 426.057C64.95 426.059 64.95 426.061 64.95 426.063C64.95 426.065 64.95 426.067 64.95 426.069C64.95 426.071 64.95 426.073 64.95 426.075C64.95 426.077 64.95 426.079 64.95 426.081C64.95 426.083 64.95 426.085 64.95 426.087C64.95 426.089 64.95 426.091 64.95 426.093C64.95 426.095 64.95 426.097 64.95 426.099C64.95 426.101 64.95 426.103 64.95 426.105C64.95 426.107 64.95 426.109 64.95 426.111C64.95 426.113 64.95 426.115 64.95 426.118C64.95 426.12 64.95 426.122 64.95 426.124C64.95 426.126 64.95 426.128 64.95 426.13C64.95 426.132 64.95 426.134 64.95 426.136C64.95 426.138 64.95 426.14 64.95 426.142C64.95 426.144 64.95 426.146 64.95 426.148C64.95 426.15 64.95 426.153 64.95 426.155C64.95 426.157 64.95 426.159 64.95 426.161C64.95 426.163 64.95 426.165 64.95 426.167C64.95 426.169 64.95 426.171 64.95 426.173C64.95 426.175 64.95 426.178 64.95 426.18C64.95 426.182 64.95 426.184 64.95 426.186C64.95 426.188 64.95 426.19 64.95 426.192C64.95 426.194 64.95 426.196 64.95 426.198C64.95 426.201 64.95 426.203 64.95 426.205C64.95 426.207 64.95 426.209 64.95 426.211C64.95 426.213 64.95 426.215 64.95 426.217C64.95 426.219 64.95 426.222 64.95 426.224C64.95 426.226 64.95 426.228 64.95 426.23C64.95 426.232 64.95 426.234 64.95 426.236C64.95 426.239 64.95 426.241 64.95 426.243C64.95 426.245 64.95 426.247 64.95 426.249C64.95 426.251 64.95 426.253 64.95 426.256C64.95 426.258 64.95 426.26 64.95 426.262C64.95 426.264 64.95 426.266 64.95 426.268C64.95 426.271 64.95 426.273 64.95 426.275C64.95 426.277 64.95 426.279 64.95 426.281C64.95 426.283 64.95 426.286 64.95 426.288C64.95 426.29 64.95 426.292 64.95 426.294C64.95 426.296 64.95 426.299 64.95 426.301C64.95 426.303 64.95 426.305 64.95 426.307C64.95 426.309 64.95 426.312 64.95 426.314C64.95 426.316 64.95 426.318 64.95 426.32C64.95 426.322 64.95 426.325 64.95 426.327C64.95 426.329 64.95 426.331 64.95 426.333C64.95 426.335 64.95 426.338 64.95 426.34C64.95 426.342 64.95 426.344 64.95 426.346C64.95 426.349 64.95 426.351 64.95 426.353C64.95 426.355 64.95 426.357 64.95 426.359C64.95 426.362 64.95 426.364 64.95 426.366C64.95 426.368 64.95 426.37 64.95 426.373C64.95 426.375 64.95 426.377 64.95 426.379C64.95 426.381 64.95 426.384 64.95 426.386C64.95 426.388 64.95 426.39 64.95 426.393C64.95 426.395 64.95 426.397 64.95 426.399C64.95 426.401 64.95 426.404 64.95 426.406C64.95 426.408 64.95 426.41 64.95 426.413C64.95 426.415 64.95 426.417 64.95 426.419C64.95 426.421 64.95 426.424 64.95 426.426C64.95 426.428 64.95 426.43 64.95 426.433C64.95 426.435 64.95 426.437 64.95 426.439C64.95 426.442 64.95 426.444 64.95 426.446C64.95 426.448 64.95 426.451 64.95 426.453C64.95 426.455 64.95 426.457 64.95 426.46C64.95 426.462 64.95 426.464 64.95 426.466C64.95 426.469 64.95 426.471 64.95 426.473C64.95 426.475 64.95 426.478 64.95 426.48C64.95 426.482 64.95 426.484 64.95 426.487C64.95 426.489 64.95 426.491 64.95 426.493C64.95 426.496 64.95 426.498 64.95 426.5C64.95 426.503 64.95 426.505 64.95 426.507C64.95 426.509 64.95 426.512 64.95 426.514C64.95 426.516 64.95 426.519 64.95 426.521C64.95 426.523 64.95 426.525 64.95 426.528C64.95 426.53 64.95 426.532 64.95 426.535C64.95 426.537 64.95 426.539 64.95 426.541C64.95 426.544 64.95 426.546 64.95 426.548C64.95 426.551 64.95 426.553 64.95 426.555C64.95 426.558 64.95 426.56 64.95 426.562C64.95 426.564 64.95 426.567 64.95 426.569C64.95 426.571 64.95 426.574 64.95 426.576C64.95 426.578 64.95 426.581 64.95 426.583C64.95 426.585 64.95 426.588 64.95 426.59C64.95 426.592 64.95 426.595 64.95 426.597C64.95 426.599 64.95 426.602 64.95 426.604C64.95 426.606 64.95 426.609 64.95 426.611C64.95 426.613 64.95 426.616 64.95 426.618C64.95 426.62 64.95 426.623 64.95 426.625C64.95 426.627 64.95 426.63 64.95 426.632C64.95 426.634 64.95 426.637 64.95 426.639C64.95 426.641 64.95 426.644 64.95 426.646C64.95 426.649 64.95 426.651 64.95 426.653C64.95 426.656 64.95 426.658 64.95 426.66C64.95 426.663 64.95 426.665 64.95 426.667C64.95 426.67 64.95 426.672 64.95 426.674C64.95 426.677 64.95 426.679 64.95 426.682C64.95 426.684 64.95 426.686 64.95 426.689C64.95 426.691 64.95 426.694 64.95 426.696C64.95 426.698 64.95 426.701 64.95 426.703C64.95 426.705 64.95 426.708 64.95 426.71C64.95 426.713 64.95 426.715 64.95 426.717C64.95 426.72 64.95 426.722 64.95 426.725C64.95 426.727 64.95 426.729 64.95 426.732C64.95 426.734 64.95 426.737 64.95 426.739C64.95 426.741 64.95 426.744 64.95 426.746C64.95 426.749 64.95 426.751 64.95 426.753C64.95 426.756 64.95 426.758 64.95 426.761C64.95 426.763 64.95 426.765 64.95 426.768C64.95 426.77 64.95 426.773 64.95 426.775C64.95 426.778 64.95 426.78 64.95 426.782C64.95 426.785 64.95 426.787 64.95 426.79C64.95 426.792 64.95 426.795 64.95 426.797C64.95 426.799 64.95 426.802 64.95 426.804C64.95 426.807 64.95 426.809 64.95 426.812C64.95 426.814 64.95 426.817 64.95 426.819C64.95 426.821 64.95 426.824 64.95 426.826C64.95 426.829 64.95 426.831 64.95 426.834C64.95 426.836 64.95 426.839 64.95 426.841C64.95 426.844 64.95 426.846 64.95 426.848C64.95 426.851 64.95 426.853 64.95 426.856C64.95 426.858 64.95 426.861 64.95 426.863C64.95 426.866 64.95 426.868 64.95 426.871C64.95 426.873 64.95 426.876 64.95 426.878C64.95 426.881 64.95 426.883 64.95 426.886C64.95 426.888 64.95 426.891 64.95 426.893C64.95 426.895 64.95 426.898 64.95 426.9C64.95 426.903 64.95 426.905 64.95 426.908C64.95 426.91 64.95 426.913 64.95 426.915C64.95 426.918 64.95 426.92 64.95 426.923C64.95 426.925 64.95 426.928 64.95 426.93C64.95 426.933 64.95 426.935 64.95 426.938C64.95 426.94 64.95 426.943 64.95 426.945C64.95 426.948 64.95 426.95 64.95 426.953C64.95 426.956 64.95 426.958 64.95 426.961C64.95 426.963 64.95 426.966 64.95 426.968C64.95 426.971 64.95 426.973 64.95 426.976C64.95 426.978 64.95 426.981 64.95 426.983C64.95 426.986 64.95 426.988 64.95 426.991C64.95 426.993 64.95 426.996 64.95 426.998C64.95 427.001 64.95 427.004 64.95 427.006C64.95 427.009 64.95 427.011 64.95 427.014C64.95 427.016 64.95 427.019 64.95 427.021C64.95 427.024 64.95 427.026 64.95 427.029C64.95 427.032 64.95 427.034 64.95 427.037C64.95 427.039 64.95 427.042 64.95 427.044C64.95 427.047 64.95 427.049 64.95 427.052C64.95 427.055 64.95 427.057 64.95 427.06C64.95 427.062 64.95 427.065 64.95 427.067C64.95 427.07 64.95 427.073 64.95 427.075C64.95 427.078 64.95 427.08 64.95 427.083C64.95 427.086 64.95 427.088 64.95 427.091C64.95 427.093 64.95 427.096 64.95 427.098C64.95 427.101 64.95 427.104 64.95 427.106C64.95 427.109 64.95 427.111 64.95 427.114C64.95 427.117 64.95 427.119 64.95 427.122C64.95 427.124 64.95 427.127 64.95 427.13C64.95 427.132 64.95 427.135 64.95 427.137C64.95 427.14 64.95 427.143 64.95 427.145C64.95 427.148 64.95 427.15 64.95 427.153C64.95 427.156 64.95 427.158 64.95 427.161C64.95 427.164 64.95 427.166 64.95 427.169C64.95 427.171 64.95 427.174 64.95 427.177C64.95 427.179 64.95 427.182 64.95 427.185C64.95 427.187 64.95 427.19 64.95 427.192C64.95 427.195 64.95 427.198 64.95 427.2C64.95 427.203 64.95 427.206 64.95 427.208C64.95 427.211 64.95 427.214 64.95 427.216C64.95 427.219 64.95 427.221 64.95 427.224C64.95 427.227 64.95 427.229 64.95 427.232C64.95 427.235 64.95 427.237 64.95 427.24C64.95 427.243 64.95 427.245 64.95 427.248C64.95 427.251 64.95 427.253 64.95 427.256C64.95 427.259 64.95 427.261 64.95 427.264C64.95 427.267 64.95 427.269 64.95 427.272C64.95 427.275 64.95 427.277 64.95 427.28C64.95 427.283 64.95 427.285 64.95 427.288C64.95 427.291 64.95 427.293 64.95 427.296C64.95 427.299 64.95 427.301 64.95 427.304C64.95 427.307 64.95 427.31 64.95 427.312C64.95 427.315 64.95 427.318 64.95 427.32C64.95 427.323 64.95 427.326 64.95 427.328C64.95 427.331 64.95 427.334 64.95 427.336C64.95 427.339 64.95 427.342 64.95 427.345C64.95 427.347 64.95 427.35 64.95 427.353C64.95 427.355 64.95 427.358 64.95 427.361C64.95 427.364 64.95 427.366 64.95 427.369C64.95 427.372 64.95 427.374 64.95 427.377C64.95 427.38 64.95 427.383 64.95 427.385C64.95 427.388 64.95 427.391 64.95 427.394C64.95 427.396 64.95 427.399 64.95 427.402C64.95 427.404 64.95 427.407 64.95 427.41C64.95 427.413 64.95 427.415 64.95 427.418C64.95 427.421 64.95 427.424 64.95 427.426C64.95 427.429 64.95 427.432 64.95 427.435C64.95 427.437 64.95 427.44 64.95 427.443C64.95 427.446 64.95 427.448 64.95 427.451C64.95 427.454 64.95 427.457 64.95 427.459C64.95 427.462 64.95 427.465 64.95 427.468C64.95 427.47 64.95 427.473 64.95 427.476C64.95 427.479 64.95 427.482 64.95 427.484C64.95 427.487 64.95 427.49 64.95 427.493C64.95 427.495 64.95 427.498 64.95 427.501C64.95 427.504 64.95 427.506 64.95 427.509C64.95 427.512 64.95 427.515 64.95 427.518C64.95 427.52 64.95 427.523 64.95 427.526C64.95 427.529 64.95 427.532 64.95 427.534C64.95 427.537 64.95 427.54 64.95 427.543C64.95 427.546 64.95 427.548 64.95 427.551C64.95 427.554 64.95 427.557 64.95 427.56C64.95 427.562 64.95 427.565 64.95 427.568C64.95 427.571 64.95 427.574 64.95 427.576C64.95 427.579 64.95 427.582 64.95 427.585C64.95 427.588 64.95 427.59 64.95 427.593C64.95 427.596 64.95 427.599 64.95 427.602C64.95 427.605 64.95 427.607 64.95 427.61C64.95 427.613 64.95 427.616 64.95 427.619C64.95 427.622 64.95 427.624 64.95 427.627C64.95 427.63 64.95 427.633 64.95 427.636C64.95 427.639 64.95 427.641 64.95 427.644C64.95 427.647 64.95 427.65 64.95 427.653C64.95 427.656 64.95 427.659 64.95 427.661C64.95 427.664 64.95 427.667 64.95 427.67C64.95 427.673 64.95 427.676 64.95 427.679C64.95 427.681 64.95 427.684 64.95 427.687C64.95 427.69 64.95 427.693 64.95 427.696C64.95 427.699 64.95 427.701 64.95 427.704C64.95 427.707 64.95 427.71 64.95 427.713C64.95 427.716 64.95 427.719 64.95 427.722C64.95 427.724 64.95 427.727 64.95 427.73C64.95 427.733 64.95 427.736 64.95 427.739C64.95 427.742 64.95 427.745 64.95 427.747C64.95 427.75 64.95 427.753 64.95 427.756C64.95 427.759 64.95 427.762 64.95 427.765C64.95 427.768 64.95 427.771 64.95 427.774C64.95 427.776 64.95 427.779 64.95 427.782C64.95 427.785 64.95 427.788 64.95 427.791C64.95 427.794 64.95 427.797 64.95 427.8C64.95 427.803 64.95 427.806 64.95 427.808C64.95 427.811 64.95 427.814 64.95 427.817C64.95 427.82 64.95 427.823 64.95 427.826C64.95 427.829 64.95 427.832 64.95 427.835C64.95 427.838 64.95 427.841 64.95 427.844C64.95 427.846 64.95 427.849 64.95 427.852C64.95 427.855 64.95 427.858 64.95 427.861C64.95 427.864 64.95 427.867 64.95 427.87C64.95 427.873 64.95 427.876 64.95 427.879C64.95 427.882 64.95 427.885 64.95 427.888C64.95 427.891 64.95 427.894 64.95 427.896C64.95 427.899 64.95 427.902 64.95 427.905C64.95 427.908 64.95 427.911 64.95 427.914C64.95 427.917 64.95 427.92 64.95 427.923C64.95 427.926 64.95 427.929 64.95 427.932C64.95 427.935 64.95 427.938 64.95 427.941C64.95 427.944 64.95 427.947 64.95 427.95C64.95 427.953 64.95 427.956 64.95 427.959C64.95 427.962 64.95 427.965 64.95 427.968C64.95 427.971 64.95 427.974 64.95 427.977C64.95 427.98 64.95 427.983 64.95 427.986C64.95 427.989 64.95 427.992 64.95 427.995C64.95 427.998 64.95 428.001 64.95 428.004C64.95 428.007 64.95 428.01 64.95 428.013C64.95 428.016 64.95 428.019 64.95 428.022C64.95 428.025 64.95 428.028 64.95 428.031C64.95 428.034 64.95 428.037 64.95 428.04C64.95 428.043 64.95 428.046 64.95 428.049C64.95 428.052 64.95 428.055 64.95 428.058C64.95 428.061 64.95 428.064 64.95 428.067C64.95 428.07 64.95 428.073 64.95 428.076C64.95 428.079 64.95 428.082 64.95 428.085C64.95 428.088 64.95 428.091 64.95 428.094C64.95 428.097 64.95 428.1 64.95 428.103C64.95 428.106 64.95 428.109 64.95 428.112C64.95 428.116 64.95 428.119 64.95 428.122C64.95 428.125 64.95 428.128 64.95 428.131C64.95 428.134 64.95 428.137 64.95 428.14C64.95 428.143 64.95 428.146 64.95 428.149C64.95 428.152 64.95 428.155 64.95 428.158C64.95 428.161 64.95 428.164 64.95 428.168C64.95 428.171 64.95 428.174 64.95 428.177C64.95 428.18 64.95 428.183 64.95 428.186C64.95 428.189 64.95 428.192 64.95 428.195C64.95 428.198 64.95 428.201 64.95 428.204C64.95 428.208 64.95 428.211 64.95 428.214C64.95 428.217 64.95 428.22 64.95 428.223C64.95 428.226 64.95 428.229 64.95 428.232C64.95 428.235 64.95 428.238 64.95 428.242C64.95 428.245 64.95 428.248 64.95 428.251C64.95 428.254 64.95 428.257 64.95 428.26C64.95 428.263 64.95 428.266 64.95 428.269C64.95 428.273 64.95 428.276 64.95 428.279C64.95 428.282 64.95 428.285 64.95 428.288C64.95 428.291 64.95 428.294 64.95 428.298C64.95 428.301 64.95 428.304 64.95 428.307C64.95 428.31 64.95 428.313 64.95 428.316C64.95 428.319 64.95 428.323 64.95 428.326C64.95 428.329 64.95 428.332 64.95 428.335C64.95 428.338 64.95 428.341 64.95 428.344C64.95 428.348 64.95 428.351 64.95 428.354C64.95 428.357 64.95 428.36 64.95 428.363C64.95 428.366 64.95 428.37 64.95 428.373C64.95 428.376 64.95 428.379 64.95 428.382C64.95 428.385 64.95 428.389 64.95 428.392C64.95 428.395 64.95 428.398 64.95 428.401C64.95 428.404 64.95 428.408 64.95 428.411C64.95 428.414 64.95 428.417 64.95 428.42C64.95 428.423 64.95 428.427 64.95 428.43C64.95 428.433 64.95 428.436 64.95 428.439C64.95 428.442 64.95 428.446 64.95 428.449C64.95 428.452 64.95 428.455 64.95 428.458C64.95 428.462 64.95 428.465 64.95 428.468C64.95 428.471 64.95 428.474 64.95 428.478C64.95 428.481 64.95 428.484 64.95 428.487C64.95 428.49 64.95 428.494 64.95 428.497C64.95 428.5 64.95 428.503 64.95 428.506C64.95 428.51 64.95 428.513 64.95 428.516C64.95 428.519 64.95 428.522 64.95 428.526C64.95 428.529 64.95 428.532 64.95 428.535C64.95 428.538 64.95 428.542 64.95 428.545C64.95 428.548 64.95 428.551 64.95 428.555C64.95 428.558 64.95 428.561 64.95 428.564C64.95 428.567 64.95 428.571 64.95 428.574C64.95 428.577 64.95 428.58 64.95 428.584C64.95 428.587 64.95 428.59 64.95 428.593C64.95 428.597 64.95 428.6 64.95 428.603C64.95 428.606 64.95 428.61 64.95 428.613C64.95 428.616 64.95 428.619 64.95 428.623C64.95 428.626 64.95 428.629 64.95 428.632C64.95 428.636 64.95 428.639 64.95 428.642C64.95 428.645 64.95 428.649 64.95 428.652C64.95 428.655 64.95 428.658 64.95 428.662C64.95 428.665 64.95 428.668 64.95 428.671C64.95 428.675 64.95 428.678 64.95 428.681C64.95 428.685 64.95 428.688 64.95 428.691C64.95 428.694 64.95 428.698 64.95 428.701C64.95 428.704 64.95 428.708 64.95 428.711C64.95 428.714 64.95 428.717 64.95 428.721C64.95 428.724 64.95 428.727 64.95 428.731C64.95 428.734 64.95 428.737 64.95 428.74C64.95 428.744 64.95 428.747 64.95 428.75C64.95 428.754 64.95 428.757 64.95 428.76C64.95 428.764 64.95 428.767 64.95 428.77C64.95 428.773 64.95 428.777 64.95 428.78C64.95 428.783 64.95 428.787 64.95 428.79C64.95 428.793 64.95 428.797 64.95 428.8H66.95ZM66.95 425.2C66.95 420.505 67.6833 416.226 69.1363 412.351L67.2637 411.649C65.7167 415.774 64.95 420.295 64.95 425.2H66.95ZM69.1285 412.371C70.6977 408.448 72.7068 404.823 75.1557 401.492L73.5443 400.308C70.9932 403.777 68.9023 407.552 67.2715 411.629L69.1285 412.371ZM75.1637 401.481C77.6284 398.031 80.3888 394.827 83.4454 391.869L82.0546 390.431C78.9112 393.473 76.0716 396.769 73.5363 400.319L75.1637 401.481ZM83.4339 391.88C86.6377 388.876 89.7916 385.872 92.8954 382.869L91.5046 381.431C88.4084 384.428 85.2623 387.424 82.0661 390.42L83.4339 391.88ZM92.8919 382.872C95.2913 380.573 97.5405 378.423 99.6397 376.424L98.2603 374.976C96.1595 376.977 93.9087 379.127 91.5081 381.428L92.8919 382.872ZM99.6571 376.407C101.774 374.291 103.643 372.27 105.265 370.344L103.735 369.056C102.157 370.93 100.326 372.909 98.2429 374.993L99.6571 376.407ZM105.281 370.325C106.919 368.277 108.214 366.261 109.154 364.278L107.346 363.422C106.486 365.239 105.281 367.123 103.719 369.075L105.281 370.325ZM109.162 364.26C110.114 362.144 110.6 360.005 110.6 357.85H108.6C108.6 359.695 108.186 361.556 107.338 363.44L109.162 364.26ZM110.6 357.85C110.6 353.275 109.295 349.798 106.434 347.738L105.266 349.362C107.405 350.902 108.6 353.625 108.6 357.85H110.6ZM106.434 347.738C103.732 345.793 100.417 344.85 96.55 344.85V346.85C100.083 346.85 102.968 347.707 105.266 349.362L106.434 347.738ZM96.55 344.85C93.7366 344.85 91.0671 345.319 88.5489 346.264L89.2511 348.136C91.5329 347.281 93.9634 346.85 96.55 346.85V344.85ZM88.5715 346.255C86.2095 347.077 83.9969 348.106 81.9355 349.342L82.9645 351.057C84.9031 349.894 86.9905 348.923 89.2285 348.144L88.5715 346.255ZM81.949 349.335C80.0056 350.46 78.3036 351.644 76.8492 352.891L78.1508 354.409C79.4964 353.256 81.0944 352.14 82.951 351.065L81.949 349.335ZM76.8822 352.864C75.4713 353.972 74.3849 354.901 73.6429 355.643L75.0571 357.057C75.7151 356.399 76.7287 355.528 78.1178 354.436L76.8822 352.864ZM75.1648 355.77L64.0648 340.17L62.4352 341.33L73.5352 356.93L75.1648 355.77ZM63.9317 341.482C68.2469 337.461 73.2535 334.17 78.9591 331.613L78.1409 329.787C72.2465 332.43 67.0531 335.839 62.5683 340.018L63.9317 341.482ZM78.9661 331.609C84.7312 328.971 90.8888 327.65 97.45 327.65V325.65C90.6112 325.65 84.1688 327.029 78.1339 329.791L78.9661 331.609ZM97.45 327.65C103.478 327.65 108.621 328.342 112.897 329.703L113.503 327.797C108.979 326.358 103.622 325.65 97.45 325.65V327.65ZM112.897 329.703C117.185 331.067 120.648 333.002 123.32 335.483L124.68 334.017C121.752 331.298 118.015 329.233 113.503 327.797L112.897 329.703ZM123.347 335.507C126.111 337.89 128.113 340.842 129.357 344.381L131.243 343.719C129.887 339.858 127.689 336.61 124.653 333.993L123.347 335.507ZM129.368 344.412C130.715 347.877 131.4 351.851 131.4 356.35H133.4C133.4 351.649 132.685 347.423 131.232 343.688L129.368 344.412Z" fill="black"/>
<path d="M460.2 453.25C457.5 453.25 454.65 453.05 451.65 452.65C448.65 452.35 445.75 451.9 442.95 451.3C440.15 450.7 437.6 450.05 435.3 449.35C433 448.65 431.2 448 429.9 447.4L434.25 428.8C436.85 429.9 440.15 431.1 444.15 432.4C448.25 433.6 453.3 434.2 459.3 434.2C466.2 434.2 471.25 432.9 474.45 430.3C477.65 427.7 479.25 424.2 479.25 419.8C479.25 417.1 478.65 414.85 477.45 413.05C476.35 411.15 474.8 409.65 472.8 408.55C470.8 407.35 468.4 406.55 465.6 406.15C462.9 405.65 460 405.4 456.9 405.4H448.2V387.4H458.1C460.3 387.4 462.4 387.2 464.4 386.8C466.5 386.4 468.35 385.75 469.95 384.85C471.55 383.85 472.8 382.55 473.7 380.95C474.7 379.25 475.2 377.15 475.2 374.65C475.2 372.75 474.8 371.1 474 369.7C473.2 368.3 472.15 367.15 470.85 366.25C469.65 365.35 468.2 364.7 466.5 364.3C464.9 363.8 463.25 363.55 461.55 363.55C457.25 363.55 453.25 364.2 449.55 365.5C445.95 366.8 442.65 368.4 439.65 370.3L431.7 353.95C433.3 352.95 435.15 351.9 437.25 350.8C439.45 349.7 441.85 348.7 444.45 347.8C447.05 346.9 449.8 346.15 452.7 345.55C455.7 344.95 458.85 344.65 462.15 344.65C468.25 344.65 473.5 345.4 477.9 346.9C482.4 348.3 486.1 350.35 489 353.05C491.9 355.65 494.05 358.75 495.45 362.35C496.85 365.85 497.55 369.7 497.55 373.9C497.55 378 496.4 382 494.1 385.9C491.8 389.7 488.7 392.6 484.8 394.6C490.2 396.8 494.35 400.1 497.25 404.5C500.25 408.8 501.75 414 501.75 420.1C501.75 424.9 500.95 429.35 499.35 433.45C497.75 437.45 495.25 440.95 491.85 443.95C488.45 446.85 484.1 449.15 478.8 450.85C473.6 452.45 467.4 453.25 460.2 453.25Z" fill="white"/>
<path d="M451.65 452.65L451.782 451.659L451.766 451.657L451.75 451.655L451.65 452.65ZM442.95 451.3L443.16 450.322L443.16 450.322L442.95 451.3ZM435.3 449.35L435.591 448.393L435.591 448.393L435.3 449.35ZM429.9 447.4L428.926 447.172L428.741 447.966L429.481 448.308L429.9 447.4ZM434.25 428.8L434.64 427.879L433.547 427.417L433.276 428.572L434.25 428.8ZM444.15 432.4L443.841 433.351L443.855 433.356L443.869 433.36L444.15 432.4ZM474.45 430.3L473.819 429.524L473.819 429.524L474.45 430.3ZM477.45 413.05L476.585 413.551L476.6 413.578L476.618 413.605L477.45 413.05ZM472.8 408.55L472.286 409.407L472.302 409.417L472.318 409.426L472.8 408.55ZM465.6 406.15L465.418 407.133L465.438 407.137L465.459 407.14L465.6 406.15ZM448.2 405.4H447.2V406.4H448.2V405.4ZM448.2 387.4V386.4H447.2V387.4H448.2ZM464.4 386.8L464.213 385.818L464.204 385.819L464.4 386.8ZM469.95 384.85L470.44 385.722L470.46 385.71L470.48 385.698L469.95 384.85ZM473.7 380.95L472.838 380.443L472.833 380.451L472.828 380.46L473.7 380.95ZM474 369.7L474.868 369.204L474.868 369.204L474 369.7ZM470.85 366.25L470.25 367.05L470.265 367.061L470.281 367.072L470.85 366.25ZM466.5 364.3L466.202 365.254L466.236 365.265L466.271 365.273L466.5 364.3ZM449.55 365.5L449.219 364.556L449.21 364.559L449.55 365.5ZM439.65 370.3L438.751 370.737L439.24 371.743L440.185 371.145L439.65 370.3ZM431.7 353.95L431.17 353.102L430.407 353.579L430.801 354.387L431.7 353.95ZM437.25 350.8L436.803 349.906L436.794 349.91L436.786 349.914L437.25 350.8ZM452.7 345.55L452.504 344.569L452.497 344.571L452.7 345.55ZM477.9 346.9L477.577 347.847L477.59 347.851L477.603 347.855L477.9 346.9ZM489 353.05L488.319 353.782L488.325 353.788L488.332 353.795L489 353.05ZM495.45 362.35L494.518 362.712L494.522 362.721L495.45 362.35ZM494.1 385.9L494.956 386.418L494.961 386.408L494.1 385.9ZM484.8 394.6L484.344 393.71L482.405 394.704L484.423 395.526L484.8 394.6ZM497.25 404.5L496.415 405.05L496.422 405.061L496.43 405.072L497.25 404.5ZM499.35 433.45L500.279 433.821L500.282 433.814L499.35 433.45ZM491.85 443.95L492.499 444.711L492.505 444.705L492.512 444.7L491.85 443.95ZM478.8 450.85L479.094 451.806L479.105 451.802L478.8 450.85ZM460.2 452.25C457.549 452.25 454.744 452.054 451.782 451.659L451.518 453.641C454.556 454.046 457.451 454.25 460.2 454.25V452.25ZM451.75 451.655C448.785 451.358 445.921 450.914 443.16 450.322L442.74 452.278C445.579 452.886 448.515 453.342 451.55 453.645L451.75 451.655ZM443.16 450.322C440.382 449.727 437.86 449.084 435.591 448.393L435.009 450.307C437.34 451.016 439.918 451.673 442.74 452.278L443.16 450.322ZM435.591 448.393C433.31 447.699 431.559 447.064 430.319 446.492L429.481 448.308C430.841 448.936 432.69 449.601 435.009 450.307L435.591 448.393ZM430.874 447.628L435.224 429.028L433.276 428.572L428.926 447.172L430.874 447.628ZM433.86 429.721C436.496 430.836 439.825 432.046 443.841 433.351L444.459 431.449C440.475 430.154 437.204 428.964 434.64 427.879L433.86 429.721ZM443.869 433.36C448.089 434.595 453.24 435.2 459.3 435.2V433.2C453.36 433.2 448.411 432.605 444.431 431.44L443.869 433.36ZM459.3 435.2C466.288 435.2 471.617 433.89 475.081 431.076L473.819 429.524C470.883 431.91 466.112 433.2 459.3 433.2V435.2ZM475.081 431.076C478.532 428.272 480.25 424.478 480.25 419.8H478.25C478.25 423.922 476.768 427.128 473.819 429.524L475.081 431.076ZM480.25 419.8C480.25 416.952 479.616 414.496 478.282 412.495L476.618 413.605C477.684 415.204 478.25 417.248 478.25 419.8H480.25ZM478.315 412.549C477.12 410.485 475.435 408.858 473.282 407.674L472.318 409.426C474.165 410.442 475.58 411.815 476.585 413.551L478.315 412.549ZM473.314 407.693C471.179 406.411 468.646 405.575 465.741 405.16L465.459 407.14C468.154 407.525 470.421 408.289 472.286 409.407L473.314 407.693ZM465.782 405.167C463.015 404.654 460.053 404.4 456.9 404.4V406.4C459.947 406.4 462.785 406.646 465.418 407.133L465.782 405.167ZM456.9 404.4H448.2V406.4H456.9V404.4ZM449.2 405.4V387.4H447.2V405.4H449.2ZM448.2 388.4H458.1V386.4H448.2V388.4ZM458.1 388.4C460.361 388.4 462.527 388.194 464.596 387.781L464.204 385.819C462.273 386.206 460.239 386.4 458.1 386.4V388.4ZM464.587 387.782C466.776 387.365 468.732 386.683 470.44 385.722L469.46 383.978C467.968 384.817 466.224 385.435 464.213 385.818L464.587 387.782ZM470.48 385.698C472.218 384.612 473.587 383.19 474.572 381.44L472.828 380.46C472.013 381.91 470.882 383.088 469.42 384.002L470.48 385.698ZM474.562 381.457C475.674 379.567 476.2 377.281 476.2 374.65H474.2C474.2 377.019 473.726 378.933 472.838 380.443L474.562 381.457ZM476.2 374.65C476.2 372.607 475.769 370.78 474.868 369.204L473.132 370.196C473.831 371.42 474.2 372.893 474.2 374.65H476.2ZM474.868 369.204C473.996 367.677 472.844 366.415 471.419 365.428L470.281 367.072C471.456 367.885 472.404 368.923 473.132 370.196L474.868 369.204ZM471.45 365.45C470.123 364.455 468.541 363.753 466.729 363.327L466.271 365.273C467.859 365.647 469.177 366.245 470.25 367.05L471.45 365.45ZM466.798 363.346C465.1 362.815 463.35 362.55 461.55 362.55V364.55C463.15 364.55 464.7 364.785 466.202 365.254L466.798 363.346ZM461.55 362.55C457.148 362.55 453.035 363.216 449.219 364.557L449.881 366.443C453.465 365.184 457.352 364.55 461.55 364.55V362.55ZM449.21 364.559C445.547 365.882 442.181 367.513 439.115 369.455L440.185 371.145C443.119 369.287 446.353 367.718 449.89 366.441L449.21 364.559ZM440.549 369.863L432.599 353.513L430.801 354.387L438.751 370.737L440.549 369.863ZM432.23 354.798C433.804 353.814 435.631 352.777 437.714 351.686L436.786 349.914C434.669 351.023 432.796 352.086 431.17 353.102L432.23 354.798ZM437.697 351.694C439.854 350.616 442.213 349.632 444.777 348.745L444.123 346.855C441.487 347.768 439.046 348.784 436.803 349.906L437.697 351.694ZM444.777 348.745C447.333 347.86 450.042 347.121 452.903 346.529L452.497 344.571C449.558 345.179 446.767 345.94 444.123 346.855L444.777 348.745ZM452.896 346.531C455.827 345.944 458.911 345.65 462.15 345.65V343.65C458.789 343.65 455.573 343.956 452.504 344.569L452.896 346.531ZM462.15 345.65C468.173 345.65 473.308 346.391 477.577 347.847L478.223 345.953C473.692 344.409 468.327 343.65 462.15 343.65V345.65ZM477.603 347.855C481.987 349.219 485.547 351.202 488.319 353.782L489.681 352.318C486.653 349.498 482.813 347.381 478.197 345.945L477.603 347.855ZM488.332 353.795C491.117 356.291 493.175 359.26 494.518 362.712L496.382 361.988C494.925 358.24 492.683 355.009 489.668 352.305L488.332 353.795ZM494.522 362.721C495.869 366.091 496.55 369.813 496.55 373.9H498.55C498.55 369.587 497.831 365.609 496.378 361.979L494.522 362.721ZM496.55 373.9C496.55 377.803 495.458 381.629 493.239 385.392L494.961 386.408C497.342 382.371 498.55 378.197 498.55 373.9H496.55ZM493.245 385.382C491.039 389.026 488.076 391.796 484.344 393.71L485.256 395.49C489.324 393.404 492.561 390.374 494.956 386.418L493.245 385.382ZM484.423 395.526C489.656 397.658 493.638 400.837 496.415 405.05L498.085 403.95C495.062 399.363 490.744 395.942 485.177 393.674L484.423 395.526ZM496.43 405.072C499.295 409.178 500.75 414.17 500.75 420.1H502.75C502.75 413.83 501.205 408.422 498.07 403.928L496.43 405.072ZM500.75 420.1C500.75 424.787 499.969 429.112 498.418 433.086L500.282 433.814C501.931 429.588 502.75 425.013 502.75 420.1H500.75ZM498.422 433.079C496.883 436.926 494.477 440.298 491.188 443.2L492.512 444.7C496.023 441.602 498.617 437.974 500.278 433.821L498.422 433.079ZM491.201 443.189C487.923 445.985 483.698 448.229 478.495 449.898L479.105 451.802C484.502 450.071 488.977 447.715 492.499 444.711L491.201 443.189ZM478.506 449.894C473.426 451.457 467.33 452.25 460.2 452.25V454.25C467.47 454.25 473.774 453.443 479.094 451.806L478.506 449.894Z" fill="black"/>
</svg>
