<svg width="45" height="47" viewBox="0 0 45 47" fill="none" xmlns="http://www.w3.org/2000/svg">
<path d="M43.5 23.5C43.5 35.7124 34.0372 45.5 22.5 45.5C10.9628 45.5 1.5 35.7124 1.5 23.5C1.5 11.2876 10.9628 1.5 22.5 1.5C34.0372 1.5 43.5 11.2876 43.5 23.5Z" stroke="#0E1821" stroke-width="3"/>
<path fill-rule="evenodd" clip-rule="evenodd" d="M23.175 18.0286C23.175 20.8015 21.0555 23.0571 18.45 23.0571C15.8445 23.0571 13.725 20.8015 13.725 18.0286C13.725 15.2557 15.8445 13 18.45 13C21.0555 13 23.175 15.2557 23.175 18.0286ZM20.475 18.0287C20.475 16.8362 19.5705 15.8736 18.45 15.8736C17.3295 15.8736 16.425 16.8362 16.425 18.0287C16.425 19.2212 17.3295 20.1838 18.45 20.1838C19.5705 20.1838 20.475 19.2212 20.475 18.0287ZM18.45 25.5715C15.291 25.5715 9 27.2525 9 30.6001V31.6776C9 32.4678 9.6075 33.1144 10.35 33.1144H26.55C27.2925 33.1144 27.9 32.4678 27.9 31.6776V30.6001C27.9 27.2525 21.609 25.5715 18.45 25.5715ZM18.4499 28.445C16.0334 28.445 13.2929 29.4076 12.1589 30.2409H24.7409C23.6069 29.4076 20.8664 28.445 18.4499 28.445ZM27.9541 25.6577C29.5201 26.8646 30.6001 28.4737 30.6001 30.6001V33.1143H34.6501C35.3926 33.1143 36.0001 32.4678 36.0001 31.6776V30.6001C36.0001 27.6979 31.2751 26.0456 27.9541 25.6577ZM31.275 18.0286C31.275 20.8015 29.1555 23.0571 26.55 23.0571C25.821 23.0571 25.146 22.8703 24.525 22.5543C25.3755 21.2756 25.875 19.7095 25.875 18.0286C25.875 16.3476 25.3755 14.7815 24.525 13.5029C25.146 13.1868 25.821 13 26.55 13C29.1555 13 31.275 15.2557 31.275 18.0286Z" fill="black"/>
</svg>
