<svg width="513" height="348" viewBox="0 0 513 348" fill="none" xmlns="http://www.w3.org/2000/svg">
<path d="M448.978 313.475L55.3789 301.968C46.5291 301.717 38.0725 298.183 31.5934 292.027C25.1143 285.871 21.0572 277.516 20.1821 268.527L1.18338 76.993C0.677572 71.8661 1.22089 66.6878 2.77889 61.7864C4.3369 56.8849 6.87564 52.367 10.2343 48.519C13.5929 44.6709 17.6983 41.5766 22.2902 39.432C26.8821 37.2874 31.8605 36.1392 36.91 36.0603L475.016 29.8818C480.225 29.81 485.39 30.8773 490.162 33.012C494.934 35.1467 499.202 38.2993 502.68 42.2578C506.158 46.2162 508.765 50.8887 510.325 55.961C511.885 61.0332 512.363 66.3876 511.726 71.664L486.218 280.884C485.081 290.063 480.639 298.483 473.757 304.506C466.874 310.53 458.042 313.727 448.978 313.475Z" fill="#EAF9F3"/>
<mask id="mask0_166_341" style="mask-type:luminance" maskUnits="userSpaceOnUse" x="0" y="29" width="513" height="285">
<path d="M449.464 312.996L55.2553 301.505C46.3918 301.254 37.9221 297.725 31.433 291.578C24.9438 285.431 20.8804 277.088 20.0039 268.112L0.975783 76.8538C0.469187 71.7343 1.01334 66.5636 2.57376 61.6692C4.13419 56.7747 6.67687 52.2634 10.0407 48.4209C13.4046 44.5784 17.5162 41.4885 22.1153 39.3469C26.7143 37.2054 31.7005 36.0589 36.7578 35.9801L475.542 29.8105C480.76 29.7388 485.933 30.8046 490.712 32.9362C495.491 35.0678 499.766 38.2159 503.25 42.1687C506.733 46.1214 509.344 50.7872 510.907 55.8521C512.469 60.9171 512.948 66.2638 512.31 71.5325L486.762 280.451C485.623 289.617 481.175 298.025 474.282 304.04C467.388 310.054 458.542 313.247 449.464 312.996Z" fill="white"/>
</mask>
<g mask="url(#mask0_166_341)">
<path d="M127.729 347.7H-187.259C-190.274 347.7 -193.167 346.482 -195.299 344.312C-197.432 342.143 -198.63 339.2 -198.63 336.132V154.437C-198.63 151.369 -197.432 148.427 -195.299 146.257C-193.167 144.088 -190.274 142.869 -187.259 142.869H127.729C130.745 142.869 133.637 144.088 135.77 146.257C137.903 148.427 139.101 151.369 139.101 154.437V336.132C139.101 339.2 137.903 342.143 135.77 344.312C133.637 346.482 130.745 347.7 127.729 347.7Z" stroke="#B8D8C7" stroke-width="1.8" stroke-linecap="round" stroke-linejoin="round"/>
<path d="M543.999 335.515H226.282C223.266 335.515 220.373 334.296 218.241 332.127C216.108 329.958 214.91 327.015 214.91 323.947V58.4223C214.91 55.3542 216.108 52.4119 218.241 50.2424C220.373 48.073 223.266 46.8542 226.282 46.8542H543.999C547.015 46.8542 549.907 48.073 552.039 50.2424C554.172 52.4119 555.37 55.3542 555.37 58.4223V323.947C555.37 327.015 554.172 329.958 552.039 332.127C549.907 334.296 547.015 335.515 543.999 335.515Z" stroke="#B8D8C7" stroke-width="1.8" stroke-linecap="round" stroke-linejoin="round"/>
<path d="M40.7002 142.869H25.3109C24.5091 142.871 23.7344 142.574 23.1336 142.034C22.5327 141.494 22.1476 140.748 22.0511 139.938L20.8381 128.833C20.7881 128.367 20.8351 127.896 20.9761 127.449C21.117 127.003 21.3488 126.592 21.6563 126.243C21.9638 125.893 22.3402 125.614 22.7608 125.422C23.1815 125.231 23.6371 125.132 24.0979 125.131H41.9131C42.3736 125.133 42.8286 125.233 43.2487 125.425C43.6688 125.617 44.0447 125.896 44.3519 126.245C44.6592 126.594 44.891 127.005 45.0325 127.45C45.1739 127.896 45.2217 128.367 45.1729 128.833L43.96 139.938C43.8497 140.742 43.4605 141.479 42.8627 142.017C42.2649 142.554 41.4979 142.857 40.7002 142.869Z" stroke="#B8D8C7" stroke-width="1.8" stroke-linecap="round" stroke-linejoin="round"/>
<path d="M31.1482 125.132C31.1482 125.132 25.0835 124.515 23.8705 116.186C23.8705 116.186 29.3288 117.805 31.0724 121.738C31.0724 121.738 31.8305 112.947 35.9242 112.098C35.9242 112.098 37.7437 118.654 34.8629 121.893C34.8629 121.893 37.0614 118.191 42.6713 118.268C42.1412 119.892 41.2286 121.36 40.0129 122.543C38.7972 123.726 37.3154 124.588 35.6968 125.055" fill="#B8D8C7"/>
<path d="M125.304 181.198H56.9239C56.0813 181.192 55.2748 180.848 54.679 180.242C54.0832 179.636 53.7458 178.816 53.7399 177.959V156.828C53.7458 155.97 54.0832 155.15 54.679 154.544C55.2748 153.938 56.0813 153.595 56.9239 153.589H125.304C126.147 153.595 126.953 153.938 127.549 154.544C128.145 155.15 128.482 155.97 128.488 156.828V177.959C128.498 178.387 128.423 178.813 128.267 179.211C128.11 179.608 127.876 179.97 127.578 180.272C127.281 180.575 126.926 180.814 126.535 180.973C126.144 181.132 125.725 181.208 125.304 181.198Z" stroke="#B8D8C7" stroke-width="1.8" stroke-linecap="round" stroke-linejoin="round"/>
<path d="M98.9976 160.992H83.2293C82.9301 160.985 82.6453 160.86 82.4337 160.645C82.2221 160.43 82.0998 160.14 82.0922 159.836C82.0998 159.531 82.2221 159.241 82.4337 159.026C82.6453 158.811 82.9301 158.687 83.2293 158.679H98.9976C99.2968 158.687 99.5816 158.811 99.7932 159.026C100.005 159.241 100.127 159.531 100.135 159.836C100.138 159.988 100.111 160.14 100.055 160.282C99.9985 160.424 99.9148 160.552 99.8086 160.661C99.7024 160.769 99.5758 160.854 99.4364 160.911C99.2971 160.968 99.1478 160.995 98.9976 160.992Z" fill="#B8D8C7"/>
<path d="M125.304 216.519H56.9239C56.0813 216.513 55.2748 216.169 54.679 215.563C54.0832 214.957 53.7458 214.137 53.7399 213.28V192.149C53.7458 191.292 54.0832 190.471 54.679 189.865C55.2748 189.259 56.0813 188.916 56.9239 188.91H125.304C126.147 188.916 126.953 189.259 127.549 189.865C128.145 190.471 128.482 191.292 128.488 192.149V213.28C128.498 213.708 128.423 214.134 128.267 214.532C128.11 214.929 127.876 215.291 127.578 215.594C127.281 215.896 126.926 216.135 126.535 216.294C126.144 216.453 125.725 216.529 125.304 216.519Z" stroke="#B8D8C7" stroke-width="1.8" stroke-linecap="round" stroke-linejoin="round"/>
<path d="M98.9976 196.313H83.2293C82.9301 196.306 82.6453 196.181 82.4337 195.966C82.2221 195.751 82.0998 195.461 82.0922 195.157C82.0998 194.852 82.2221 194.562 82.4337 194.347C82.6453 194.132 82.9301 194.008 83.2293 194H98.9976C99.2968 194.008 99.5816 194.132 99.7932 194.347C100.005 194.562 100.127 194.852 100.135 195.157C100.138 195.309 100.111 195.461 100.055 195.603C99.9985 195.745 99.9148 195.874 99.8086 195.982C99.7024 196.09 99.5758 196.175 99.4364 196.232C99.2971 196.289 99.1478 196.317 98.9976 196.313Z" fill="#B8D8C7"/>
<path d="M476.452 241.429H408.072C407.229 241.423 406.423 241.079 405.827 240.473C405.231 239.867 404.894 239.047 404.888 238.19V217.059C404.894 216.201 405.231 215.381 405.827 214.775C406.423 214.169 407.229 213.826 408.072 213.82H476.452C477.295 213.826 478.101 214.169 478.697 214.775C479.293 215.381 479.63 216.201 479.636 217.059V238.19C479.646 238.618 479.571 239.044 479.415 239.441C479.259 239.839 479.024 240.201 478.727 240.503C478.429 240.806 478.074 241.045 477.683 241.204C477.292 241.363 476.873 241.439 476.452 241.429Z" stroke="#B8D8C7" stroke-width="1.8" stroke-linecap="round" stroke-linejoin="round"/>
<path d="M450.147 221.3H434.378C434.079 221.292 433.794 221.168 433.583 220.953C433.371 220.737 433.249 220.448 433.241 220.143C433.249 219.839 433.371 219.549 433.583 219.334C433.794 219.119 434.079 218.994 434.378 218.987H450.147C450.446 218.994 450.731 219.119 450.942 219.334C451.154 219.549 451.276 219.839 451.284 220.143C451.276 220.448 451.154 220.737 450.942 220.953C450.731 221.168 450.446 221.292 450.147 221.3Z" fill="#B8D8C7"/>
<path d="M388.665 241.429H320.285C319.442 241.423 318.636 241.079 318.04 240.473C317.444 239.867 317.107 239.047 317.101 238.19V217.059C317.107 216.201 317.444 215.381 318.04 214.775C318.636 214.169 319.442 213.826 320.285 213.82H388.665C389.508 213.826 390.314 214.169 390.91 214.775C391.506 215.381 391.843 216.201 391.849 217.059V238.19C391.843 239.047 391.506 239.867 390.91 240.473C390.314 241.079 389.508 241.423 388.665 241.429Z" stroke="#B8D8C7" stroke-width="1.8" stroke-linecap="round" stroke-linejoin="round"/>
<path d="M362.36 221.3H346.591C346.292 221.292 346.007 221.168 345.796 220.953C345.584 220.737 345.462 220.448 345.454 220.143C345.462 219.839 345.584 219.549 345.796 219.334C346.007 219.119 346.292 218.994 346.591 218.987H362.36C362.659 218.994 362.944 219.119 363.155 219.334C363.367 219.549 363.489 219.839 363.497 220.143C363.489 220.448 363.367 220.737 363.155 220.953C362.944 221.168 362.659 221.292 362.36 221.3Z" fill="#B8D8C7"/>
<path d="M38.1232 181.198H-30.2569C-31.0995 181.192 -31.9059 180.848 -32.5017 180.242C-33.0975 179.636 -33.4349 178.816 -33.4409 177.959V156.828C-33.4349 155.97 -33.0975 155.15 -32.5017 154.544C-31.9059 153.938 -31.0995 153.595 -30.2569 153.589H38.1232C38.9658 153.595 39.7722 153.938 40.368 154.544C40.9638 155.15 41.3012 155.97 41.3072 156.828V177.959C41.3176 178.387 41.2423 178.813 41.086 179.211C40.9297 179.608 40.6955 179.97 40.3977 180.272C40.1 180.575 39.7448 180.814 39.3538 180.973C38.9628 181.132 38.5441 181.208 38.1232 181.198Z" stroke="#B8D8C7" stroke-width="1.8" stroke-linecap="round" stroke-linejoin="round"/>
<path d="M11.8167 160.992H-3.9516C-4.25077 160.985 -4.53557 160.86 -4.74719 160.645C-4.9588 160.43 -5.08107 160.14 -5.08875 159.836C-5.08107 159.531 -4.9588 159.241 -4.74719 159.026C-4.53557 158.811 -4.25077 158.687 -3.9516 158.679H11.8167C12.1159 158.687 12.4007 158.811 12.6123 159.026C12.8239 159.241 12.9462 159.531 12.9539 159.836C12.9627 159.99 12.9393 160.144 12.8853 160.289C12.8313 160.433 12.7478 160.564 12.6404 160.673C12.533 160.783 12.4041 160.868 12.2621 160.923C12.1202 160.978 11.9684 161.001 11.8167 160.992Z" fill="#B8D8C7"/>
<path d="M38.1232 216.519H-30.2569C-31.0995 216.513 -31.9059 216.169 -32.5017 215.563C-33.0975 214.957 -33.4349 214.137 -33.4409 213.28V192.149C-33.4349 191.292 -33.0975 190.471 -32.5017 189.865C-31.9059 189.259 -31.0995 188.916 -30.2569 188.91H38.1232C38.9658 188.916 39.7722 189.259 40.368 189.865C40.9638 190.471 41.3012 191.292 41.3072 192.149V213.28C41.3176 213.708 41.2423 214.134 41.086 214.532C40.9297 214.929 40.6955 215.291 40.3977 215.594C40.1 215.896 39.7448 216.135 39.3538 216.294C38.9628 216.453 38.5441 216.529 38.1232 216.519Z" stroke="#B8D8C7" stroke-width="1.8" stroke-linecap="round" stroke-linejoin="round"/>
<path d="M11.8167 196.313H-3.9516C-4.25077 196.306 -4.53557 196.181 -4.74719 195.966C-4.9588 195.751 -5.08107 195.461 -5.08875 195.157C-5.08107 194.852 -4.9588 194.562 -4.74719 194.347C-4.53557 194.132 -4.25077 194.008 -3.9516 194H11.8167C12.1159 194.008 12.4007 194.132 12.6123 194.347C12.8239 194.562 12.9462 194.852 12.9539 195.157C12.9627 195.311 12.9393 195.465 12.8853 195.61C12.8313 195.754 12.7478 195.885 12.6404 195.994C12.533 196.104 12.4041 196.189 12.2621 196.244C12.1202 196.299 11.9684 196.322 11.8167 196.313Z" fill="#B8D8C7"/>
<path d="M575.99 127.676H231.058C230.136 127.666 229.254 127.289 228.603 126.626C227.951 125.963 227.58 125.067 227.57 124.129V62.664C227.58 61.7262 227.951 60.8297 228.603 60.1666C229.254 59.5035 230.136 59.1265 231.058 59.1165H575.99C576.912 59.1265 577.793 59.5035 578.445 60.1666C579.097 60.8297 579.467 61.7262 579.477 62.664V124.129C579.484 124.597 579.399 125.061 579.226 125.495C579.054 125.929 578.797 126.323 578.472 126.653C578.147 126.984 577.759 127.245 577.333 127.421C576.907 127.597 576.45 127.684 575.99 127.676Z" stroke="#B8D8C7" stroke-width="1.8" stroke-linecap="round" stroke-linejoin="round"/>
<path d="M575.99 204.025H231.058C230.136 204.015 229.254 203.638 228.603 202.975C227.951 202.312 227.58 201.415 227.57 200.478V139.013C227.58 138.075 227.951 137.179 228.603 136.515C229.254 135.852 230.136 135.475 231.058 135.465H575.99C576.912 135.475 577.793 135.852 578.445 136.515C579.097 137.179 579.467 138.075 579.477 139.013V200.478C579.478 200.944 579.389 201.406 579.214 201.836C579.039 202.267 578.782 202.659 578.458 202.988C578.134 203.318 577.749 203.579 577.326 203.757C576.902 203.935 576.448 204.026 575.99 204.025Z" stroke="#B8D8C7" stroke-width="1.8" stroke-linecap="round" stroke-linejoin="round"/>
<path d="M258.349 88.885H250.844V127.676H258.349V88.885Z" stroke="#B8D8C7" stroke-width="1.8" stroke-linecap="round" stroke-linejoin="round"/>
<path d="M266.082 99.4504H258.273V127.676H266.082V99.4504Z" stroke="#B8D8C7" stroke-width="1.8" stroke-linecap="round" stroke-linejoin="round"/>
<path d="M484.488 165.08H476.983V203.871H484.488V165.08Z" stroke="#B8D8C7" stroke-width="1.8" stroke-linecap="round" stroke-linejoin="round"/>
<path d="M492.296 175.645H484.488V203.871H492.296V175.645Z" stroke="#B8D8C7" stroke-width="1.8" stroke-linecap="round" stroke-linejoin="round"/>
<path d="M469.25 165.08H461.745V203.871H469.25V165.08Z" stroke="#B8D8C7" stroke-width="1.8" stroke-linecap="round" stroke-linejoin="round"/>
<path d="M454.668 164.196L443.189 201.188L450.346 203.487L461.825 166.495L454.668 164.196Z" stroke="#B8D8C7" stroke-width="1.8" stroke-linecap="round" stroke-linejoin="round"/>
<path d="M477.059 175.645H469.25V203.871H477.059V175.645Z" stroke="#B8D8C7" stroke-width="1.8" stroke-linecap="round" stroke-linejoin="round"/>
<path d="M383.283 88.885H375.778V127.676H383.283V88.885Z" stroke="#B8D8C7" stroke-width="1.8" stroke-linecap="round" stroke-linejoin="round"/>
<path d="M391.091 99.4504H383.282V127.676H391.091V99.4504Z" stroke="#B8D8C7" stroke-width="1.8" stroke-linecap="round" stroke-linejoin="round"/>
<path d="M309.142 88.885H301.636V127.676H309.142V88.885Z" stroke="#B8D8C7" stroke-width="1.8" stroke-linecap="round" stroke-linejoin="round"/>
<path d="M294.562 87.997L283.083 124.989L290.24 127.287L301.719 90.2954L294.562 87.997Z" stroke="#B8D8C7" stroke-width="1.8" stroke-linecap="round" stroke-linejoin="round"/>
<path d="M316.949 99.4504H309.141V127.676H316.949V99.4504Z" stroke="#B8D8C7" stroke-width="1.8" stroke-linecap="round" stroke-linejoin="round"/>
<path d="M484.412 93.975L485.246 82.4841C485.262 82.3043 485.241 82.123 485.183 81.9522C485.125 81.7815 485.032 81.6253 484.91 81.494C484.788 81.3627 484.64 81.2593 484.476 81.1906C484.311 81.122 484.135 81.0897 483.957 81.096H477.438C477.262 81.0968 477.089 81.1338 476.928 81.2048C476.767 81.2759 476.621 81.3794 476.501 81.5092C476.38 81.639 476.287 81.7923 476.227 81.9599C476.166 82.1275 476.14 82.3058 476.149 82.4841L476.983 93.975C476.983 93.975 470.16 98.448 470.236 102.15C470.311 105.003 471.979 118.653 472.737 124.669C472.834 125.479 473.219 126.224 473.82 126.764C474.421 127.304 475.195 127.602 475.997 127.599H485.398C486.199 127.602 486.974 127.304 487.575 126.764C488.176 126.224 488.561 125.479 488.657 124.669C489.415 118.653 491.083 105.003 491.159 102.15C491.235 98.448 484.412 93.975 484.412 93.975Z" fill="#B8D8C7"/>
<path d="M454.165 93.975L454.998 82.4841C455.015 82.3043 454.993 82.123 454.935 81.9522C454.877 81.7815 454.784 81.6253 454.662 81.494C454.54 81.3627 454.392 81.2593 454.228 81.1906C454.064 81.122 453.887 81.0897 453.71 81.096H447.19C447.015 81.0968 446.841 81.1338 446.68 81.2048C446.519 81.2759 446.374 81.3794 446.253 81.5092C446.133 81.639 446.04 81.7923 445.979 81.9599C445.919 82.1275 445.892 82.3058 445.901 82.4841L446.735 93.975C446.735 93.975 439.912 98.448 439.988 102.15C440.064 105.003 441.732 118.653 442.49 124.669C442.586 125.479 442.972 126.224 443.572 126.764C444.173 127.304 444.948 127.602 445.75 127.599H455.15C455.952 127.602 456.727 127.304 457.327 126.764C457.928 126.224 458.313 125.479 458.41 124.669C459.168 118.653 460.836 105.003 460.912 102.15C460.987 98.448 454.165 93.975 454.165 93.975Z" fill="#B8D8C7"/>
<path d="M-0.16095 276.827H724.425" stroke="#B8D8C7" stroke-width="1.8" stroke-linecap="round" stroke-linejoin="round"/>
</g>
<path d="M261 208.414L259.977 213.924C259.766 215.052 259.214 216.067 258.413 216.798C257.612 217.53 256.61 217.935 255.573 217.947H245.427C244.39 217.938 243.386 217.534 242.584 216.802C241.783 216.07 241.231 215.054 241.022 213.924L240 208.414L250.461 207.89L261 208.414Z" fill="#22272E"/>
<path d="M253 213.924H247V295.387H253V213.924Z" fill="#22272E"/>
<path d="M252.486 301.421H247.514C247.113 301.419 246.729 301.232 246.445 300.901C246.162 300.57 246.002 300.122 246 299.654V283.074C246.002 282.606 246.162 282.158 246.445 281.827C246.729 281.496 247.113 281.309 247.514 281.307H252.486C252.887 281.309 253.271 281.496 253.555 281.827C253.838 282.158 253.998 282.606 254 283.074V299.654C253.973 300.112 253.805 300.543 253.527 300.868C253.249 301.193 252.879 301.389 252.486 301.421Z" fill="#22272E"/>
<path d="M251 210.907C276.405 210.907 297 206.404 297 200.85C297 195.295 276.405 190.792 251 190.792C225.595 190.792 205 195.295 205 200.85C205 206.404 225.595 210.907 251 210.907Z" fill="#B4CDEC"/>
<path d="M251 206.884C276.405 206.884 297 202.381 297 196.827C297 191.272 276.405 186.77 251 186.77C225.595 186.77 205 191.272 205 196.827C205 202.381 225.595 206.884 251 206.884Z" fill="#22272E"/>
<path d="M196.027 297.738C196.027 297.738 196.312 299.612 196.596 302.2C202.661 303.78 208.916 303.841 215 302.379C214.787 297.381 214.574 292.294 214.574 291.223C214.503 288.992 195.175 291.045 196.027 297.738Z" fill="#F0F4EF"/>
<path d="M226.218 156.665C226.218 156.665 218.728 162.862 209.952 169.291C201.176 175.72 174.925 190.67 175 207.324C175.076 217.704 180.75 250.702 184.381 267.046C188.013 283.39 183.927 290.052 188.694 295.784C193.46 301.516 207.607 300.045 213.659 297.488C219.712 294.932 223.116 288.503 220.166 279.053C217.215 269.602 215.097 252.406 216.156 239.548C216.781 230.964 216.857 222.347 216.383 213.753C220.363 211.277 224.569 209.201 228.942 207.557C232.738 206.213 236.452 204.635 240.063 202.831C240.063 202.831 263.137 202.599 264.575 203.296C266.012 203.993 273.577 217.007 274.031 218.943C274.031 218.943 272.594 224.133 271.081 243.188C269.568 262.244 259.279 281.222 261.17 289.123C263.062 297.024 267.676 300.509 273.956 302.446C280.235 304.382 289.238 304.15 293.247 295.397C297.257 286.644 300.132 265.729 304.142 253.955C308.151 242.181 314.431 222.584 313.977 213.366C313.523 204.148 301.872 172.157 294.836 161.003C287.8 149.848 231.968 144.116 226.218 156.665Z" fill="#22272E"/>
<path d="M216 215.935C216 215.935 215.6 209.343 215 206.884" stroke="#63737A" stroke-width="1.8" stroke-linecap="round" stroke-linejoin="round"/>
<path d="M274 219.958C274 219.958 275.412 213.372 277 209.901" stroke="#63737A" stroke-width="1.8" stroke-linecap="round" stroke-linejoin="round"/>
<path d="M193 223.981C199.627 223.981 205 217.902 205 210.404C205 202.905 199.627 196.827 193 196.827C186.373 196.827 181 202.905 181 210.404C181 217.902 186.373 223.981 193 223.981Z" stroke="#63737A" stroke-width="1.8" stroke-linecap="round" stroke-linejoin="round"/>
<path d="M295.5 225.993C302.404 225.993 308 220.139 308 212.918C308 205.698 302.404 199.844 295.5 199.844C288.596 199.844 283 205.698 283 212.918C283 220.139 288.596 225.993 295.5 225.993Z" stroke="#63737A" stroke-width="1.8" stroke-linecap="round" stroke-linejoin="round"/>
<path d="M212.654 131.455C212.654 131.455 210.423 130.331 208.378 125.459C206.334 120.587 213.211 118.994 213.862 121.712C214.512 124.429 212.654 131.455 212.654 131.455Z" fill="#22272E"/>
<path d="M185 123.672C185 123.672 187.999 131.622 198.496 131.453C206.743 131.368 231.26 122.234 232.835 121.473C234.409 120.712 242.132 109.802 239.433 98.0467C236.734 86.2912 229.311 87.2215 229.311 87.2215C229.311 87.2215 220.614 90.7735 204.194 103.798C187.774 116.822 185.3 117.414 185 123.672Z" fill="#F4C2C9"/>
<path d="M209.494 114.804C209.494 114.804 211.694 124.036 212.134 131.456C212.134 131.456 232.666 123.459 234.426 121.811C236.186 120.162 240 104.582 236.7 96.8327C233.4 89.0837 228.927 86.1985 228.927 86.1985C222.604 90.0183 216.461 94.2005 210.52 98.7287C200.987 106.065 209.494 114.804 209.494 114.804Z" fill="#344966"/>
<path d="M216 130.45C216 130.45 214.663 112.422 209 99.2727" stroke="#22272E" stroke-width="1.8" stroke-linecap="round" stroke-linejoin="round"/>
<path d="M304.814 92.0675C294.314 83.2743 280.113 85.4152 273.013 85.7211C265.913 86.0269 259.643 85.5681 245.896 84.3447C238.417 83.6566 233.583 85.3388 230.713 87.0974C228.554 88.4107 226.983 90.5217 226.332 92.9851C225.244 97.8508 224.737 102.831 224.821 107.819C224.976 112.385 225.456 116.933 226.256 121.429C226.86 127.47 227.389 133.893 227.389 136.799C227.389 143.145 222.781 157.979 223.008 163.255C223.235 168.531 237.889 173.042 251.712 173.654C265.535 174.266 289.178 167.919 293.181 166.849C297.185 165.778 297.034 161.573 295.901 154.156C295.07 148.88 295.221 135.422 296.505 124.029C298.695 125.941 301.792 128.617 304.587 131.14C310.63 124.717 317.428 118.753 324 112.636C317.202 104.225 309.724 96.1966 304.814 92.0675Z" fill="#B4CDEC"/>
<mask id="mask1_166_341" style="mask-type:luminance" maskUnits="userSpaceOnUse" x="222" y="83" width="102" height="93">
<path d="M304.593 91.552C294.056 82.5486 279.804 84.7407 272.678 85.0539C265.552 85.367 259.259 84.8973 245.462 83.6446C237.957 82.94 233.105 84.6624 230.224 86.4631C228.057 87.8078 226.481 89.9693 225.827 92.4915C224.736 97.4735 224.227 102.573 224.311 107.68C224.467 112.355 224.948 117.012 225.752 121.616C226.358 127.801 226.889 134.377 226.889 137.352C226.889 143.85 222.264 159.039 222.492 164.441C222.719 169.843 237.426 174.462 251.299 175.088C265.173 175.715 288.901 169.216 292.919 168.12C296.937 167.024 296.785 162.718 295.648 155.124C294.814 149.722 294.966 135.943 296.254 124.278C298.453 126.235 301.561 128.975 304.366 131.559C310.431 124.982 317.254 118.875 323.849 112.612C317.026 104 309.521 95.7797 304.593 91.552Z" fill="white"/>
</mask>
<g mask="url(#mask1_166_341)">
<path d="M230.149 163.345L230.831 164.128C231.068 164.379 231.201 164.716 231.201 165.067C231.201 165.418 231.068 165.755 230.831 166.007L230.073 166.711C229.829 166.956 229.503 167.093 229.163 167.093C228.823 167.093 228.497 166.956 228.254 166.711L227.571 165.928C227.334 165.677 227.201 165.34 227.201 164.989C227.201 164.638 227.334 164.301 227.571 164.049L228.329 163.345C228.445 163.215 228.586 163.111 228.742 163.04C228.899 162.969 229.068 162.932 229.239 162.932C229.41 162.932 229.579 162.969 229.736 163.04C229.892 163.111 230.033 163.215 230.149 163.345Z" fill="#F8AB5D"/>
<path d="M230.3 151.053L230.983 151.836C231.22 152.087 231.352 152.425 231.352 152.776C231.352 153.126 231.22 153.464 230.983 153.715L230.225 154.42C229.981 154.664 229.655 154.801 229.315 154.801C228.975 154.801 228.649 154.664 228.405 154.42L227.723 153.637C227.486 153.385 227.353 153.048 227.353 152.697C227.353 152.346 227.486 152.009 227.723 151.758L228.481 151.053C228.597 150.923 228.737 150.819 228.894 150.748C229.051 150.677 229.22 150.641 229.391 150.641C229.562 150.641 229.731 150.677 229.887 150.748C230.044 150.819 230.185 150.923 230.3 151.053Z" fill="#F8AB5D"/>
<path d="M230.452 138.761L231.135 139.544C231.372 139.795 231.504 140.133 231.504 140.484C231.504 140.834 231.372 141.172 231.135 141.423L230.376 142.128C230.133 142.372 229.807 142.509 229.467 142.509C229.127 142.509 228.801 142.372 228.557 142.128L227.875 141.345C227.638 141.093 227.505 140.756 227.505 140.405C227.505 140.054 227.638 139.717 227.875 139.466L228.633 138.761C228.749 138.631 228.889 138.527 229.046 138.456C229.202 138.385 229.372 138.349 229.543 138.349C229.714 138.349 229.883 138.385 230.039 138.456C230.196 138.527 230.337 138.631 230.452 138.761Z" fill="#F8AB5D"/>
<path d="M230.679 126.469L231.362 127.252C231.599 127.504 231.731 127.841 231.731 128.192C231.731 128.543 231.599 128.88 231.362 129.131L230.604 129.836C230.36 130.081 230.034 130.218 229.694 130.218C229.354 130.218 229.028 130.081 228.784 129.836L228.102 129.053C227.865 128.802 227.732 128.464 227.732 128.113C227.732 127.763 227.865 127.425 228.102 127.174L228.86 126.469C228.976 126.339 229.116 126.236 229.273 126.165C229.43 126.094 229.599 126.057 229.77 126.057C229.941 126.057 230.11 126.094 230.266 126.165C230.423 126.236 230.564 126.339 230.679 126.469Z" fill="#F8AB5D"/>
<path d="M240.838 163.501L241.521 164.284C241.758 164.535 241.89 164.873 241.89 165.224C241.89 165.574 241.758 165.912 241.521 166.163L240.762 166.868C240.519 167.112 240.193 167.249 239.853 167.249C239.513 167.249 239.187 167.112 238.943 166.868L238.261 166.085C238.024 165.833 237.891 165.496 237.891 165.145C237.891 164.794 238.024 164.457 238.261 164.206L239.019 163.501C239.135 163.371 239.275 163.267 239.432 163.196C239.588 163.125 239.758 163.089 239.929 163.089C240.1 163.089 240.269 163.125 240.425 163.196C240.582 163.267 240.723 163.371 240.838 163.501Z" fill="#F8AB5D"/>
<path d="M240.989 151.21L241.671 151.993C241.908 152.244 242.041 152.581 242.041 152.932C242.041 153.283 241.908 153.62 241.671 153.872L240.913 154.576C240.67 154.821 240.343 154.958 240.004 154.958C239.664 154.958 239.337 154.821 239.094 154.576L238.412 153.793C238.174 153.542 238.042 153.205 238.042 152.854C238.042 152.503 238.174 152.166 238.412 151.914L239.17 151.21C239.285 151.08 239.426 150.976 239.583 150.905C239.739 150.834 239.908 150.797 240.079 150.797C240.25 150.797 240.42 150.834 240.576 150.905C240.733 150.976 240.873 151.08 240.989 151.21Z" fill="#F8AB5D"/>
<path d="M241.141 138.918L241.823 139.701C242.06 139.952 242.193 140.289 242.193 140.64C242.193 140.991 242.06 141.328 241.823 141.58L241.065 142.284C240.822 142.529 240.495 142.666 240.155 142.666C239.816 142.666 239.489 142.529 239.246 142.284L238.563 141.501C238.326 141.25 238.194 140.913 238.194 140.562C238.194 140.211 238.326 139.874 238.563 139.622L239.321 138.918C239.437 138.788 239.578 138.684 239.734 138.613C239.891 138.542 240.06 138.505 240.231 138.505C240.402 138.505 240.571 138.542 240.728 138.613C240.885 138.684 241.025 138.788 241.141 138.918Z" fill="#F8AB5D"/>
<path d="M241.368 126.626L242.051 127.409C242.288 127.661 242.42 127.998 242.42 128.349C242.42 128.7 242.288 129.037 242.051 129.288L241.293 129.993C241.049 130.238 240.723 130.375 240.383 130.375C240.043 130.375 239.717 130.238 239.473 129.993L238.791 129.21C238.554 128.958 238.421 128.621 238.421 128.27C238.421 127.919 238.554 127.582 238.791 127.331L239.549 126.626C239.792 126.381 240.119 126.244 240.459 126.244C240.798 126.244 241.125 126.381 241.368 126.626Z" fill="#F8AB5D"/>
<path d="M251.527 163.658L252.209 164.441C252.446 164.692 252.579 165.029 252.579 165.38C252.579 165.731 252.446 166.068 252.209 166.319L251.451 167.024C251.208 167.269 250.881 167.406 250.541 167.406C250.202 167.406 249.875 167.269 249.632 167.024L248.949 166.241C248.712 165.99 248.58 165.653 248.58 165.302C248.58 164.951 248.712 164.614 248.949 164.362L249.707 163.658C249.823 163.528 249.964 163.424 250.12 163.353C250.277 163.282 250.446 163.245 250.617 163.245C250.788 163.245 250.957 163.282 251.114 163.353C251.271 163.424 251.411 163.528 251.527 163.658Z" fill="#F8AB5D"/>
<path d="M251.679 151.366L252.361 152.149C252.598 152.4 252.731 152.738 252.731 153.088C252.731 153.439 252.598 153.777 252.361 154.028L251.603 154.733C251.36 154.977 251.033 155.114 250.693 155.114C250.353 155.114 250.027 154.977 249.784 154.733L249.101 153.95C248.864 153.698 248.732 153.361 248.732 153.01C248.732 152.659 248.864 152.322 249.101 152.071L249.859 151.366C249.975 151.236 250.116 151.132 250.272 151.061C250.429 150.99 250.598 150.954 250.769 150.954C250.94 150.954 251.109 150.99 251.266 151.061C251.422 151.132 251.563 151.236 251.679 151.366Z" fill="#F8AB5D"/>
<path d="M251.906 139.074L252.589 139.857C252.826 140.109 252.958 140.446 252.958 140.797C252.958 141.148 252.826 141.485 252.589 141.736L251.83 142.441C251.587 142.686 251.261 142.823 250.921 142.823C250.581 142.823 250.254 142.686 250.011 142.441L249.329 141.658C249.092 141.406 248.959 141.069 248.959 140.718C248.959 140.367 249.092 140.03 249.329 139.779L250.087 139.074C250.33 138.829 250.657 138.692 250.997 138.692C251.336 138.692 251.663 138.829 251.906 139.074Z" fill="#F8AB5D"/>
<path d="M252.058 126.783L252.74 127.566C252.977 127.817 253.11 128.154 253.11 128.505C253.11 128.856 252.977 129.193 252.74 129.445L251.982 130.149C251.739 130.394 251.412 130.531 251.072 130.531C250.732 130.531 250.406 130.394 250.163 130.149L249.48 129.366C249.243 129.115 249.111 128.778 249.111 128.427C249.111 128.076 249.243 127.739 249.48 127.487L250.238 126.783C250.482 126.538 250.808 126.401 251.148 126.401C251.488 126.401 251.814 126.538 252.058 126.783Z" fill="#F8AB5D"/>
<path d="M262.216 163.814L262.898 164.597C263.135 164.849 263.268 165.186 263.268 165.537C263.268 165.888 263.135 166.225 262.898 166.476L262.14 167.181C261.897 167.426 261.57 167.563 261.23 167.563C260.89 167.563 260.564 167.426 260.321 167.181L259.638 166.398C259.401 166.147 259.269 165.809 259.269 165.458C259.269 165.107 259.401 164.77 259.638 164.519L260.396 163.814C260.512 163.684 260.653 163.581 260.809 163.51C260.966 163.439 261.135 163.402 261.306 163.402C261.477 163.402 261.646 163.439 261.803 163.51C261.96 163.581 262.1 163.684 262.216 163.814Z" fill="#F8AB5D"/>
<path d="M262.444 151.523L263.126 152.306C263.363 152.557 263.496 152.894 263.496 153.245C263.496 153.596 263.363 153.933 263.126 154.184L262.368 154.889C262.125 155.134 261.798 155.271 261.459 155.271C261.119 155.271 260.792 155.134 260.549 154.889L259.867 154.106C259.629 153.855 259.497 153.518 259.497 153.167C259.497 152.816 259.629 152.479 259.867 152.227L260.625 151.523C260.74 151.393 260.881 151.289 261.038 151.218C261.194 151.147 261.363 151.11 261.534 151.11C261.705 151.11 261.875 151.147 262.031 151.218C262.188 151.289 262.328 151.393 262.444 151.523Z" fill="#F8AB5D"/>
<path d="M262.595 139.231L263.277 140.014C263.514 140.266 263.647 140.603 263.647 140.954C263.647 141.305 263.514 141.642 263.277 141.893L262.519 142.598C262.276 142.843 261.949 142.98 261.609 142.98C261.269 142.98 260.943 142.843 260.7 142.598L260.017 141.815C259.78 141.564 259.648 141.227 259.648 140.876C259.648 140.525 259.78 140.188 260.017 139.936L260.775 139.231C261.019 138.987 261.345 138.85 261.685 138.85C262.025 138.85 262.351 138.987 262.595 139.231Z" fill="#F8AB5D"/>
<path d="M262.746 127.017L263.429 127.8C263.666 128.052 263.798 128.389 263.798 128.74C263.798 129.091 263.666 129.428 263.429 129.679L262.671 130.384C262.427 130.629 262.101 130.766 261.761 130.766C261.421 130.766 261.095 130.629 260.851 130.384L260.169 129.601C259.932 129.35 259.799 129.013 259.799 128.662C259.799 128.311 259.932 127.974 260.169 127.722L260.927 127.017C261.043 126.887 261.183 126.784 261.34 126.713C261.497 126.642 261.666 126.605 261.837 126.605C262.008 126.605 262.177 126.642 262.333 126.713C262.49 126.784 262.631 126.887 262.746 127.017Z" fill="#F8AB5D"/>
<path d="M272.981 163.971L273.663 164.754C273.9 165.005 274.033 165.343 274.033 165.693C274.033 166.044 273.9 166.382 273.663 166.633L272.905 167.338C272.662 167.582 272.335 167.719 271.995 167.719C271.655 167.719 271.329 167.582 271.086 167.338L270.403 166.555C270.166 166.303 270.034 165.966 270.034 165.615C270.034 165.264 270.166 164.927 270.403 164.676L271.161 163.971C271.277 163.841 271.418 163.737 271.574 163.666C271.731 163.595 271.9 163.559 272.071 163.559C272.242 163.559 272.411 163.595 272.568 163.666C272.724 163.737 272.865 163.841 272.981 163.971Z" fill="#F8AB5D"/>
<path d="M273.133 151.679L273.815 152.462C274.052 152.714 274.185 153.051 274.185 153.402C274.185 153.753 274.052 154.09 273.815 154.341L273.057 155.046C272.814 155.291 272.487 155.428 272.147 155.428C271.808 155.428 271.481 155.291 271.238 155.046L270.555 154.263C270.318 154.011 270.186 153.674 270.186 153.323C270.186 152.972 270.318 152.635 270.555 152.384L271.314 151.679C271.557 151.434 271.883 151.297 272.223 151.297C272.563 151.297 272.889 151.434 273.133 151.679Z" fill="#F8AB5D"/>
<path d="M273.285 139.466L273.967 140.249C274.204 140.5 274.337 140.837 274.337 141.188C274.337 141.539 274.204 141.876 273.967 142.128L273.209 142.832C272.965 143.077 272.639 143.214 272.299 143.214C271.959 143.214 271.633 143.077 271.389 142.832L270.707 142.05C270.47 141.798 270.337 141.461 270.337 141.11C270.337 140.759 270.47 140.422 270.707 140.171L271.465 139.466C271.581 139.336 271.722 139.232 271.878 139.161C272.035 139.09 272.204 139.053 272.375 139.053C272.546 139.053 272.715 139.09 272.872 139.161C273.028 139.232 273.169 139.336 273.285 139.466Z" fill="#F8AB5D"/>
<path d="M273.512 127.174L274.194 127.957C274.431 128.209 274.564 128.546 274.564 128.897C274.564 129.248 274.431 129.585 274.194 129.836L273.436 130.541C273.192 130.786 272.866 130.923 272.526 130.923C272.186 130.923 271.86 130.786 271.617 130.541L270.934 129.758C270.697 129.507 270.564 129.17 270.564 128.819C270.564 128.468 270.697 128.131 270.934 127.879L271.692 127.174C271.808 127.044 271.949 126.941 272.105 126.87C272.262 126.799 272.431 126.762 272.602 126.762C272.773 126.762 272.942 126.799 273.099 126.87C273.255 126.941 273.396 127.044 273.512 127.174Z" fill="#F8AB5D"/>
<path d="M283.671 164.127L284.353 164.91C284.59 165.162 284.723 165.499 284.723 165.85C284.723 166.201 284.59 166.538 284.353 166.789L283.595 167.494C283.351 167.739 283.025 167.876 282.685 167.876C282.345 167.876 282.019 167.739 281.775 167.494L281.093 166.711C280.856 166.459 280.723 166.122 280.723 165.771C280.723 165.42 280.856 165.083 281.093 164.832L281.851 164.127C282.095 163.882 282.421 163.745 282.761 163.745C283.101 163.745 283.427 163.882 283.671 164.127Z" fill="#F8AB5D"/>
<path d="M283.821 151.914L284.504 152.697C284.741 152.948 284.873 153.285 284.873 153.636C284.873 153.987 284.741 154.324 284.504 154.576L283.746 155.28C283.502 155.525 283.176 155.662 282.836 155.662C282.496 155.662 282.17 155.525 281.926 155.28L281.244 154.498C281.007 154.246 280.874 153.909 280.874 153.558C280.874 153.207 281.007 152.87 281.244 152.619L282.002 151.914C282.118 151.784 282.258 151.68 282.415 151.609C282.571 151.538 282.741 151.501 282.912 151.501C283.083 151.501 283.252 151.538 283.408 151.609C283.565 151.68 283.706 151.784 283.821 151.914Z" fill="#F8AB5D"/>
<path d="M284.05 139.622L284.732 140.405C284.969 140.657 285.102 140.994 285.102 141.345C285.102 141.696 284.969 142.033 284.732 142.284L283.974 142.989C283.73 143.234 283.404 143.371 283.064 143.371C282.724 143.371 282.398 143.234 282.154 142.989L281.472 142.206C281.235 141.955 281.102 141.618 281.102 141.267C281.102 140.916 281.235 140.578 281.472 140.327L282.23 139.622C282.346 139.492 282.487 139.389 282.643 139.318C282.8 139.247 282.969 139.21 283.14 139.21C283.311 139.21 283.48 139.247 283.637 139.318C283.793 139.389 283.934 139.492 284.05 139.622Z" fill="#F8AB5D"/>
<path d="M284.201 127.331L284.883 128.114C285.12 128.365 285.253 128.702 285.253 129.053C285.253 129.404 285.12 129.741 284.883 129.993L284.125 130.697C283.881 130.942 283.555 131.079 283.215 131.079C282.875 131.079 282.549 130.942 282.305 130.697L281.623 129.915C281.386 129.663 281.253 129.326 281.253 128.975C281.253 128.624 281.386 128.287 281.623 128.036L282.381 127.331C282.497 127.201 282.638 127.097 282.794 127.026C282.951 126.955 283.12 126.918 283.291 126.918C283.462 126.918 283.631 126.955 283.788 127.026C283.944 127.097 284.085 127.201 284.201 127.331Z" fill="#F8AB5D"/>
<path d="M294.359 164.363L295.041 165.146C295.279 165.397 295.411 165.734 295.411 166.085C295.411 166.436 295.279 166.773 295.041 167.025L294.283 167.729C294.04 167.974 293.714 168.111 293.374 168.111C293.034 168.111 292.707 167.974 292.464 167.729L291.782 166.946C291.545 166.695 291.412 166.358 291.412 166.007C291.412 165.656 291.545 165.319 291.782 165.067L292.54 164.363C292.656 164.233 292.796 164.129 292.953 164.058C293.109 163.987 293.278 163.95 293.449 163.95C293.621 163.95 293.79 163.987 293.946 164.058C294.103 164.129 294.243 164.233 294.359 164.363Z" fill="#F8AB5D"/>
<path d="M294.511 152.071L295.193 152.854C295.43 153.105 295.563 153.442 295.563 153.793C295.563 154.144 295.43 154.481 295.193 154.733L294.435 155.437C294.192 155.682 293.865 155.819 293.526 155.819C293.186 155.819 292.859 155.682 292.616 155.437L291.934 154.654C291.696 154.403 291.564 154.066 291.564 153.715C291.564 153.364 291.696 153.027 291.934 152.775L292.692 152.071C292.807 151.941 292.948 151.837 293.105 151.766C293.261 151.695 293.43 151.658 293.601 151.658C293.772 151.658 293.942 151.695 294.098 151.766C294.255 151.837 294.395 151.941 294.511 152.071Z" fill="#F8AB5D"/>
<path d="M294.738 139.779L295.421 140.562C295.658 140.813 295.791 141.15 295.791 141.501C295.791 141.852 295.658 142.189 295.421 142.441L294.663 143.145C294.419 143.39 294.093 143.527 293.753 143.527C293.413 143.527 293.087 143.39 292.843 143.145L292.161 142.363C291.924 142.111 291.791 141.774 291.791 141.423C291.791 141.072 291.924 140.735 292.161 140.484L292.919 139.779C293.035 139.649 293.175 139.545 293.332 139.474C293.489 139.403 293.658 139.366 293.829 139.366C294 139.366 294.169 139.403 294.326 139.474C294.482 139.545 294.623 139.649 294.738 139.779Z" fill="#F8AB5D"/>
<path d="M294.89 127.487L295.572 128.27C295.809 128.522 295.942 128.859 295.942 129.21C295.942 129.561 295.809 129.898 295.572 130.149L294.814 130.854C294.571 131.099 294.244 131.236 293.905 131.236C293.565 131.236 293.238 131.099 292.995 130.854L292.313 130.071C292.076 129.82 291.943 129.483 291.943 129.132C291.943 128.781 292.076 128.443 292.313 128.192L293.071 127.487C293.186 127.357 293.327 127.254 293.484 127.183C293.64 127.112 293.809 127.075 293.98 127.075C294.151 127.075 294.321 127.112 294.477 127.183C294.634 127.254 294.774 127.357 294.89 127.487Z" fill="#F8AB5D"/>
<path d="M230.831 114.178L231.514 114.961C231.751 115.213 231.883 115.55 231.883 115.901C231.883 116.252 231.751 116.589 231.514 116.84L230.756 117.545C230.512 117.79 230.186 117.927 229.846 117.927C229.506 117.927 229.18 117.79 228.936 117.545L228.254 116.762C228.017 116.51 227.884 116.173 227.884 115.822C227.884 115.471 228.017 115.134 228.254 114.883L229.012 114.178C229.255 113.933 229.582 113.796 229.922 113.796C230.261 113.796 230.588 113.933 230.831 114.178Z" fill="#F8AB5D"/>
<path d="M230.983 101.886L231.665 102.669C231.902 102.921 232.035 103.258 232.035 103.609C232.035 103.96 231.902 104.297 231.665 104.548L230.907 105.253C230.664 105.498 230.337 105.635 229.997 105.635C229.658 105.635 229.331 105.498 229.088 105.253L228.405 104.47C228.168 104.218 228.036 103.881 228.036 103.53C228.036 103.179 228.168 102.842 228.405 102.591L229.163 101.886C229.407 101.641 229.733 101.504 230.073 101.504C230.413 101.504 230.739 101.641 230.983 101.886Z" fill="#F8AB5D"/>
<path d="M231.21 89.6728L231.893 90.4557C232.13 90.7071 232.262 91.0442 232.262 91.3951C232.262 91.7461 232.13 92.0832 231.893 92.3346L231.134 93.0392C230.891 93.2841 230.565 93.4211 230.225 93.4211C229.885 93.4211 229.559 93.2841 229.315 93.0392L228.633 92.2563C228.396 92.0049 228.263 91.6678 228.263 91.3168C228.263 90.9659 228.396 90.6288 228.633 90.3774L229.391 89.6728C229.507 89.5427 229.647 89.4389 229.804 89.3679C229.96 89.2969 230.13 89.2603 230.301 89.2603C230.472 89.2603 230.641 89.2969 230.797 89.3679C230.954 89.4389 231.095 89.5427 231.21 89.6728Z" fill="#F8AB5D"/>
<path d="M241.52 114.335L242.202 115.118C242.44 115.369 242.572 115.706 242.572 116.057C242.572 116.408 242.44 116.745 242.202 116.997L241.444 117.701C241.201 117.946 240.875 118.083 240.535 118.083C240.195 118.083 239.868 117.946 239.625 117.701L238.943 116.918C238.706 116.667 238.573 116.33 238.573 115.979C238.573 115.628 238.706 115.291 238.943 115.039L239.701 114.335C239.944 114.09 240.271 113.953 240.61 113.953C240.95 113.953 241.277 114.09 241.52 114.335Z" fill="#F8AB5D"/>
<path d="M241.747 102.121L242.43 102.904C242.667 103.156 242.799 103.493 242.799 103.844C242.799 104.195 242.667 104.532 242.43 104.783L241.672 105.488C241.428 105.733 241.102 105.87 240.762 105.87C240.422 105.87 240.096 105.733 239.852 105.488L239.17 104.705C238.933 104.454 238.8 104.117 238.8 103.766C238.8 103.415 238.933 103.078 239.17 102.826L239.928 102.121C240.044 101.991 240.184 101.888 240.341 101.817C240.497 101.746 240.667 101.709 240.838 101.709C241.009 101.709 241.178 101.746 241.334 101.817C241.491 101.888 241.632 101.991 241.747 102.121Z" fill="#F8AB5D"/>
<path d="M241.899 89.8295L242.581 90.6124C242.818 90.8638 242.951 91.2009 242.951 91.5519C242.951 91.9028 242.818 92.2399 242.581 92.4914L241.823 93.196C241.58 93.4408 241.253 93.5779 240.913 93.5779C240.574 93.5779 240.247 93.4408 240.004 93.196L239.321 92.4131C239.084 92.1616 238.952 91.8245 238.952 91.4736C238.952 91.1226 239.084 90.7855 239.321 90.5341L240.08 89.8295C240.195 89.6994 240.336 89.5957 240.492 89.5247C240.649 89.4536 240.818 89.417 240.989 89.417C241.16 89.417 241.329 89.4536 241.486 89.5247C241.643 89.5957 241.783 89.6994 241.899 89.8295Z" fill="#F8AB5D"/>
<path d="M252.21 114.569L252.892 115.352C253.129 115.604 253.262 115.941 253.262 116.292C253.262 116.643 253.129 116.98 252.892 117.231L252.134 117.936C251.89 118.181 251.564 118.318 251.224 118.318C250.884 118.318 250.558 118.181 250.314 117.936L249.632 117.153C249.395 116.902 249.262 116.565 249.262 116.214C249.262 115.863 249.395 115.526 249.632 115.274L250.39 114.569C250.506 114.439 250.647 114.336 250.803 114.265C250.96 114.194 251.129 114.157 251.3 114.157C251.471 114.157 251.64 114.194 251.797 114.265C251.953 114.336 252.094 114.439 252.21 114.569Z" fill="#F8AB5D"/>
<path d="M252.437 102.278L253.119 103.061C253.356 103.312 253.489 103.649 253.489 104C253.489 104.351 253.356 104.688 253.119 104.94L252.361 105.644C252.118 105.889 251.791 106.026 251.451 106.026C251.111 106.026 250.785 105.889 250.542 105.644L249.859 104.862C249.622 104.61 249.49 104.273 249.49 103.922C249.49 103.571 249.622 103.234 249.859 102.983L250.617 102.278C250.733 102.148 250.874 102.044 251.03 101.973C251.187 101.902 251.356 101.865 251.527 101.865C251.698 101.865 251.867 101.902 252.024 101.973C252.18 102.044 252.321 102.148 252.437 102.278Z" fill="#F8AB5D"/>
<path d="M252.589 89.9862L253.271 90.7691C253.508 91.0206 253.641 91.3577 253.641 91.7086C253.641 92.0596 253.508 92.3967 253.271 92.6481L252.513 93.3527C252.269 93.5976 251.943 93.7346 251.603 93.7346C251.263 93.7346 250.937 93.5976 250.693 93.3527L250.011 92.5698C249.774 92.3184 249.641 91.9813 249.641 91.6303C249.641 91.2794 249.774 90.9423 250.011 90.6908L250.769 89.9862C250.885 89.8562 251.026 89.7524 251.182 89.6814C251.339 89.6104 251.508 89.5737 251.679 89.5737C251.85 89.5737 252.019 89.6104 252.176 89.6814C252.332 89.7524 252.473 89.8562 252.589 89.9862Z" fill="#F8AB5D"/>
<path d="M262.974 114.726L263.656 115.509C263.893 115.76 264.026 116.097 264.026 116.448C264.026 116.799 263.893 117.136 263.656 117.388L262.898 118.092C262.655 118.337 262.328 118.474 261.988 118.474C261.648 118.474 261.322 118.337 261.079 118.092L260.396 117.31C260.159 117.058 260.027 116.721 260.027 116.37C260.027 116.019 260.159 115.682 260.396 115.431L261.154 114.726C261.27 114.596 261.411 114.492 261.567 114.421C261.724 114.35 261.893 114.313 262.064 114.313C262.235 114.313 262.404 114.35 262.561 114.421C262.718 114.492 262.858 114.596 262.974 114.726Z" fill="#F8AB5D"/>
<path d="M263.126 102.434L263.808 103.217C264.045 103.469 264.178 103.806 264.178 104.157C264.178 104.508 264.045 104.845 263.808 105.096L263.05 105.801C262.806 106.046 262.48 106.183 262.14 106.183C261.8 106.183 261.474 106.046 261.231 105.801L260.548 105.018C260.311 104.767 260.178 104.43 260.178 104.079C260.178 103.728 260.311 103.39 260.548 103.139L261.306 102.434C261.422 102.304 261.563 102.201 261.719 102.13C261.876 102.059 262.045 102.022 262.216 102.022C262.387 102.022 262.556 102.059 262.713 102.13C262.869 102.201 263.01 102.304 263.126 102.434Z" fill="#F8AB5D"/>
<path d="M263.277 90.1429L263.96 90.9259C264.197 91.1773 264.329 91.5144 264.329 91.8654C264.329 92.2163 264.197 92.5534 263.96 92.8049L263.202 93.5095C262.958 93.7543 262.632 93.8913 262.292 93.8913C261.952 93.8913 261.626 93.7543 261.382 93.5095L260.7 92.7266C260.463 92.4751 260.33 92.138 260.33 91.7871C260.33 91.4361 260.463 91.099 260.7 90.8476L261.458 90.1429C261.574 90.0129 261.714 89.9091 261.871 89.8381C262.027 89.7671 262.197 89.7305 262.368 89.7305C262.539 89.7305 262.708 89.7671 262.864 89.8381C263.021 89.9091 263.162 90.0129 263.277 90.1429Z" fill="#F8AB5D"/>
<path d="M273.664 114.882L274.346 115.665C274.583 115.917 274.716 116.254 274.716 116.605C274.716 116.956 274.583 117.293 274.346 117.544L273.588 118.249C273.344 118.494 273.018 118.631 272.678 118.631C272.338 118.631 272.012 118.494 271.768 118.249L271.086 117.466C270.849 117.215 270.716 116.878 270.716 116.527C270.716 116.176 270.849 115.838 271.086 115.587L271.844 114.882C271.96 114.752 272.101 114.649 272.257 114.578C272.414 114.507 272.583 114.47 272.754 114.47C272.925 114.47 273.094 114.507 273.251 114.578C273.407 114.649 273.548 114.752 273.664 114.882Z" fill="#F8AB5D"/>
<path d="M273.815 102.591L274.498 103.374C274.735 103.625 274.867 103.962 274.867 104.313C274.867 104.664 274.735 105.001 274.498 105.253L273.739 105.957C273.496 106.202 273.17 106.339 272.83 106.339C272.49 106.339 272.163 106.202 271.92 105.957L271.238 105.175C271.001 104.923 270.868 104.586 270.868 104.235C270.868 103.884 271.001 103.547 271.238 103.296L271.996 102.591C272.112 102.461 272.252 102.357 272.409 102.286C272.565 102.215 272.735 102.178 272.906 102.178C273.077 102.178 273.246 102.215 273.402 102.286C273.559 102.357 273.699 102.461 273.815 102.591Z" fill="#F8AB5D"/>
<path d="M274.042 90.2992L274.725 91.0821C274.962 91.3335 275.094 91.6706 275.094 92.0216C275.094 92.3726 274.962 92.7096 274.725 92.9611L273.967 93.6657C273.723 93.9105 273.397 94.0476 273.057 94.0476C272.717 94.0476 272.391 93.9105 272.147 93.6657L271.465 92.8828C271.228 92.6313 271.095 92.2943 271.095 91.9433C271.095 91.5923 271.228 91.2552 271.465 91.0038L272.223 90.2992C272.339 90.1692 272.479 90.0654 272.636 89.9944C272.792 89.9234 272.962 89.8867 273.133 89.8867C273.304 89.8867 273.473 89.9234 273.629 89.9944C273.786 90.0654 273.927 90.1692 274.042 90.2992Z" fill="#F8AB5D"/>
<path d="M284.353 115.039L285.035 115.822C285.272 116.074 285.405 116.411 285.405 116.762C285.405 117.113 285.272 117.45 285.035 117.701L284.277 118.406C284.033 118.651 283.707 118.788 283.367 118.788C283.027 118.788 282.701 118.651 282.457 118.406L281.775 117.623C281.538 117.372 281.405 117.035 281.405 116.684C281.405 116.333 281.538 115.996 281.775 115.744L282.533 115.039C282.649 114.909 282.789 114.806 282.946 114.735C283.103 114.664 283.272 114.627 283.443 114.627C283.614 114.627 283.783 114.664 283.94 114.735C284.096 114.806 284.237 114.909 284.353 115.039Z" fill="#F8AB5D"/>
<path d="M284.58 102.747L285.262 103.53C285.499 103.782 285.632 104.119 285.632 104.47C285.632 104.821 285.499 105.158 285.262 105.409L284.504 106.114C284.26 106.359 283.934 106.496 283.594 106.496C283.254 106.496 282.928 106.359 282.684 106.114L282.002 105.331C281.765 105.08 281.632 104.743 281.632 104.392C281.632 104.041 281.765 103.703 282.002 103.452L282.76 102.747C282.876 102.617 283.017 102.514 283.173 102.443C283.33 102.372 283.499 102.335 283.67 102.335C283.841 102.335 284.01 102.372 284.167 102.443C284.323 102.514 284.464 102.617 284.58 102.747Z" fill="#F8AB5D"/>
<path d="M284.731 90.456L285.414 91.2389C285.651 91.4903 285.783 91.8274 285.783 92.1783C285.783 92.5293 285.651 92.8664 285.414 93.1178L284.655 93.8225C284.412 94.0673 284.086 94.2043 283.746 94.2043C283.406 94.2043 283.08 94.0673 282.836 93.8225L282.154 93.0395C281.917 92.7881 281.784 92.451 281.784 92.1C281.784 91.7491 281.917 91.412 282.154 91.1606L282.912 90.456C283.028 90.3259 283.168 90.2221 283.325 90.1511C283.481 90.0801 283.651 90.0435 283.822 90.0435C283.993 90.0435 284.162 90.0801 284.318 90.1511C284.475 90.2221 284.616 90.3259 284.731 90.456Z" fill="#F8AB5D"/>
<path d="M295.042 115.196L295.724 115.979C295.961 116.23 296.094 116.567 296.094 116.918C296.094 117.269 295.961 117.606 295.724 117.858L294.966 118.562C294.723 118.807 294.396 118.944 294.056 118.944C293.717 118.944 293.39 118.807 293.147 118.562L292.464 117.78C292.227 117.528 292.095 117.191 292.095 116.84C292.095 116.489 292.227 116.152 292.464 115.901L293.223 115.196C293.338 115.066 293.479 114.962 293.635 114.891C293.792 114.82 293.961 114.783 294.132 114.783C294.303 114.783 294.472 114.82 294.629 114.891C294.786 114.962 294.926 115.066 295.042 115.196Z" fill="#F8AB5D"/>
<path d="M295.269 102.904L295.951 103.687C296.189 103.939 296.321 104.276 296.321 104.627C296.321 104.978 296.189 105.315 295.951 105.566L295.193 106.271C294.95 106.516 294.623 106.653 294.284 106.653C293.944 106.653 293.617 106.516 293.374 106.271L292.692 105.488C292.455 105.237 292.322 104.9 292.322 104.549C292.322 104.198 292.455 103.86 292.692 103.609L293.45 102.904C293.565 102.774 293.706 102.671 293.863 102.6C294.019 102.529 294.188 102.492 294.359 102.492C294.53 102.492 294.7 102.529 294.856 102.6C295.013 102.671 295.153 102.774 295.269 102.904Z" fill="#F8AB5D"/>
<path d="M295.421 90.6126L296.103 91.3955C296.34 91.6469 296.473 91.984 296.473 92.335C296.473 92.686 296.34 93.023 296.103 93.2745L295.345 93.9791C295.102 94.224 294.775 94.361 294.435 94.361C294.096 94.361 293.769 94.224 293.526 93.9791L292.844 93.1962C292.606 92.9448 292.474 92.6077 292.474 92.2567C292.474 91.9057 292.606 91.5686 292.844 91.3172L293.602 90.6126C293.845 90.3677 294.171 90.2307 294.511 90.2307C294.851 90.2307 295.178 90.3677 295.421 90.6126Z" fill="#F8AB5D"/>
</g>
<path d="M250 94.2156C250 94.2156 249.855 103.636 259.361 104.274C268.867 104.913 276.269 94.1358 274.818 86.8713C273.366 79.6067 250 83.5982 250 94.2156Z" fill="#F4C2C9"/>
<path d="M270 91.2271C265.55 97.7935 256.792 101.259 251 96.5167C251.367 98.7778 252.253 100.844 253.543 102.445C260.535 105.546 267.245 99.7999 270 91.2271Z" fill="#F0F4EF"/>
<path d="M243.084 63.394C243.607 68.6484 243.607 73.947 243.084 79.2014C242.235 88.34 247.871 99.5369 257.058 101.019C266.94 102.665 276.359 96.82 279.138 78.7074C281.917 60.5948 278.134 49.3156 265.473 48.2453C252.812 47.1751 243.007 48.8217 243.084 63.394Z" fill="#F4C2C9"/>
<path d="M282.767 65.6282C282.509 68.7562 281.806 71.8192 280.684 74.7034C279.27 78.086 277.781 79.1585 277.781 79.1585L268.852 73.7134C268.852 73.7134 243.7 80.231 243.031 63.7307C242.951 61.9119 243.026 60.0889 243.254 58.2856C243.673 54.5715 245.012 51.0589 247.123 48.1379C247.432 47.6869 247.781 47.2722 248.165 46.9004C252.63 42.0328 259.476 39.9703 267.513 41.3728C281.8 43.7653 283.809 54.9031 282.767 65.6282Z" fill="#F4C2C9"/>
<path d="M259 47.9814C249.584 48.1584 242.346 51.0777 243.047 64.436C243.047 64.436 243.125 65.4091 243.28 67.09C245.148 63.9052 249.272 64.0822 251.685 61.6051C255.364 58.0911 257.932 53.3073 259 47.9814Z" fill="#F0F4EF"/>
<path d="M283.999 60.7398C284.007 59.488 283.644 58.2685 282.967 57.2725C283.203 56.5871 283.327 55.8603 283.336 55.126C283.335 54.0867 283.089 53.0661 282.623 52.1673C282.157 51.2685 281.488 50.5235 280.682 50.0075C280.585 48.5562 280.011 47.1968 279.072 46.1908C278.133 45.1849 276.895 44.6035 275.597 44.5587C274.95 43.2671 273.899 42.2902 272.646 41.8174C271.393 41.3446 270.028 41.4095 268.816 41.9995C268.325 41.3538 267.715 40.835 267.028 40.4787C266.341 40.1224 265.593 39.9371 264.836 39.9355C263.663 39.9409 262.524 40.3758 261.592 41.1739C260.735 40.5513 259.74 40.2082 258.718 40.1832C257.862 40.1829 257.019 40.4157 256.261 40.8616C255.504 41.3074 254.854 41.9529 254.369 42.7425C253.957 42.642 253.538 42.5867 253.116 42.5774C251.997 42.5755 250.906 42.9753 250.004 43.7181C249.102 44.461 248.436 45.5078 248.104 46.7052C246.855 46.9233 245.716 47.6332 244.891 48.7076C244.067 49.782 243.612 51.1503 243.608 52.5667C243.592 52.8446 243.617 53.1235 243.682 53.3923C242.724 55.5388 242.871 58.9236 243.534 58.7585C246.075 58.0581 248.753 58.3494 251.126 59.5841C255.401 61.9782 257.317 61.4003 261.961 59.5841C267.12 57.6027 275.228 56.4469 276.407 66.6839C276.702 69.3257 274.049 75.1873 277.734 77.0035C278.692 77.4989 279.724 76.6733 280.682 75.1047C281.021 74.338 281.293 73.5361 281.493 72.7106C282.265 72.1872 282.903 71.4476 283.342 70.5646C283.781 69.6815 284.008 68.6855 283.999 67.6746C284.007 66.4227 283.644 65.2032 282.967 64.2072C283.655 63.2177 284.019 61.9938 283.999 60.7398Z" fill="#22272E"/>
<path d="M275.995 76.1929C275.995 76.1929 278.256 70.8126 281.061 72.4173C283.413 73.7387 281.332 86.104 275 86.1984" fill="#F4C2C9"/>
<path d="M254.901 72.1184C255.254 73.4787 255.37 74.9368 255.239 76.3721C255.191 77.1136 255.078 77.8439 254.901 78.5461C254.697 79.2078 254.562 79.775 254.359 80.4366C254.219 80.9537 254.128 81.4939 254.088 82.0436C254.132 82.5478 254.299 83.0153 254.562 83.3669C254.869 83.8318 255.249 84.1927 255.671 84.422C256.094 84.6513 256.548 84.7431 257 84.6903C256.528 85.0628 255.987 85.2344 255.446 85.1841C254.904 85.1337 254.385 84.8635 253.952 84.4067C253.693 84.159 253.474 83.8371 253.311 83.4622C253.147 83.0873 253.043 82.6682 253.004 82.2326C252.978 81.4274 253.07 80.6232 253.275 79.8695C253.478 79.2078 253.682 78.5461 253.885 77.979C254.083 77.4027 254.242 76.8013 254.359 76.183C254.562 74.8596 254.697 73.5363 254.901 72.1184Z" fill="#22272E"/>
<path d="M257 87.9052C257.869 87.033 258.787 86.9735 259.665 87.7328C260.542 88.492 261.347 90.0435 262 92.2327" stroke="#22272E" stroke-width="1.8" stroke-linecap="round" stroke-linejoin="round"/>
<path d="M246.038 69.9964C247.125 69.6409 248.129 68.4562 250.388 68.3378C251.894 68.2193 252.815 68.3378 252.982 66.7976C253.149 65.6129 252.145 64.0728 250.472 64.0728C247.209 64.0728 243.026 71.0626 246.038 69.9964Z" fill="#22272E"/>
<path d="M270.76 70.9245C269.484 70.4284 268.503 69.0639 265.852 68.5677C264.085 68.1956 263.005 68.1956 263.005 66.583C262.907 65.2185 264.183 63.8541 266.147 64.1022C269.779 64.5983 274.196 72.4131 270.76 70.9245Z" fill="#22272E"/>
<path d="M250.944 77.147C251.204 77.1427 251.454 76.955 251.648 76.6188C251.842 76.2825 251.967 75.8205 252 75.3184V74.1755C251.998 73.6694 251.901 73.1821 251.729 72.8038C251.556 72.4255 251.319 72.182 251.061 72.1184C250.801 72.1227 250.551 72.3104 250.357 72.6466C250.163 72.9829 250.038 73.4449 250.005 73.947V75.0898C249.991 75.3474 250.005 75.6078 250.046 75.8544C250.087 76.101 250.153 76.3283 250.242 76.5219C250.33 76.7155 250.438 76.871 250.559 76.9787C250.68 77.0863 250.811 77.1436 250.944 77.147Z" fill="#22272E"/>
<path d="M264.414 78.1527C264.804 78.1475 265.18 77.9224 265.472 77.5189C265.763 77.1154 265.951 76.5609 266 75.9584V74.587C265.997 73.9797 265.852 73.3948 265.593 72.9409C265.333 72.4869 264.977 72.1947 264.59 72.1184C264.2 72.1236 263.824 72.3487 263.532 72.7522C263.241 73.1557 263.053 73.7102 263.004 74.3127V75.6841C262.99 75.9912 263.015 76.2996 263.078 76.5912C263.142 76.8828 263.242 77.1516 263.374 77.3817C263.505 77.6118 263.665 77.7987 263.844 77.9311C264.022 78.0635 264.216 78.1388 264.414 78.1527Z" fill="#22272E"/>
<path d="M281 76.9073C280.644 76.7901 280.289 76.7901 280.2 77.0244C280.076 77.2659 280.014 77.5531 280.022 77.8443C279.944 78.2257 279.914 78.6214 279.933 79.0157C279.933 79.4842 279.844 79.8356 279.844 80.3041C279.748 81.2404 279.538 82.1501 279.222 82.9982C279.113 83.2778 278.962 83.5255 278.779 83.7268C278.596 83.928 278.384 84.0786 278.156 84.1695C277.751 84.2361 277.342 84.1116 277 83.8182C277.356 83.5839 277.711 83.4668 277.8 83.2325C277.874 83.1221 277.929 82.9911 277.96 82.8492C277.991 82.7073 277.997 82.558 277.978 82.4125C278.067 81.7097 278.067 80.8898 278.156 79.9528C278.244 79.4842 278.244 79.0157 278.333 78.6643C278.404 78.1594 278.555 77.6802 278.778 77.2587C278.888 76.9695 279.052 76.7215 279.253 76.5373C279.455 76.3531 279.689 76.2387 279.933 76.2045C280.038 76.1552 280.15 76.1345 280.261 76.1434C280.372 76.1523 280.481 76.1907 280.58 76.2564C280.68 76.322 280.768 76.4135 280.841 76.5254C280.913 76.6372 280.967 76.7671 281 76.9073Z" fill="#22272E"/>
<path d="M234.996 76.2741C234.996 76.2741 231.609 79.3976 225.587 91.2339C220.77 100.769 216.63 114.989 210.759 122.962C209.543 124.758 208.007 126.268 206.243 127.401C205.089 128.117 203.88 128.722 202.63 129.209C193.748 132.415 181.178 129.949 184.565 115.4C187.953 100.851 210.759 83.1786 218.211 70.3559C225.663 57.5332 235.222 71.5067 234.996 76.2741Z" fill="#F4C2C9"/>
<path d="M209 120.393C207.803 122.417 206.291 124.118 204.556 125.395C203.42 126.202 202.23 126.884 201 127.433" stroke="#F0F4EF" stroke-width="1.8" stroke-linecap="round" stroke-linejoin="round"/>
<path d="M235.419 53.3747C235.419 53.3747 239.238 50.9828 240.582 50.1548C241.926 49.3268 245.038 48.4988 246.17 48.0388C247.302 47.5788 247.443 49.9708 245.534 52.1787C243.624 54.3867 240.229 60.3666 237.895 61.0106C235.56 61.6546 234.287 55.2147 235.419 53.3747Z" fill="#F0F4EF"/>
<path d="M217 73.4546C217 73.4546 221.472 65.6414 222.76 62.7417C225.944 55.734 230.567 52.8343 232.083 51.5455C233.599 50.2568 243.225 48.1625 245.65 47.1959C247.924 46.3099 247.621 48.3236 246.712 49.2096C244.21 51.6261 239.208 52.5926 238.601 53.3176C238.601 53.3176 242.164 52.1899 243.983 51.3844C246.536 50.4747 249.145 49.7482 251.79 49.2096C253.002 48.968 253.76 50.4179 251.79 51.7872C249.819 53.1565 246.257 54.848 245.802 55.1702C245.347 55.4924 241.785 57.8283 241.785 57.8283C241.785 57.8283 245.347 57.8283 246.636 57.7477C247.924 57.6672 250.653 57.8283 251.335 57.8283C253.154 57.8283 253.457 60.2447 249.743 60.8891C246.029 61.5335 243.68 62.5806 241.709 64.2721C239.435 66.2053 242.467 71.6825 233.296 79.1735C233.372 79.1735 219.198 83.6842 217 73.4546Z" fill="#F4C2C9"/>
<path d="M242 57.0327C241.473 57.2391 240.96 57.5386 240.468 57.9267C239.569 58.771 238.739 59.8235 238 61.0556" stroke="#F0F4EF" stroke-width="1.8" stroke-linecap="round" stroke-linejoin="round"/>
<path d="M238 54.0156C238 54.0156 237.073 54.5185 236.418 55.0213C235.888 55.5416 235.409 56.2214 235 57.0328" stroke="#F0F4EF" stroke-width="1.8" stroke-linecap="round" stroke-linejoin="round"/>
<path d="M218.221 70.1123C219.941 70.0281 225.857 70.7863 228.952 83.2559C229 83.4112 229.012 83.5793 228.988 83.7425C228.964 83.9057 228.904 84.0578 228.815 84.1827L226.132 89.1536C226.12 89.1729 226.104 89.1884 226.086 89.1992C226.068 89.2099 226.049 89.2155 226.029 89.2155C226.009 89.2155 225.989 89.2099 225.971 89.1992C225.953 89.1884 225.938 89.1729 225.926 89.1536C225.444 87.3 222.417 76.0943 215.332 75.336C215.27 75.3306 215.21 75.3055 215.159 75.2632C215.107 75.221 215.066 75.163 215.038 75.095C215.01 75.027 214.997 74.9513 215.001 74.8754C215.004 74.7995 215.023 74.7259 215.057 74.662C215.676 73.5667 216.914 71.4604 217.465 70.6178C217.549 70.4664 217.662 70.3417 217.793 70.2538C217.925 70.166 218.071 70.1175 218.221 70.1123Z" fill="#22272E"/>
<path d="M226.272 77.0871C227.339 75.2193 226.406 72.6565 224.188 71.3629C221.97 70.0693 219.306 70.5348 218.239 72.4027C217.171 74.2705 218.104 76.8333 220.322 78.1269C222.54 79.4205 225.204 78.9549 226.272 77.0871Z" fill="white"/>
<path d="M307 139.501C307 139.501 310.513 138.238 317.026 128.033C323.539 117.828 311.903 127.644 311.245 128.033C310.586 128.422 307 139.501 307 139.501Z" fill="#22272E"/>
<path d="M341.699 138.665C339.571 132.341 332.353 121.476 324.527 111.341C317.917 117.828 311.078 124.152 305 130.962C309.103 134.854 312.75 138.259 312.75 138.259C311.686 138.827 309.711 139.962 307.659 141.016C311.23 147.259 313.814 154.394 314.27 161.529C321.336 161.691 329.314 161.853 333.037 160.232C339.723 157.394 345.726 150.583 341.699 138.665Z" fill="#F4C2C9"/>
<path d="M299.997 145.252C299.997 145.252 298.755 143.275 298.171 142.534C297.587 141.793 294.228 139.241 292.84 137.923C291.453 136.606 290.284 138.5 291.526 140.805C292.767 143.111 293.497 147.063 294.447 148.134C295.396 149.204 300.143 148.216 299.997 145.252Z" fill="#F4C2C9"/>
<path d="M327 117.019C327 117.019 314.659 126.3 306.945 139.501C306.945 139.501 293.833 126.38 291.442 121.899C289.051 117.419 289.282 104.778 294.836 97.5769C300.389 90.3762 305.248 92.5364 305.248 92.5364C313.319 99.8706 320.611 108.078 327 117.019Z" fill="#344966"/>
<path d="M303 135.478C303 135.478 311.368 119.583 324 111.341" stroke="#22272E" stroke-width="1.8" stroke-linecap="round" stroke-linejoin="round"/>
<path d="M312 139.501C312 139.501 320.203 130.562 327 132.83" stroke="#F0F4EF" stroke-width="1.8" stroke-linecap="round" stroke-linejoin="round"/>
<path d="M261.074 124.04L296.234 118.411C296.601 118.352 296.976 118.381 297.33 118.494C297.685 118.608 298.008 118.803 298.274 119.065C298.541 119.326 298.743 119.647 298.866 120.001C298.989 120.356 299.028 120.734 298.981 121.107L293.173 161.149C293.095 161.621 292.883 162.059 292.562 162.411C292.242 162.763 291.827 163.013 291.368 163.131L256.915 171.616C256.55 171.706 256.168 171.707 255.803 171.618C255.438 171.529 255.099 171.353 254.814 171.104C254.53 170.856 254.309 170.542 254.169 170.19C254.029 169.837 253.975 169.456 254.011 169.078L257.15 128.243C257.223 127.192 257.654 126.2 258.369 125.433C259.084 124.667 260.04 124.175 261.074 124.04Z" fill="#22272E"/>
<path d="M272.233 121.909L272 125.611C272 126.111 272.388 126.511 272.932 126.411L286.757 123.21C287.028 123.189 287.284 123.048 287.483 122.811C287.681 122.574 287.809 122.255 287.845 121.909L288 119.207C287.993 119.078 287.964 118.952 287.915 118.839C287.866 118.726 287.798 118.628 287.717 118.551C287.636 118.475 287.542 118.423 287.444 118.398C287.345 118.373 287.243 118.376 287.146 118.407L273.398 120.608C273.123 120.643 272.864 120.787 272.655 121.02C272.447 121.253 272.299 121.563 272.233 121.909Z" fill="#344966"/>
<path d="M300.675 143.215C300.675 143.215 296.107 142.06 295.041 142.39C293.975 142.72 290.244 143.215 287.503 143.875C284.762 144.536 279.813 144.288 277.985 145.031C277.748 145.106 277.528 145.234 277.339 145.407C277.15 145.58 276.997 145.794 276.89 146.035C276.782 146.276 276.722 146.539 276.714 146.807C276.706 147.074 276.75 147.341 276.843 147.589C276.843 147.589 274.939 147.177 274.33 148.249C273.417 149.817 275.32 150.808 275.32 150.808C273.797 150.313 272.503 151.386 273.188 152.954C273.721 154.109 276.234 155.842 278.442 156.998C280.556 157.997 282.716 158.879 284.914 159.639C284.914 159.639 282.934 159.391 280.574 159.143C278.366 158.978 277.376 160.134 278.67 161.454C279.965 162.775 287.96 165.251 290.929 164.508C293.899 163.765 297.173 161.784 301.589 160.546C303.492 160.051 308.442 160.216 314 160.381C313.543 153.119 311.031 145.856 307.376 139.501C304.102 141.399 300.675 143.215 300.675 143.215Z" fill="#F4C2C9"/>
<path d="M275 149.558C275 149.558 278.984 152.063 282.266 153.657C285.547 155.251 289.063 155.023 290 155.593" stroke="#F0F4EF" stroke-width="1.8" stroke-linecap="round" stroke-linejoin="round"/>
<path d="M284 159.615C284 159.615 287.22 162.758 289 161.187" stroke="#F0F4EF" stroke-width="1.8" stroke-linecap="round" stroke-linejoin="round"/>
<path d="M277 147.547C278.95 149.07 280.965 150.21 283.017 150.951C285.469 151.57 289.48 151.57 290 151.57" stroke="#F0F4EF" stroke-width="1.8" stroke-linecap="round" stroke-linejoin="round"/>
<path d="M261.5 109.33C261.776 109.33 262 108.429 262 107.318C262 106.207 261.776 105.307 261.5 105.307C261.224 105.307 261 106.207 261 107.318C261 108.429 261.224 109.33 261.5 109.33Z" fill="#22272E"/>
<path d="M259 102.29C259 102.29 259 104.711 259 115.364" stroke="#22272E" stroke-width="1.8" stroke-linecap="round" stroke-linejoin="round"/>
<path d="M84.7516 193.81L83 344.744C82.9962 345.511 83.2659 346.25 83.7509 346.8C84.2359 347.35 84.8973 347.667 85.5924 347.683C86.2696 347.69 86.9216 347.401 87.407 346.879C87.8924 346.358 88.1718 345.646 88.1847 344.898L94 193.81H84.7516Z" fill="#B0D7C0"/>
<path d="M167.045 76.1414L168 137.304C168.002 137.615 167.855 137.915 167.59 138.137C167.326 138.36 166.965 138.489 166.586 138.495C166.217 138.498 165.861 138.381 165.596 138.17C165.331 137.958 165.179 137.67 165.172 137.367L162 76.1414H167.045Z" fill="#B0D7C0"/>
<path d="M94 193.81H85.1333L85 206.884H93.6L94 193.81Z" fill="#344966"/>
<path d="M166.926 76.1414H162L162.222 83.1813H167L166.926 76.1414Z" fill="#344966"/>
<path d="M126.611 190.871L125.001 305.256C124.993 305.547 125.048 305.836 125.165 306.106C125.281 306.376 125.456 306.622 125.678 306.827C125.9 307.033 126.164 307.195 126.456 307.302C126.747 307.41 127.06 307.462 127.373 307.454C127.986 307.447 128.572 307.224 129.013 306.83C129.454 306.436 129.716 305.901 129.746 305.335L135 190.792H126.611V190.871Z" fill="#B0D7C0"/>
<path d="M381.55 190.871L382.999 305.256C383.007 305.547 382.956 305.836 382.852 306.106C382.747 306.376 382.59 306.622 382.39 306.827C382.19 307.033 381.952 307.195 381.69 307.302C381.427 307.41 381.146 307.462 380.864 307.454C380.313 307.447 379.785 307.224 379.388 306.83C378.992 306.436 378.756 305.901 378.728 305.335L374 190.792H381.55V190.871Z" fill="#B0D7C0"/>
<path d="M446 191.798H64L110.188 161.627H399.812L446 191.798Z" fill="white"/>
<path d="M446 189.787H64V198.838H446V189.787Z" fill="#B0D7C0"/>
<path d="M155 162.633L178.667 181.653L183.706 181.741L216 165.021L155 162.633Z" fill="#63737A"/>
<path d="M184 181.657L187.026 181.737C188.539 181.782 190.041 181.456 191.413 180.784L214.482 169.275C214.959 169.052 215.359 168.682 215.63 168.214C215.9 167.746 216.028 167.202 215.995 166.655H215.919L184 181.657Z" fill="#22272E"/>
<path d="M106.099 178.513L185.451 181.739C185.978 181.757 186.501 181.648 186.981 181.421C187.461 181.193 187.884 180.853 188.219 180.427C188.553 180.002 188.79 179.501 188.91 178.964C189.03 178.428 189.03 177.869 188.911 177.332L177.554 128.621C177.218 127.228 176.455 125.989 175.382 125.093C174.309 124.198 172.984 123.696 171.612 123.663L92.5602 122.404C92.172 122.4 91.7882 122.489 91.4382 122.665C91.0882 122.841 90.7815 123.098 90.5416 123.418C90.3018 123.737 90.1353 124.11 90.0549 124.507C89.9745 124.904 89.9825 125.316 90.0781 125.709L102.865 175.758C103.038 176.526 103.45 177.212 104.035 177.711C104.619 178.209 105.345 178.491 106.099 178.513Z" fill="#22272E"/>
<path d="M141.93 156.318C143.545 154.212 142.49 150.653 139.572 148.369C136.654 146.086 132.978 145.942 131.363 148.048C129.747 150.154 130.803 153.712 133.721 155.996C136.639 158.28 140.314 158.424 141.93 156.318Z" fill="#63737A"/>
<path d="M115.327 93.2384L65.2772 92.1813C64.8341 92.1631 64.409 91.9711 64.0695 91.6358C63.7301 91.3006 63.4958 90.8414 63.4041 90.3315L60.0324 71.3927C59.9836 71.1097 59.99 70.8175 60.051 70.5379C60.112 70.2582 60.2261 69.9985 60.3847 69.7781C60.5433 69.5577 60.7423 69.3824 60.9668 69.2654C61.1913 69.1484 61.4354 69.0927 61.6808 69.1024L111.731 70.1595C112.174 70.1777 112.599 70.3697 112.938 70.7049C113.278 71.0402 113.512 71.4994 113.604 72.0093L116.975 90.9481C117.017 91.23 117.006 91.5191 116.942 91.7952C116.878 92.0713 116.764 92.3276 116.606 92.546C116.449 92.7644 116.253 92.9396 116.032 93.0592C115.811 93.1789 115.57 93.24 115.327 93.2384Z" fill="#F4C2C9"/>
<path d="M76.5936 80.4483C77.3647 79.5564 76.7584 77.7472 75.2395 76.4073C73.7205 75.0675 71.864 74.7044 71.0929 75.5963C70.3218 76.4882 70.928 78.2973 72.447 79.6372C73.966 80.977 75.8225 81.3401 76.5936 80.4483Z" fill="#22272E"/>
<path d="M76.5598 87.1937L72.2406 87.0959C71.7422 87.0527 71.2666 86.7823 70.884 86.3244C70.5014 85.8665 70.232 85.2454 70.1154 84.5525C69.983 83.8956 69.9642 83.2026 70.0607 82.5331C70.1572 81.8636 70.3661 81.2374 70.6695 80.7084C70.9728 80.1793 71.3616 79.7632 71.8024 79.4956C72.2432 79.2281 72.723 79.1171 73.2004 79.1722C74.2987 79.2781 75.3461 79.8732 76.1947 80.8736C77.0434 81.874 77.6507 83.2292 77.9309 84.7482C78.0012 85.0436 78.0182 85.3595 77.9804 85.6669C77.9426 85.9742 77.8512 86.2629 77.7146 86.5066C77.578 86.7502 77.4006 86.9409 77.1988 87.0609C76.9969 87.181 76.7772 87.2267 76.5598 87.1937Z" fill="#22272E"/>
<path d="M97.3846 85.1928L83.9937 84.7016C83.8477 84.6879 83.7081 84.567 83.5981 84.3586C83.4881 84.1503 83.4141 83.8671 83.3885 83.5556L83.0102 79.79C82.9939 79.5946 82.9972 79.3938 83.0197 79.2013C83.0423 79.0088 83.0836 78.8289 83.1409 78.6738C83.1983 78.5188 83.2703 78.392 83.3521 78.3022C83.434 78.2123 83.5238 78.1614 83.6154 78.1528L97.0063 78.644C97.1523 78.6577 97.2919 78.7787 97.4019 78.987C97.5119 79.1954 97.5859 79.4786 97.6115 79.79L97.9898 83.5556C98.0061 83.7511 98.0028 83.9518 97.9803 84.1443C97.9577 84.3369 97.9164 84.5167 97.8591 84.6718C97.8017 84.8269 97.7297 84.9536 97.6479 85.0435C97.566 85.1333 97.4762 85.1843 97.3846 85.1928Z" fill="#344966"/>
<path d="M102 78.1528L108 86.1985" stroke="#22272E" stroke-width="1.8" stroke-linecap="round" stroke-linejoin="round"/>
<path d="M107 78.1528L103 86.1985" stroke="#22272E" stroke-width="1.8" stroke-linecap="round" stroke-linejoin="round"/>
<path d="M167.356 120.393L118.185 119.38C117.749 119.362 117.332 119.178 116.998 118.857C116.665 118.536 116.434 118.096 116.344 117.607L113.032 99.4571C112.984 99.186 112.99 98.9059 113.05 98.6379C113.11 98.3699 113.222 98.121 113.378 97.9098C113.534 97.6986 113.729 97.5306 113.95 97.4185C114.17 97.3063 114.41 97.2529 114.651 97.2623L163.823 98.2753C164.258 98.2928 164.676 98.4768 165.01 98.7981C165.343 99.1193 165.573 99.5594 165.663 100.048L168.976 118.198C169.017 118.468 169.006 118.745 168.943 119.01C168.88 119.274 168.768 119.52 168.613 119.729C168.459 119.938 168.266 120.106 168.049 120.221C167.832 120.336 167.596 120.394 167.356 120.393Z" fill="#B4CDEC"/>
<path d="M128.585 107.686C129.356 106.794 128.75 104.985 127.231 103.645C125.712 102.305 123.856 101.942 123.085 102.834C122.314 103.726 122.92 105.535 124.439 106.875C125.958 108.215 127.814 108.578 128.585 107.686Z" fill="#22272E"/>
<path d="M129.38 115.352L124.521 115.242C123.96 115.194 123.425 114.89 122.995 114.374C122.564 113.859 122.261 113.161 122.13 112.381C121.981 111.642 121.96 110.862 122.068 110.109C122.177 109.356 122.412 108.652 122.753 108.056C123.094 107.461 123.532 106.993 124.028 106.692C124.524 106.391 125.063 106.266 125.601 106.328C126.836 106.447 128.014 107.117 128.969 108.242C129.924 109.368 130.607 110.892 130.922 112.601C131.001 112.934 131.02 113.289 130.978 113.635C130.935 113.98 130.833 114.305 130.679 114.579C130.525 114.854 130.326 115.068 130.099 115.203C129.872 115.338 129.624 115.39 129.38 115.352Z" fill="#22272E"/>
<path d="M148.426 111.341L135.927 110.99C135.791 110.981 135.661 110.894 135.558 110.745C135.456 110.597 135.387 110.394 135.363 110.172L135.01 107.482C134.994 107.343 134.997 107.199 135.018 107.062C135.039 106.924 135.078 106.796 135.132 106.685C135.185 106.574 135.252 106.484 135.329 106.419C135.405 106.355 135.489 106.319 135.574 106.313L148.073 106.664C148.209 106.673 148.339 106.76 148.442 106.909C148.544 107.057 148.613 107.26 148.637 107.482L148.99 110.172C149.006 110.311 149.003 110.455 148.982 110.592C148.961 110.73 148.922 110.858 148.868 110.969C148.815 111.08 148.748 111.17 148.671 111.235C148.595 111.299 148.511 111.335 148.426 111.341Z" fill="#344966"/>
<path d="M154 105.307L161 112.347" stroke="#22272E" stroke-width="1.8" stroke-linecap="round" stroke-linejoin="round"/>
<path d="M160 105.307L155 112.347" stroke="#22272E" stroke-width="1.8" stroke-linecap="round" stroke-linejoin="round"/>
<path d="M75 91.2271L77.664 105.064C77.83 105.962 78.2718 106.769 78.9147 107.349C79.5576 107.928 80.3621 108.245 81.192 108.245L84 108.324" stroke="#22272E" stroke-width="1.8" stroke-linecap="round" stroke-linejoin="round"/>
<path d="M102 107.318L114 109.33" stroke="#22272E" stroke-width="1.8" stroke-linecap="round" stroke-linejoin="round"/>
<path d="M101.761 102.265L99.0242 105.406C98.8883 105.566 98.7101 105.677 98.5141 105.722C98.318 105.768 98.1137 105.746 97.9294 105.661C97.3491 105.37 96.7008 105.28 96.0717 105.401C95.4426 105.522 94.8628 105.85 94.4104 106.34L91.3605 109.821C90.9108 110.333 90.6229 110.988 90.5386 111.69C90.4542 112.392 90.5778 113.105 90.8913 113.726C90.9834 113.917 91.0178 114.135 90.9897 114.348C90.9617 114.561 90.8725 114.759 90.7349 114.915L87.9979 118.056C87.8867 118.189 87.7443 118.286 87.5861 118.339C87.4278 118.391 87.2594 118.395 87.099 118.351C86.9386 118.308 86.792 118.218 86.6749 118.091C86.5578 117.964 86.4745 117.806 86.4339 117.631L86.1993 116.443C85.9218 115.233 85.9343 113.965 86.2354 112.761C86.5365 111.558 87.1164 110.458 87.9197 109.566L94.0193 102.604C94.814 101.706 95.8009 101.034 96.8923 100.649C97.9837 100.264 99.1458 100.177 100.275 100.397L101.37 100.652C101.515 100.703 101.646 100.794 101.751 100.914C101.856 101.035 101.931 101.182 101.97 101.343C102.009 101.503 102.01 101.672 101.974 101.833C101.937 101.994 101.864 102.142 101.761 102.265Z" fill="#22272E"/>
<path d="M228 37.1903C228 37.1903 224.765 41.1044 220.426 37.1903C216.088 33.2761 221.676 25.7741 223.441 27.8127C225.206 29.8513 215.721 33.8469 215.426 28.7096C215.132 23.5724 220.426 23.2462 213 16.8042" stroke="#344966" stroke-width="1.8" stroke-linecap="round" stroke-linejoin="round"/>
<path d="M254.228 28.8728C254.228 28.8728 259.787 26.9367 257.796 22.5804C255.804 18.2241 250.66 22.5804 254.228 22.5804C257.796 22.5804 260.368 18.8695 258.21 13.7871" stroke="#344966" stroke-width="1.8" stroke-linecap="round" stroke-linejoin="round"/>
<path d="M288 38.1914C288 38.1914 294.073 41.0477 292.463 35.5255C290.854 30.0033 291 28.0991 294.732 30.2889C298.463 32.4788 298.683 27.9086 300 26.8613" stroke="#344966" stroke-width="1.8" stroke-linecap="round" stroke-linejoin="round"/>
<path d="M320.445 64.0728L318.243 67.6519C318.086 67.9273 318 68.2805 318 68.6461C318 69.0118 318.086 69.365 318.243 69.6403C318.404 69.8775 318.608 70.0332 318.828 70.0866C319.048 70.1399 319.273 70.0883 319.474 69.9386L322 67.5525L320.445 64.0728Z" fill="#22272E"/>
<path d="M343.041 70.1069L343.974 75.9893C344.046 76.4431 343.968 76.9123 343.756 77.3C343.544 77.6877 343.214 77.9643 342.834 78.0726C342.49 78.2024 342.117 78.1735 341.79 77.9917C341.464 77.8098 341.207 77.4885 341.072 77.0922L339 72.0677L343.041 70.1069Z" fill="#22272E"/>
<path d="M335 75.1356C344.389 75.1356 352 67.0307 352 57.0327C352 47.0348 344.389 38.9299 335 38.9299C325.611 38.9299 318 47.0348 318 57.0327C318 67.0307 325.611 75.1356 335 75.1356Z" fill="#344966"/>
<path d="M335 70.1071C341.075 70.1071 346 64.7038 346 58.0385C346 51.3732 341.075 45.97 335 45.97C328.925 45.97 324 51.3732 324 58.0385C324 64.7038 328.925 70.1071 335 70.1071Z" fill="#B4CDEC"/>
<path d="M338 62.0614L335 57.4221L336.537 50.9985" stroke="#63737A" stroke-width="1.8" stroke-linecap="round" stroke-linejoin="round"/>
<path d="M323.173 41.8772C323.061 41.9317 322.942 41.9547 322.823 41.9448C322.705 41.9349 322.589 41.8923 322.484 41.8199C322.379 41.7474 322.287 41.6467 322.214 41.5246C322.141 41.4025 322.09 41.2618 322.063 41.1118C321.884 39.6975 322.089 38.2467 322.643 37.0057C323.198 35.7646 324.067 34.8096 325.104 34.3027C326.14 33.7958 327.281 33.7682 328.331 34.2246C329.382 34.681 330.278 35.5932 330.868 36.8066C330.937 36.9393 330.98 37.0914 330.995 37.2502C331.009 37.409 330.994 37.57 330.951 37.7197C330.907 37.8694 330.837 38.0035 330.745 38.111C330.653 38.2184 330.543 38.296 330.424 38.3373L323.173 41.8772Z" fill="#344966"/>
<path d="M353.327 49.5778C353.403 49.6981 353.502 49.7977 353.618 49.8692C353.733 49.9407 353.861 49.9823 353.993 49.991C354.124 49.9996 354.256 49.9751 354.378 49.9191C354.499 49.8632 354.609 49.7773 354.697 49.6679C355.493 48.6573 355.952 47.3699 355.997 46.024C356.041 44.6781 355.667 43.3566 354.938 42.2837C354.21 41.2061 353.173 40.4398 352 40.1122C350.827 39.7846 349.59 39.9153 348.493 40.4827C348.376 40.5535 348.274 40.6511 348.194 40.7691C348.113 40.8871 348.055 41.0229 348.025 41.1674C347.995 41.312 347.992 41.4621 348.017 41.6079C348.042 41.7537 348.094 41.892 348.171 42.0135L353.327 49.5778Z" fill="#344966"/>
<path d="M343.003 39.8309L338.079 37.9266C337.885 37.8503 337.705 37.7222 337.549 37.55C337.393 37.3778 337.264 37.165 337.17 36.9245C337.077 36.6839 337.02 36.4205 337.005 36.15C336.989 35.8795 337.014 35.6075 337.078 35.3503C337.135 35.0899 337.23 34.8477 337.359 34.638C337.487 34.4283 337.645 34.2555 337.825 34.13C338.004 34.0045 338.2 33.9289 338.402 33.9076C338.603 33.8863 338.806 33.9198 338.997 34.0062L343.921 35.9104C344.115 35.9867 344.295 36.1148 344.451 36.287C344.607 36.4592 344.736 36.672 344.83 36.9125C344.923 37.1531 344.98 37.4165 344.995 37.687C345.011 37.9575 344.986 38.2295 344.922 38.4867C344.865 38.7471 344.77 38.9893 344.641 39.199C344.513 39.4087 344.355 39.5815 344.175 39.707C343.996 39.8325 343.8 39.9081 343.598 39.9294C343.397 39.9507 343.194 39.9172 343.003 39.8309Z" fill="#344966"/>
<path d="M339.109 36.1888L337.883 40.4536L343.006 41.957L344.233 37.6921L339.109 36.1888Z" fill="#344966"/>
<path d="M304.892 21.8817H281.244L278.819 23.6388C278.641 23.7644 278.436 23.835 278.225 23.8434C278.014 23.8518 277.805 23.7977 277.619 23.6867C277.434 23.5757 277.278 23.4118 277.169 23.2121C277.06 23.0124 277.002 22.7842 277 22.5511V4.14342C277.004 3.23495 277.333 2.36493 277.915 1.72254C278.497 1.08014 279.285 0.71729 280.108 0.712891H304.892C305.715 0.71729 306.503 1.08014 307.085 1.72254C307.667 2.36493 307.996 3.23495 308 4.14342V18.5349C307.967 19.4253 307.627 20.2682 307.049 20.8905C306.471 21.5129 305.7 21.8675 304.892 21.8817Z" fill="#F4C2C9"/>
<path d="M292 8.75854H300" stroke="#22272E" stroke-width="1.8" stroke-linecap="round" stroke-linejoin="round"/>
<path d="M292 12.7815H298" stroke="#22272E" stroke-width="1.8" stroke-linecap="round" stroke-linejoin="round"/>
<path d="M289 8.75854H283V14.7928H289V8.75854Z" stroke="#22272E" stroke-width="1.8" stroke-linecap="round" stroke-linejoin="round"/>
<path d="M314 170.678C312.131 174.259 309.392 176.67 306.341 177.42C305.885 177.557 305.421 177.636 304.956 177.657C297.459 178.485 292 170.678 292 170.678H314Z" fill="#344966"/>
<path d="M349 166.655C349 166.655 346.799 175.871 339.754 177.47C338.665 177.716 337.555 177.78 336.452 177.658H306C306.419 177.642 306.837 177.579 307.247 177.47C309.973 176.798 312.42 174.896 314.145 172.11C315.15 170.498 315.943 168.688 316.493 166.749H349V166.655Z" fill="#22272E"/>
<path d="M439.321 127.422L369.844 122.741C368.767 122.672 367.76 122.175 367.042 121.357C366.323 120.539 365.951 119.466 366.005 118.371L369.537 48.3824C369.595 47.0681 370.09 45.8126 370.94 44.8208C371.791 43.8289 372.947 43.1591 374.22 42.9206L445.078 28.954C445.697 28.8282 446.336 28.8488 446.946 29.0142C447.556 29.1795 448.12 29.4852 448.595 29.9076C449.07 30.33 449.443 30.8577 449.685 31.45C449.927 32.0423 450.032 32.6833 449.992 33.3234L444.311 123.053C444.209 124.301 443.628 125.458 442.695 126.275C441.762 127.092 440.55 127.504 439.321 127.422Z" fill="#63737A"/>
<path d="M437.448 127.425L368.798 122.744C367.734 122.675 366.739 122.178 366.029 121.36C365.319 120.542 364.951 119.469 365.005 118.374L368.495 48.383C368.552 47.0686 369.041 45.8132 369.881 44.8213C370.722 43.8294 371.864 43.1595 373.122 42.921L443.137 28.954C443.748 28.8282 444.38 28.8488 444.982 29.0142C445.585 29.1795 446.142 29.4852 446.612 29.9076C447.081 30.33 447.449 30.8578 447.689 31.4501C447.928 32.0424 448.032 32.6834 447.992 33.3236L442.378 123.056C442.264 124.298 441.687 125.447 440.768 126.262C439.849 127.076 438.659 127.493 437.448 127.425Z" fill="#22272E"/>
<path d="M169.152 26.1782L148.644 28.8692C148.56 28.8797 148.475 28.8678 148.395 28.8341C148.315 28.8005 148.242 28.746 148.181 28.6744C148.12 28.6028 148.072 28.5157 148.041 28.4193C148.01 28.3228 147.996 28.2193 148.001 28.1157L148.235 22.4109C148.237 22.2467 148.289 22.0895 148.381 21.9701C148.473 21.8507 148.598 21.7776 148.731 21.7651L169.327 17.8184C169.413 17.8021 169.501 17.8098 169.585 17.8408C169.668 17.8718 169.745 17.9254 169.81 17.9977C169.874 18.07 169.925 18.1591 169.957 18.2584C169.99 18.3578 170.004 18.4649 169.999 18.5718L169.648 25.5324C169.646 25.6967 169.594 25.8538 169.502 25.9733C169.41 26.0927 169.285 26.1658 169.152 26.1782Z" fill="#344966"/>
<path d="M151 20.8271V28.8728" stroke="#22272E" stroke-width="1.8" stroke-linecap="round" stroke-linejoin="round"/>
<path d="M149 22.8386L150 27.8672" stroke="#22272E" stroke-width="1.8" stroke-linecap="round" stroke-linejoin="round"/>
<path d="M150 21.8328L149 27.867" stroke="#22272E" stroke-width="1.8" stroke-linecap="round" stroke-linejoin="round"/>
<path d="M153 23.8443L167 20.8271" stroke="#22272E" stroke-width="1.8" stroke-linecap="round" stroke-linejoin="round"/>
<path d="M153 26.8615L161 22.8386" stroke="#22272E" stroke-width="1.8" stroke-linecap="round" stroke-linejoin="round"/>
<path d="M429.63 89.8296L376.532 92.2309C376.323 92.2422 376.114 92.2009 375.919 92.1097C375.724 92.0186 375.549 91.8798 375.404 91.7028C375.259 91.5257 375.149 91.3145 375.08 91.0834C375.012 90.8523 374.987 90.6067 375.007 90.3632L375.617 76.3115C375.633 75.8845 375.781 75.4787 376.033 75.1684C376.286 74.8581 376.625 74.664 376.99 74.6217L430.392 69.1077C430.608 69.086 430.824 69.1195 431.027 69.2057C431.23 69.2918 431.414 69.4287 431.567 69.6067C431.719 69.7846 431.837 69.9993 431.911 70.2358C431.984 70.4722 432.013 70.7247 431.994 70.9754L431.079 88.0509C431.08 88.5077 430.929 88.9471 430.659 89.2782C430.39 89.6094 430.021 89.8068 429.63 89.8296Z" fill="#F4C2C9"/>
<path d="M151 28.8728V37.9242" stroke="#22272E" stroke-width="1.8" stroke-linecap="round" stroke-linejoin="round"/>
<path d="M149 30.8843L150 35.9128" stroke="#22272E" stroke-width="1.8" stroke-linecap="round" stroke-linejoin="round"/>
<path d="M150 30.8843L149 35.9128" stroke="#22272E" stroke-width="1.8" stroke-linecap="round" stroke-linejoin="round"/>
<path d="M153 32.8956L167 29.8784" stroke="#22272E" stroke-width="1.8" stroke-linecap="round" stroke-linejoin="round"/>
<path d="M152 35.9127L160 31.8899" stroke="#22272E" stroke-width="1.8" stroke-linecap="round" stroke-linejoin="round"/>
<path d="M427.58 113.353L375.438 111.698C375.239 111.688 375.045 111.634 374.865 111.541C374.685 111.448 374.524 111.317 374.391 111.156C374.257 110.994 374.154 110.806 374.088 110.601C374.021 110.396 373.992 110.178 374.002 109.961L374.607 96.9739C374.644 96.5713 374.808 96.1952 375.069 95.909C375.331 95.6228 375.674 95.4438 376.042 95.4022L428.487 94.2441C428.692 94.2439 428.895 94.2892 429.083 94.3775C429.272 94.4657 429.442 94.5951 429.583 94.7576C429.724 94.9201 429.834 95.1123 429.906 95.3227C429.977 95.5331 430.008 95.7571 429.998 95.9813L429.091 111.781C429.072 112.205 428.904 112.605 428.623 112.898C428.341 113.19 427.968 113.353 427.58 113.353Z" fill="#B4CDEC"/>
<path d="M151 37.9243L150 45.97" stroke="#22272E" stroke-width="1.8" stroke-linecap="round" stroke-linejoin="round"/>
<path d="M148 38.9299L150 43.9585" stroke="#22272E" stroke-width="1.8" stroke-linecap="round" stroke-linejoin="round"/>
<path d="M150 38.9299L148 43.9585" stroke="#22272E" stroke-width="1.8" stroke-linecap="round" stroke-linejoin="round"/>
<path d="M152 41.947L166 39.9355" stroke="#22272E" stroke-width="1.8" stroke-linecap="round" stroke-linejoin="round"/>
<path d="M152 40.9414L160 42.9528" stroke="#22272E" stroke-width="1.8" stroke-linecap="round" stroke-linejoin="round"/>
<path d="M134.989 83.0879L124.039 29.1744C123.982 28.8922 123.988 28.6003 124.054 28.3205C124.121 28.0407 124.247 27.7801 124.424 27.5579C124.6 27.3358 124.822 27.1579 125.074 27.0374C125.325 26.9168 125.6 26.8568 125.876 26.8616H177.414C178.128 26.8687 178.818 27.1357 179.363 27.6163C179.908 28.0969 180.275 28.7609 180.4 29.4935L188.977 83.9652C189.019 84.2415 189.003 84.524 188.93 84.7933C188.857 85.0625 188.729 85.3119 188.554 85.5244C188.379 85.7368 188.162 85.9071 187.918 86.0234C187.673 86.1398 187.408 86.1995 187.139 86.1983L137.976 85.5603C137.279 85.5773 136.598 85.3391 136.053 84.8874C135.507 84.4356 135.131 83.7989 134.989 83.0879Z" fill="#B0D7C0"/>
<path d="M133.82 84.1464L123.038 31.1467C122.983 30.8692 122.988 30.5823 123.053 30.3072C123.119 30.0322 123.243 29.776 123.417 29.5576C123.591 29.3393 123.81 29.1644 124.057 29.0459C124.305 28.9274 124.575 28.8683 124.848 28.8731H175.592C176.295 28.8801 176.974 29.1425 177.511 29.615C178.048 30.0874 178.409 30.7402 178.533 31.4603L186.977 85.0088C187.019 85.2804 187.003 85.5582 186.931 85.8228C186.859 86.0875 186.733 86.3327 186.561 86.5415C186.389 86.7504 186.175 86.9177 185.934 87.0322C185.694 87.1466 185.432 87.2052 185.168 87.2041L136.761 86.5769C136.079 86.5773 135.416 86.3372 134.882 85.8958C134.348 85.4544 133.974 84.8377 133.82 84.1464Z" fill="#344966"/>
<path d="M139.801 79.6876L131 34.907H172.122L179 80.164L139.801 79.6876Z" stroke="#22272E" stroke-width="1.8" stroke-linecap="round" stroke-linejoin="round"/>
<path d="M143 34.907L152 80.164" stroke="#22272E" stroke-width="1.8" stroke-linecap="round" stroke-linejoin="round"/>
<path d="M133 45.97H175" stroke="#22272E" stroke-width="1.8" stroke-linecap="round" stroke-linejoin="round"/>
<path d="M135 56.0271H176" stroke="#22272E" stroke-width="1.8" stroke-linecap="round" stroke-linejoin="round"/>
<path d="M138 68.0957L178 70.1071" stroke="#22272E" stroke-width="1.8" stroke-linecap="round" stroke-linejoin="round"/>
<path d="M151 39.9355H167" stroke="#22272E" stroke-width="1.8" stroke-linecap="round" stroke-linejoin="round"/>
<path d="M152 50.9985H169" stroke="#22272E" stroke-width="1.8" stroke-linecap="round" stroke-linejoin="round"/>
<path d="M154 63.0671L171 65.0786" stroke="#22272E" stroke-width="1.8" stroke-linecap="round" stroke-linejoin="round"/>
<path d="M158 72.1184L173 75.1355" stroke="#22272E" stroke-width="1.8" stroke-linecap="round" stroke-linejoin="round"/>
<path d="M135 37.9243L141 45.97" stroke="#F4C2C9" stroke-width="1.8" stroke-linecap="round" stroke-linejoin="round"/>
<path d="M140 37.9243L136 45.97" stroke="#F4C2C9" stroke-width="1.8" stroke-linecap="round" stroke-linejoin="round"/>
<path d="M139 60.0498L145 66.0841" stroke="#F4C2C9" stroke-width="1.8" stroke-linecap="round" stroke-linejoin="round"/>
<path d="M144 60.0498L140 66.0841" stroke="#F4C2C9" stroke-width="1.8" stroke-linecap="round" stroke-linejoin="round"/>
<path d="M141 70.1069L148 78.1526" stroke="#F4C2C9" stroke-width="1.8" stroke-linecap="round" stroke-linejoin="round"/>
<path d="M147 70.1069L143 78.1526" stroke="#F4C2C9" stroke-width="1.8" stroke-linecap="round" stroke-linejoin="round"/>
<path d="M138 52.1299L140.055 56.027L143 48.9871" stroke="#B4CDEC" stroke-width="1.8" stroke-linecap="round" stroke-linejoin="round"/>
<path d="M376 125.712C376 125.712 376.072 117.884 374.255 113.353C374.255 113.353 354.634 117.39 351 119.779C351 119.779 354.27 123.487 355.288 128.019C356.305 132.551 375.854 133.375 376 125.712Z" fill="white"/>
<path d="M378.09 131.151C378.09 131.151 379.389 116.418 380 113.353C380 113.353 363.266 114.885 357 118.888L358.681 134.472L378.09 131.151Z" fill="#F4C2C9"/>
<path d="M155.953 56.7863C155.953 56.7863 155.922 51.5043 157 48.9871C157 48.9871 150.656 49.1521 149.24 50.2663C147.823 51.3805 148.008 56.745 148.008 56.745C148.008 56.745 155.676 57.364 155.953 56.7863Z" fill="white"/>
<path d="M157 54.0156H150V74.1299H157V54.0156Z" fill="#344966"/>
<path d="M153 71.1127C153.552 71.1127 154 70.2121 154 69.1013C154 67.9904 153.552 67.0898 153 67.0898C152.448 67.0898 152 67.9904 152 69.1013C152 70.2121 152.448 71.1127 153 71.1127Z" stroke="#22272E" stroke-width="1.8" stroke-linecap="round" stroke-linejoin="round"/>
<path d="M365 185.764V123.41L354 126.072V179.23L365 185.764Z" fill="#344966"/>
<path d="M382 123.41H365V185.764H382V123.41Z" fill="#B4CDEC"/>
<path d="M373 178.724C374.657 178.724 376 176.698 376 174.198C376 171.699 374.657 169.673 373 169.673C371.343 169.673 370 171.699 370 174.198C370 176.698 371.343 178.724 373 178.724Z" stroke="#22272E" stroke-width="1.8" stroke-linecap="round" stroke-linejoin="round"/>
<path d="M368 160.621H376" stroke="#22272E" stroke-width="1.8" stroke-linecap="round" stroke-linejoin="round"/>
<path d="M368 162.633H376" stroke="#22272E" stroke-width="1.8" stroke-linecap="round" stroke-linejoin="round"/>
</svg>
