<svg width="1005" height="786" viewBox="0 0 1005 786" fill="none" xmlns="http://www.w3.org/2000/svg">
<rect width="1005" height="786" fill="white"/>
<path d="M871.704 633.114L115.479 611.379C98.4756 610.905 82.2279 604.229 69.7795 592.602C57.3311 580.974 49.5361 565.193 47.8548 548.215L11.3523 186.448C10.3805 176.764 11.4244 166.983 14.4178 157.726C17.4112 148.468 22.2889 139.935 28.7419 132.666C35.1949 125.398 43.0826 119.554 51.9051 115.503C60.7276 111.452 70.2927 109.284 79.9944 109.135L921.732 97.4646C931.741 97.3289 941.664 99.3448 950.832 103.377C960 107.409 968.201 113.364 974.884 120.84C981.566 128.317 986.574 137.142 989.572 146.723C992.57 156.303 993.488 166.416 992.264 176.382L943.255 571.555C941.071 588.892 932.537 604.796 919.313 616.173C906.089 627.55 889.12 633.588 871.704 633.114Z" fill="#EAF9F3"/>
<mask id="mask0_325_17" style="mask-type:luminance" maskUnits="userSpaceOnUse" x="11" y="98" width="982" height="536">
<path d="M871.704 633.604L115.479 611.874C98.4756 611.401 82.2279 604.727 69.7795 593.102C57.3311 581.478 49.5361 565.701 47.8548 548.727L11.3523 187.051C10.3805 177.369 11.4244 167.591 14.4178 158.336C17.4112 149.08 22.2889 140.549 28.7419 133.283C35.1949 126.016 43.0826 120.173 51.9051 116.124C60.7276 112.074 70.2927 109.906 79.9944 109.757L921.732 98.0898C931.741 97.9541 941.664 99.9696 950.832 104.001C960 108.032 968.201 113.985 974.884 121.46C981.566 128.934 986.574 137.757 989.572 147.336C992.57 156.914 993.488 167.024 992.264 176.988L943.255 572.061C941.071 589.394 932.537 605.293 919.313 616.667C906.089 628.042 889.12 634.079 871.704 633.604Z" fill="white"/>
</mask>
<g mask="url(#mask0_325_17)">
<path d="M645.272 650.813L647.89 709.877C647.89 715.679 645.592 721.243 641.501 725.345C637.41 729.448 631.861 731.752 626.076 731.752H21.6768C15.8913 731.752 10.3427 729.448 6.25179 725.345C2.16083 721.243 -0.137451 715.679 -0.137451 709.877V366.139C-0.137451 360.337 2.16083 354.773 6.25179 350.67C10.3427 346.568 15.8913 344.263 21.6768 344.263H625.93C631.716 344.263 637.264 346.568 641.355 350.67C645.446 354.773 647.744 360.337 647.744 366.139V598.603" stroke="#B8D8C7" stroke-width="1.8" stroke-linecap="round" stroke-linejoin="round"/>
<path d="M780.666 600.061V261.573C780.666 255.772 782.964 250.207 787.055 246.105C791.146 242.002 796.695 239.698 802.48 239.698H982.811C988.596 239.698 994.145 242.002 998.236 246.105C1002.33 250.207 1004.63 255.772 1004.63 261.573V763.691C1004.63 769.493 1002.33 775.057 998.236 779.159C994.145 783.262 988.596 785.566 982.811 785.566H802.48C796.695 785.566 791.146 783.262 787.055 779.159C782.964 775.057 780.666 769.493 780.666 763.691V654.459" stroke="#B8D8C7" stroke-width="1.8" stroke-linecap="round" stroke-linejoin="round"/>
<path d="M135.257 241.739H4.51758V228.76H135.257C135.602 228.758 135.943 228.824 136.261 228.955C136.58 229.087 136.869 229.28 137.113 229.524C137.356 229.768 137.549 230.058 137.68 230.378C137.811 230.697 137.877 231.039 137.875 231.385V238.968C137.904 239.327 137.857 239.688 137.737 240.027C137.618 240.367 137.429 240.677 137.182 240.938C136.935 241.2 136.636 241.406 136.304 241.544C135.973 241.682 135.616 241.748 135.257 241.739Z" stroke="#B8D8C7" stroke-width="1.8" stroke-linecap="round" stroke-linejoin="round"/>
<path d="M115.334 344.263H85.8123C84.2742 344.267 82.788 343.705 81.6354 342.684C80.4829 341.662 79.744 340.252 79.5589 338.721L77.232 317.72C77.1361 316.839 77.2262 315.947 77.4967 315.103C77.7671 314.259 78.2117 313.482 78.8016 312.821C79.3915 312.161 80.1134 311.633 80.9204 311.271C81.7274 310.909 82.6014 310.721 83.4854 310.72H117.661C118.544 310.723 119.417 310.913 120.223 311.275C121.029 311.638 121.75 312.166 122.339 312.826C122.929 313.486 123.374 314.263 123.645 315.106C123.916 315.949 124.008 316.84 123.914 317.72L121.588 338.721C121.424 340.261 120.692 341.684 119.534 342.71C118.377 343.736 116.879 344.29 115.334 344.263Z" stroke="#B8D8C7" stroke-width="1.8" stroke-linecap="round" stroke-linejoin="round"/>
<path d="M97.1552 310.866C97.1552 310.866 85.5209 309.7 83.1941 293.949C83.1941 293.949 93.6649 297.012 97.0098 304.449C97.0098 304.449 98.464 287.824 106.317 286.22C106.317 286.22 109.807 298.616 104.281 304.741C104.281 304.741 108.499 297.741 119.26 297.887C118.243 300.958 116.493 303.733 114.161 305.97C111.828 308.207 108.986 309.838 105.881 310.72" fill="#B8D8C7"/>
<path d="M909.517 239.698H879.995C878.457 239.702 876.971 239.14 875.818 238.118C874.665 237.097 873.927 235.687 873.742 234.156L871.415 213.155C871.319 212.274 871.409 211.382 871.679 210.538C871.95 209.694 872.394 208.917 872.984 208.256C873.574 207.596 874.296 207.068 875.103 206.706C875.91 206.344 876.784 206.156 877.668 206.155H911.844C912.727 206.158 913.6 206.347 914.406 206.71C915.212 207.073 915.933 207.601 916.522 208.261C917.112 208.921 917.556 209.697 917.828 210.541C918.099 211.384 918.191 212.274 918.097 213.155L915.77 234.156C915.585 235.687 914.846 237.097 913.694 238.118C912.541 239.14 911.055 239.702 909.517 239.698Z" stroke="#B8D8C7" stroke-width="1.8" stroke-linecap="round" stroke-linejoin="round"/>
<path d="M891.192 206.301C891.192 206.301 879.557 205.134 877.23 189.384C877.23 189.384 887.701 192.447 891.046 199.884C891.046 199.884 892.5 183.259 900.354 181.655C900.354 181.655 903.844 194.051 898.318 200.176C898.318 200.176 902.535 193.176 913.297 193.322C912.28 196.393 910.529 199.168 908.197 201.405C905.865 203.642 903.022 205.273 899.917 206.155" fill="#B8D8C7"/>
<path d="M621.424 416.745H490.248C488.631 416.733 487.084 416.084 485.941 414.938C484.798 413.792 484.151 412.24 484.14 410.619V370.66C484.151 369.039 484.798 367.488 485.941 366.341C487.084 365.195 488.631 364.546 490.248 364.535H621.424C623.04 364.546 624.587 365.195 625.73 366.341C626.873 367.488 627.52 369.039 627.532 370.66V410.619C627.52 412.24 626.873 413.792 625.73 414.938C624.587 416.084 623.04 416.733 621.424 416.745Z" stroke="#B8D8C7" stroke-width="1.8" stroke-linecap="round" stroke-linejoin="round"/>
<path d="M570.814 378.681H540.564C539.991 378.666 539.444 378.431 539.038 378.024C538.632 377.617 538.398 377.069 538.383 376.493C538.398 375.918 538.632 375.37 539.038 374.963C539.444 374.556 539.991 374.321 540.564 374.306H570.814C571.387 374.321 571.934 374.556 572.34 374.963C572.746 375.37 572.98 375.918 572.995 376.493C573.001 376.782 572.949 377.069 572.841 377.338C572.733 377.606 572.573 377.849 572.369 378.054C572.166 378.258 571.923 378.419 571.655 378.527C571.388 378.634 571.102 378.687 570.814 378.681Z" fill="#B8D8C7"/>
<path d="M621.424 483.684H490.248C488.631 483.672 487.084 483.023 485.941 481.877C484.798 480.731 484.151 479.179 484.14 477.558V437.599C484.151 435.978 484.798 434.427 485.941 433.281C487.084 432.134 488.631 431.485 490.248 431.474H621.424C623.04 431.485 624.587 432.134 625.73 433.281C626.873 434.427 627.52 435.978 627.532 437.599V477.558C627.52 479.179 626.873 480.731 625.73 481.877C624.587 483.023 623.04 483.672 621.424 483.684Z" stroke="#B8D8C7" stroke-width="1.8" stroke-linecap="round" stroke-linejoin="round"/>
<path d="M570.814 445.474H540.564C539.991 445.46 539.444 445.224 539.038 444.817C538.632 444.41 538.398 443.862 538.383 443.287C538.398 442.711 538.632 442.163 539.038 441.756C539.444 441.349 539.991 441.114 540.564 441.099H570.814C571.387 441.114 571.934 441.349 572.34 441.756C572.746 442.163 572.98 442.711 572.995 443.287C573.001 443.576 572.949 443.863 572.841 444.131C572.733 444.399 572.573 444.643 572.369 444.847C572.166 445.051 571.923 445.212 571.655 445.32C571.388 445.428 571.102 445.48 570.814 445.474Z" fill="#B8D8C7"/>
<path d="M454.181 416.745H323.004C321.388 416.733 319.841 416.084 318.698 414.938C317.555 413.792 316.908 412.24 316.896 410.619V370.66C316.908 369.039 317.555 367.488 318.698 366.341C319.841 365.195 321.388 364.546 323.004 364.535H454.181C455.797 364.546 457.344 365.195 458.487 366.341C459.63 367.488 460.277 369.039 460.289 370.66V410.619C460.277 412.24 459.63 413.792 458.487 414.938C457.344 416.084 455.797 416.733 454.181 416.745Z" stroke="#B8D8C7" stroke-width="1.8" stroke-linecap="round" stroke-linejoin="round"/>
<path d="M403.718 378.681H373.469C372.895 378.666 372.349 378.431 371.943 378.024C371.537 377.617 371.303 377.069 371.288 376.493C371.303 375.918 371.537 375.37 371.943 374.963C372.349 374.556 372.895 374.321 373.469 374.306H403.718C404.292 374.321 404.839 374.556 405.244 374.963C405.65 375.37 405.885 375.918 405.9 376.493C405.885 377.069 405.65 377.617 405.244 378.024C404.839 378.431 404.292 378.666 403.718 378.681Z" fill="#B8D8C7"/>
<path d="M454.181 483.684H323.004C321.388 483.672 319.841 483.023 318.698 481.877C317.555 480.731 316.908 479.179 316.896 477.558V437.599C316.908 435.978 317.555 434.427 318.698 433.281C319.841 432.134 321.388 431.485 323.004 431.474H454.181C455.797 431.485 457.344 432.134 458.487 433.281C459.63 434.427 460.277 435.978 460.289 437.599V477.558C460.277 479.179 459.63 480.731 458.487 481.877C457.344 483.023 455.797 483.672 454.181 483.684Z" stroke="#B8D8C7" stroke-width="1.8" stroke-linecap="round" stroke-linejoin="round"/>
<path d="M403.718 445.474H373.469C372.895 445.46 372.349 445.224 371.943 444.817C371.537 444.41 371.303 443.862 371.288 443.287C371.303 442.711 371.537 442.163 371.943 441.756C372.349 441.349 372.895 441.114 373.469 441.099H403.718C404.292 441.114 404.839 441.349 405.244 441.756C405.65 442.163 405.885 442.711 405.9 443.287C405.885 443.862 405.65 444.41 405.244 444.817C404.839 445.224 404.292 445.46 403.718 445.474Z" fill="#B8D8C7"/>
<path d="M621.424 549.019H490.248C488.631 549.008 487.084 548.359 485.941 547.212C484.798 546.066 484.151 544.515 484.14 542.894V502.935C484.151 501.314 484.798 499.762 485.941 498.616C487.084 497.47 488.631 496.821 490.248 496.809H621.424C623.04 496.821 624.587 497.47 625.73 498.616C626.873 499.762 627.52 501.314 627.532 502.935V542.894C627.52 544.515 626.873 546.066 625.73 547.212C624.587 548.359 623.04 549.008 621.424 549.019Z" stroke="#B8D8C7" stroke-width="1.8" stroke-linecap="round" stroke-linejoin="round"/>
<path d="M570.814 510.955H540.564C539.991 510.94 539.444 510.705 539.038 510.298C538.632 509.891 538.398 509.343 538.383 508.768C538.398 508.192 538.632 507.644 539.038 507.237C539.444 506.83 539.991 506.595 540.564 506.58H570.814C571.387 506.595 571.934 506.83 572.34 507.237C572.746 507.644 572.98 508.192 572.995 508.768C573.001 509.056 572.949 509.344 572.841 509.612C572.733 509.88 572.573 510.123 572.369 510.328C572.166 510.532 571.923 510.693 571.655 510.801C571.388 510.909 571.102 510.961 570.814 510.955Z" fill="#B8D8C7"/>
<path d="M454.181 549.019H323.004C321.388 549.008 319.841 548.359 318.698 547.212C317.555 546.066 316.908 544.515 316.896 542.894V502.935C316.908 501.314 317.555 499.762 318.698 498.616C319.841 497.47 321.388 496.821 323.004 496.809H454.181C455.797 496.821 457.344 497.47 458.487 498.616C459.63 499.762 460.277 501.314 460.289 502.935V542.894C460.277 544.515 459.63 546.066 458.487 547.212C457.344 548.359 455.797 549.008 454.181 549.019Z" stroke="#B8D8C7" stroke-width="1.8" stroke-linecap="round" stroke-linejoin="round"/>
<path d="M403.718 510.955H373.469C372.895 510.94 372.349 510.705 371.943 510.298C371.537 509.891 371.303 509.343 371.288 508.768C371.303 508.192 371.537 507.644 371.943 507.237C372.349 506.83 372.895 506.595 373.469 506.58H403.718C404.292 506.595 404.839 506.83 405.244 507.237C405.65 507.644 405.885 508.192 405.9 508.768C405.885 509.343 405.65 509.891 405.244 510.298C404.839 510.705 404.292 510.94 403.718 510.955Z" fill="#B8D8C7"/>
<path d="M1044.18 392.535H811.644C809.875 392.516 808.185 391.803 806.934 390.549C805.684 389.295 804.973 387.6 804.954 385.827V269.595C804.973 267.821 805.684 266.126 806.934 264.872C808.185 263.618 809.875 262.905 811.644 262.886H1044.18C1045.95 262.905 1047.64 263.618 1048.89 264.872C1050.14 266.126 1050.85 267.821 1050.87 269.595V385.827C1050.89 386.712 1050.72 387.59 1050.39 388.41C1050.06 389.23 1049.57 389.975 1048.94 390.601C1048.32 391.227 1047.58 391.72 1046.76 392.053C1045.94 392.385 1045.07 392.549 1044.18 392.535Z" stroke="#B8D8C7" stroke-width="1.8" stroke-linecap="round" stroke-linejoin="round"/>
<path d="M1044.18 536.914H811.644C809.875 536.895 808.185 536.182 806.934 534.928C805.684 533.674 804.973 531.979 804.954 530.206V413.973C804.973 412.2 805.684 410.505 806.934 409.251C808.185 407.997 809.875 407.284 811.644 407.265H1044.18C1045.95 407.284 1047.64 407.997 1048.89 409.251C1050.14 410.505 1050.85 412.2 1050.87 413.973V530.206C1050.87 531.087 1050.7 531.96 1050.37 532.775C1050.03 533.59 1049.54 534.33 1048.92 534.954C1048.3 535.577 1047.56 536.071 1046.75 536.407C1045.93 536.744 1045.06 536.916 1044.18 536.914Z" stroke="#B8D8C7" stroke-width="1.8" stroke-linecap="round" stroke-linejoin="round"/>
<path d="M863.996 319.179H849.599V392.535H863.996V319.179Z" stroke="#B8D8C7" stroke-width="1.8" stroke-linecap="round" stroke-linejoin="round"/>
<path d="M878.832 339.305H863.853V392.681H878.832V339.305Z" stroke="#B8D8C7" stroke-width="1.8" stroke-linecap="round" stroke-linejoin="round"/>
<path d="M82.6122 155.404H68.2148V228.76H82.6122V155.404Z" stroke="#B8D8C7" stroke-width="1.8" stroke-linecap="round" stroke-linejoin="round"/>
<path d="M97.4466 175.383H82.4675V228.76H97.4466V175.383Z" stroke="#B8D8C7" stroke-width="1.8" stroke-linecap="round" stroke-linejoin="round"/>
<path d="M53.2355 185.884H38.8381V228.76H53.2355V185.884Z" stroke="#B8D8C7" stroke-width="1.8" stroke-linecap="round" stroke-linejoin="round"/>
<path d="M68.2147 142.862H53.2356V228.614H68.2147V142.862Z" stroke="#B8D8C7" stroke-width="1.8" stroke-linecap="round" stroke-linejoin="round"/>
<path d="M854.981 473.183L856.58 451.453C856.612 451.113 856.57 450.77 856.459 450.447C856.348 450.125 856.169 449.829 855.935 449.581C855.702 449.333 855.418 449.137 855.103 449.007C854.788 448.877 854.449 448.816 854.108 448.828H841.747C841.41 448.83 841.077 448.9 840.768 449.034C840.46 449.168 840.181 449.364 839.95 449.61C839.719 449.855 839.54 450.145 839.424 450.462C839.308 450.779 839.257 451.116 839.275 451.453L840.874 473.183C840.874 473.183 827.786 481.642 827.931 488.642C828.077 494.038 831.276 519.851 832.73 531.226C832.915 532.757 833.654 534.167 834.807 535.189C835.959 536.21 837.446 536.772 838.984 536.768H857.017C858.555 536.772 860.041 536.21 861.194 535.189C862.346 534.167 863.085 532.757 863.27 531.226C864.724 519.851 867.924 494.038 868.069 488.642C868.069 481.642 854.981 473.183 854.981 473.183Z" fill="#B8D8C7"/>
<path d="M925.077 328.951L926.677 307.221C926.708 306.881 926.667 306.538 926.556 306.215C926.444 305.892 926.266 305.597 926.032 305.348C925.798 305.1 925.514 304.905 925.199 304.775C924.884 304.645 924.545 304.584 924.205 304.596H911.698C911.361 304.597 911.028 304.667 910.72 304.802C910.411 304.936 910.132 305.132 909.901 305.377C909.67 305.623 909.491 305.913 909.375 306.23C909.259 306.546 909.208 306.884 909.226 307.221L910.825 328.951C910.825 328.951 897.737 337.409 897.882 344.409C898.028 349.805 901.227 375.618 902.681 386.994C902.867 388.525 903.605 389.935 904.758 390.956C905.911 391.978 907.397 392.54 908.935 392.536H926.968C928.506 392.54 929.992 391.978 931.145 390.956C932.297 389.935 933.036 388.525 933.221 386.994C934.676 375.618 937.875 349.805 938.02 344.409C938.166 337.409 925.077 328.951 925.077 328.951Z" fill="#B8D8C7"/>
<path d="M19.6416 591.749L1042 602.978" stroke="#B8D8C7" stroke-width="1.8" stroke-linecap="round" stroke-linejoin="round"/>
</g>
<path d="M557.741 72.996C551.984 85.1096 538.698 93.1366 529.397 90.6555C521.277 88.4663 519.801 78.9798 524.968 69.4933C529.987 60.4447 540.026 53.1474 548.736 53.0014C558.332 52.7095 563.056 61.4663 557.741 72.996Z" fill="#F0F4EF"/>
<path d="M555.628 70.8784C549.87 82.9919 536.584 91.019 527.283 88.5379C519.164 86.3487 517.687 76.8622 522.854 67.3757C527.874 58.3271 537.912 51.0297 546.622 50.8838C556.218 50.5919 560.942 59.3487 555.628 70.8784Z" fill="#344966"/>
<path d="M549.813 69.6457C545.798 78.1466 536.383 83.9052 529.737 82.397C523.784 81.0259 522.399 74.1703 526.137 67.1777C529.737 60.4593 537.352 55.1119 543.583 55.1119C550.644 55.249 553.69 61.5562 549.813 69.6457Z" fill="#F0F4EF"/>
<path d="M531.595 77.5552L532.147 76.5671C532.285 76.1436 532.285 75.8613 532.009 75.7202C531.398 75.6004 530.855 75.247 530.49 74.7321C530.352 74.5909 530.352 74.1675 530.628 73.744L530.766 73.6029C531.042 73.1794 531.595 73.0382 531.733 73.3205C532.21 73.8401 532.84 74.1869 533.528 74.3086C534.235 74.412 534.957 74.2745 535.581 73.9174C536.204 73.5603 536.696 73.0034 536.98 72.3325C537.137 72.0762 537.24 71.7895 537.284 71.4902C537.327 71.191 537.309 70.8859 537.231 70.5941C537.154 70.3023 537.017 70.0301 536.831 69.7948C536.645 69.5595 536.414 69.3662 536.151 69.2271C535.785 69.0458 535.461 68.7859 535.202 68.4651C534.943 68.1444 534.755 67.7703 534.65 67.3684C534.545 66.9665 534.526 66.5462 534.595 66.1362C534.663 65.7262 534.817 65.3361 535.046 64.9924C535.434 64.1533 536.012 63.4209 536.733 62.8562C537.453 62.2915 538.295 61.9109 539.189 61.7459C539.465 61.7459 539.741 61.4636 540.017 61.0401L540.57 60.052C540.64 59.8472 540.771 59.6696 540.944 59.5434C541.117 59.4171 541.324 59.3483 541.536 59.3463C541.812 59.3463 541.95 59.6286 541.812 60.052L541.398 60.899C541.26 61.3224 541.26 61.6047 541.674 61.6047C542.13 61.6767 542.559 61.8716 542.917 62.1693C543.193 62.3105 543.055 62.734 542.779 63.1574L542.641 63.2986C542.365 63.722 541.812 63.8632 541.674 63.5809C541.201 63.2047 540.616 63.0055 540.017 63.0163C539.389 62.975 538.764 63.128 538.222 63.4553C537.68 63.7826 537.247 64.269 536.98 64.8513C536.427 65.9805 536.841 66.6863 538.084 67.6744C538.466 67.8975 538.797 68.2006 539.057 68.5638C539.316 68.9271 539.497 69.3422 539.588 69.7821C539.68 70.2219 539.679 70.6765 539.586 71.116C539.494 71.5556 539.311 71.9701 539.051 72.3325C538.615 73.2719 537.958 74.0861 537.139 74.702C536.319 75.3179 535.363 75.7163 534.356 75.8613C534.167 75.8883 533.99 75.9687 533.843 76.0934C533.697 76.2181 533.588 76.3822 533.528 76.5671L532.975 77.6963C532.888 77.8895 532.753 78.0562 532.583 78.1799C532.414 78.3036 532.216 78.3802 532.009 78.4021C531.456 78.4021 531.318 77.9786 531.595 77.5552Z" fill="#344966"/>
<path d="M822.677 332.467L767.015 328.98C766.099 328.92 765.205 328.675 764.383 328.261C763.561 327.848 762.828 327.272 762.228 326.569C761.627 325.866 761.17 325.05 760.884 324.166C760.598 323.283 760.487 322.351 760.56 321.424L769.024 205.762C769.185 203.827 770.026 202.014 771.395 200.654C772.764 199.294 774.57 198.477 776.483 198.352L833.436 194.865C834.423 194.813 835.409 194.974 836.33 195.337C837.25 195.7 838.084 196.258 838.776 196.972C839.468 197.686 840.002 198.542 840.343 199.481C840.683 200.42 840.823 201.422 840.753 202.42L831.284 325.057C831.063 327.175 830.046 329.126 828.444 330.506C826.841 331.885 824.777 332.587 822.677 332.467Z" fill="#22272E"/>
<path d="M818.454 332.467L762.793 328.98C761.877 328.92 760.982 328.675 760.16 328.261C759.338 327.848 758.606 327.272 758.005 326.569C757.404 325.866 756.948 325.05 756.661 324.166C756.375 323.283 756.265 322.351 756.337 321.424L764.801 205.762C764.962 203.827 765.803 202.014 767.173 200.654C768.542 199.294 770.347 198.477 772.261 198.352L829.214 194.865C830.2 194.813 831.187 194.974 832.107 195.337C833.028 195.7 833.861 196.258 834.553 196.972C835.245 197.686 835.779 198.542 836.12 199.481C836.461 200.42 836.6 201.422 836.53 202.42L827.062 325.057C826.84 327.175 825.823 329.126 824.221 330.506C822.619 331.885 820.554 332.587 818.454 332.467Z" fill="#22272E"/>
<path d="M801.298 208.996L791.434 209.672C791.256 209.687 791.078 209.654 790.911 209.574C790.744 209.494 790.592 209.37 790.466 209.21C790.339 209.05 790.242 208.858 790.179 208.646C790.116 208.434 790.09 208.207 790.101 207.981C790.105 207.489 790.26 207.019 790.535 206.671C790.809 206.323 791.18 206.125 791.568 206.121L801.431 205.445C801.609 205.43 801.788 205.463 801.955 205.543C802.122 205.623 802.274 205.747 802.4 205.907C802.526 206.067 802.624 206.259 802.687 206.471C802.75 206.683 802.776 206.91 802.764 207.136C802.761 207.628 802.605 208.098 802.331 208.446C802.057 208.794 801.686 208.991 801.298 208.996Z" fill="#63737A"/>
<path d="M808.044 207.557H807.869C807.751 207.565 807.634 207.546 807.524 207.501C807.414 207.455 807.314 207.385 807.231 207.294C807.147 207.203 807.083 207.094 807.042 206.973C807 206.853 806.983 206.724 806.991 206.596C807.024 206.303 807.145 206.03 807.336 205.821C807.527 205.613 807.777 205.479 808.044 205.443H808.22C808.337 205.435 808.455 205.454 808.565 205.499C808.675 205.544 808.775 205.615 808.858 205.706C808.942 205.797 809.006 205.906 809.047 206.026C809.089 206.147 809.106 206.275 809.098 206.404C809.065 206.697 808.943 206.969 808.753 207.178C808.562 207.387 808.312 207.52 808.044 207.557Z" fill="#63737A"/>
<path d="M791.202 228.288L775.862 228.732C775.488 228.736 775.117 228.665 774.774 228.521C774.431 228.378 774.124 228.166 773.875 227.9C773.625 227.634 773.438 227.32 773.326 226.979C773.215 226.639 773.181 226.279 773.228 225.925C773.309 225.168 773.662 224.461 774.226 223.923C774.791 223.385 775.533 223.048 776.327 222.971L791.667 222.38C792.041 222.375 792.412 222.447 792.755 222.59C793.098 222.734 793.405 222.946 793.654 223.212C793.904 223.478 794.091 223.791 794.202 224.132C794.314 224.473 794.348 224.832 794.301 225.187C794.28 225.978 793.951 226.734 793.379 227.307C792.806 227.88 792.03 228.23 791.202 228.288Z" fill="#63737A"/>
<path d="M787.275 277.43L773.491 277.321C773.158 277.307 772.832 277.243 772.532 277.132C772.232 277.02 771.963 276.864 771.741 276.673C771.519 276.481 771.348 276.257 771.238 276.015C771.128 275.772 771.081 275.515 771.1 275.258C771.178 274.713 771.504 274.207 772.018 273.83C772.533 273.452 773.204 273.228 773.913 273.195L787.697 273.304C788.033 273.309 788.365 273.367 788.671 273.475C788.977 273.583 789.25 273.739 789.475 273.933C789.699 274.126 789.869 274.354 789.975 274.6C790.08 274.847 790.119 275.108 790.088 275.367C790.035 275.919 789.718 276.437 789.198 276.818C788.678 277.2 787.992 277.418 787.275 277.43Z" fill="#63737A"/>
<path d="M784.975 319.776L769.56 319.038C769.176 319.013 768.801 318.917 768.457 318.755C768.113 318.592 767.808 318.367 767.559 318.091C767.309 317.816 767.121 317.496 767.006 317.151C766.89 316.806 766.85 316.443 766.886 316.083C766.919 315.362 767.249 314.682 767.807 314.185C768.365 313.689 769.106 313.416 769.875 313.424L785.289 314.015C785.678 314.027 786.06 314.114 786.411 314.273C786.761 314.431 787.072 314.657 787.324 314.935C787.576 315.214 787.763 315.538 787.873 315.889C787.983 316.239 788.014 316.607 787.963 316.97C787.963 317.714 787.648 318.428 787.088 318.954C786.528 319.48 785.767 319.776 784.975 319.776Z" fill="#63737A"/>
<path d="M817.325 260.348L774.21 260.492C773.777 260.494 773.348 260.407 772.951 260.238C772.555 260.069 772.199 259.821 771.907 259.51C771.614 259.199 771.393 258.832 771.255 258.432C771.118 258.033 771.069 257.61 771.11 257.19L772.439 238.96C772.494 238.23 772.827 237.545 773.373 237.041C773.919 236.537 774.639 236.248 775.392 236.232L818.654 235.084C819.087 235.082 819.516 235.169 819.913 235.338C820.31 235.507 820.666 235.755 820.958 236.066C821.25 236.377 821.472 236.744 821.609 237.144C821.746 237.543 821.796 237.966 821.755 238.386L820.278 257.477C820.278 258.239 819.967 258.969 819.413 259.507C818.859 260.046 818.108 260.348 817.325 260.348Z" fill="#B0D7C0"/>
<path d="M785.991 302.837L771.833 302.281C771.429 302.268 771.031 302.174 770.665 302.003C770.299 301.833 769.974 301.59 769.708 301.29C769.442 300.991 769.242 300.641 769.121 300.262C768.999 299.883 768.959 299.484 769.002 299.089L769.851 288.54C769.869 288.175 769.961 287.817 770.12 287.487C770.279 287.157 770.504 286.861 770.78 286.616C771.056 286.371 771.379 286.182 771.73 286.06C772.08 285.937 772.452 285.884 772.824 285.903L787.124 286.18C787.947 286.223 788.721 286.582 789.277 287.179C789.833 287.777 790.128 288.564 790.097 289.373L789.247 300.199C789.118 300.949 788.718 301.628 788.12 302.113C787.522 302.597 786.766 302.854 785.991 302.837Z" fill="#344966"/>
<path d="M813.623 304.953L799.154 304.344C798.767 304.329 798.387 304.225 798.038 304.038C797.688 303.851 797.377 303.584 797.123 303.255C796.869 302.926 796.679 302.542 796.563 302.126C796.447 301.71 796.408 301.272 796.449 300.838L797.26 288.799C797.278 288.398 797.365 288.005 797.517 287.643C797.669 287.281 797.883 286.956 798.147 286.687C798.411 286.418 798.719 286.21 799.054 286.076C799.39 285.941 799.745 285.882 800.1 285.903L814.705 286.208C815.492 286.255 816.231 286.649 816.762 287.305C817.293 287.961 817.574 288.826 817.545 289.713L816.733 302.058C816.616 302.884 816.235 303.633 815.662 304.166C815.09 304.699 814.365 304.979 813.623 304.953Z" fill="#F4C2C9"/>
<path d="M464.948 154.518L418.155 156.738C417.294 156.774 416.436 156.611 415.644 156.261C414.852 155.911 414.147 155.382 413.581 154.714C413.014 154.047 412.601 153.257 412.371 152.403C412.141 151.549 412.1 150.653 412.251 149.781L420.026 69.8401C420.237 67.8125 421.08 65.9092 422.429 64.415C423.779 62.9207 425.562 61.9156 427.513 61.55L475.171 55.1843C479.347 54.5922 482.226 57.701 481.794 61.9941L473.011 146.524C472.762 148.604 471.825 150.534 470.357 151.989C468.889 153.444 466.98 154.337 464.948 154.518Z" fill="#22272E"/>
<path d="M462.837 152.447L416.043 154.621C415.182 154.656 414.324 154.497 413.532 154.154C412.741 153.811 412.036 153.293 411.469 152.639C410.903 151.985 410.489 151.212 410.259 150.376C410.029 149.54 409.988 148.662 410.14 147.808L417.915 69.5332C418.125 67.5478 418.968 65.6843 420.317 64.2211C421.667 62.758 423.45 61.7739 425.402 61.4158L473.059 55.1828C477.235 54.603 480.114 57.647 479.682 61.8507L470.9 144.619C470.676 146.667 469.747 148.571 468.274 150.001C466.801 151.431 464.877 152.296 462.837 152.447Z" fill="#22272E"/>
<path d="M464.381 80.84L426.914 84.7439C426.635 84.7737 426.352 84.7417 426.086 84.6505C425.821 84.5593 425.58 84.4111 425.381 84.2169C425.182 84.0226 425.03 83.7873 424.937 83.5282C424.843 83.269 424.811 82.9928 424.841 82.7197L425.73 73.7551C425.757 73.3422 425.938 72.9533 426.238 72.6607C426.537 72.3681 426.936 72.1918 427.359 72.1646L464.973 67.827C465.253 67.7972 465.536 67.8291 465.801 67.9203C466.067 68.0116 466.308 68.1598 466.507 68.354C466.706 68.5483 466.857 68.7836 466.951 69.0427C467.044 69.3018 467.077 69.5781 467.047 69.8512L466.01 79.2495C466.006 79.6702 465.833 80.0725 465.529 80.37C465.224 80.6674 464.812 80.8362 464.381 80.84Z" fill="#B4CDEC"/>
<path d="M430.715 105.522L425.109 105.918C424.788 105.945 424.464 105.916 424.159 105.832C423.855 105.749 423.578 105.614 423.35 105.436C423.122 105.259 422.948 105.044 422.841 104.808C422.733 104.571 422.696 104.319 422.731 104.069L423.41 99.3164C423.442 98.9394 423.649 98.5842 423.993 98.3171C424.337 98.0499 424.794 97.8889 425.279 97.8641L430.884 97.468C431.205 97.4409 431.53 97.47 431.834 97.5533C432.139 97.6366 432.415 97.7719 432.643 97.9493C432.872 98.1267 433.046 98.3416 433.153 98.5782C433.26 98.8148 433.297 99.067 433.262 99.3164L432.583 104.069C432.551 104.446 432.344 104.801 432 105.069C431.657 105.336 431.2 105.497 430.715 105.522Z" fill="#B0D7C0"/>
<path d="M462.504 103.326L456.67 103.799C456.364 103.831 456.055 103.796 455.764 103.697C455.474 103.597 455.21 103.436 454.992 103.224C454.775 103.012 454.609 102.756 454.506 102.473C454.404 102.191 454.368 101.889 454.402 101.592L455.05 95.6005C455.08 95.1503 455.278 94.7262 455.606 94.4071C455.934 94.0881 456.37 93.8959 456.832 93.8663L462.666 93.2356C462.972 93.2032 463.282 93.238 463.572 93.3375C463.862 93.437 464.126 93.5985 464.344 93.8103C464.561 94.0221 464.728 94.2787 464.83 94.5613C464.932 94.8438 464.968 95.1451 464.934 95.4429L464.286 101.434C464.261 101.901 464.069 102.346 463.744 102.691C463.419 103.036 462.98 103.261 462.504 103.326Z" fill="#B0D7C0"/>
<path d="M446.039 105.428L441.492 105.915C441.239 105.948 440.984 105.913 440.744 105.81C440.504 105.708 440.287 105.541 440.107 105.323C439.927 105.104 439.79 104.84 439.706 104.549C439.621 104.257 439.592 103.947 439.619 103.64L440.154 97.6277C440.179 97.1636 440.342 96.7265 440.613 96.3977C440.884 96.0688 441.244 95.8707 441.625 95.8402L446.173 95.3527C446.425 95.3193 446.681 95.3551 446.92 95.4577C447.16 95.5602 447.378 95.7267 447.557 95.945C447.737 96.1633 447.874 96.4278 447.959 96.719C448.043 97.0103 448.072 97.3207 448.045 97.6277L447.51 103.64C447.506 104.113 447.35 104.565 447.075 104.899C446.8 105.234 446.428 105.423 446.039 105.428Z" fill="#B0D7C0"/>
<path d="M428.474 124.647L422.954 124.977C422.641 125 422.326 124.955 422.032 124.846C421.738 124.738 421.47 124.569 421.248 124.349C421.026 124.13 420.854 123.866 420.745 123.576C420.635 123.285 420.59 122.975 420.612 122.666L421.281 116.721C421.35 116.235 421.588 115.788 421.955 115.457C422.321 115.125 422.792 114.93 423.289 114.904L428.809 114.409C429.125 114.375 429.444 114.411 429.744 114.515C430.044 114.619 430.316 114.789 430.541 115.011C430.766 115.232 430.937 115.501 431.043 115.797C431.148 116.093 431.185 116.409 431.151 116.721L430.482 122.666C430.447 123.18 430.224 123.664 429.855 124.028C429.485 124.392 428.995 124.612 428.474 124.647Z" fill="#B0D7C0"/>
<path d="M460.267 122.373L454.518 122.86C454.219 122.882 453.919 122.838 453.638 122.731C453.357 122.625 453.102 122.458 452.89 122.242C452.678 122.026 452.514 121.766 452.409 121.48C452.304 121.194 452.261 120.888 452.282 120.584L452.921 114.568C452.987 114.089 453.214 113.65 453.564 113.323C453.913 112.997 454.364 112.805 454.837 112.779L460.586 112.291C460.888 112.258 461.193 112.294 461.479 112.396C461.765 112.499 462.025 112.666 462.24 112.884C462.454 113.102 462.618 113.367 462.719 113.658C462.819 113.95 462.855 114.261 462.822 114.568L462.183 120.747C462.031 121.164 461.774 121.534 461.438 121.819C461.101 122.105 460.698 122.295 460.267 122.373Z" fill="#B0D7C0"/>
<path d="M443.826 122.601L439.347 122.861C439.101 122.879 438.853 122.844 438.621 122.758C438.389 122.673 438.179 122.539 438.004 122.366C437.829 122.194 437.694 121.986 437.607 121.757C437.521 121.528 437.485 121.284 437.503 121.04L438.03 116.227C438.084 115.845 438.272 115.493 438.56 115.232C438.849 114.971 439.22 114.817 439.611 114.796L444.09 114.406C444.339 114.379 444.59 114.408 444.827 114.49C445.063 114.572 445.277 114.705 445.454 114.88C445.631 115.055 445.766 115.267 445.849 115.5C445.932 115.733 445.961 115.981 445.934 116.227L445.407 121.04C445.336 121.428 445.146 121.786 444.864 122.065C444.581 122.343 444.219 122.531 443.826 122.601Z" fill="#B0D7C0"/>
<path d="M426.82 141.651L422.412 141.919C422.161 141.933 421.91 141.893 421.677 141.801C421.444 141.71 421.234 141.569 421.063 141.39C420.892 141.21 420.764 140.996 420.687 140.763C420.611 140.53 420.588 140.283 420.621 140.04L421.172 135.207C421.229 134.812 421.425 134.449 421.727 134.18C422.028 133.91 422.417 133.752 422.825 133.731L427.234 133.462C427.488 133.435 427.745 133.466 427.985 133.553C428.224 133.64 428.44 133.78 428.614 133.963C428.788 134.146 428.916 134.365 428.987 134.605C429.058 134.844 429.071 135.096 429.024 135.341L428.473 140.174C428.439 140.578 428.249 140.954 427.943 141.227C427.637 141.501 427.236 141.652 426.82 141.651Z" fill="#B0D7C0"/>
<path d="M458.103 139.537L452.284 139.802C451.989 139.815 451.695 139.776 451.421 139.686C451.147 139.596 450.901 139.457 450.701 139.281C450.5 139.104 450.349 138.893 450.26 138.663C450.17 138.434 450.144 138.191 450.182 137.951L450.829 133.062C450.896 132.674 451.126 132.316 451.48 132.051C451.834 131.786 452.289 131.629 452.769 131.609L458.588 131.344C458.886 131.318 459.188 131.348 459.47 131.434C459.751 131.519 460.004 131.658 460.208 131.837C460.412 132.017 460.562 132.234 460.646 132.469C460.729 132.705 460.744 132.953 460.69 133.194L460.043 138.216C459.941 138.579 459.696 138.905 459.346 139.144C458.995 139.382 458.559 139.521 458.103 139.537Z" fill="#344966"/>
<path d="M441.671 141.583L437.135 141.918C436.892 141.936 436.649 141.885 436.423 141.771C436.198 141.657 435.995 141.481 435.829 141.257C435.663 141.032 435.539 140.765 435.465 140.473C435.391 140.181 435.369 139.873 435.401 139.569L435.935 133.528C435.99 133.035 436.18 132.581 436.472 132.244C436.764 131.907 437.14 131.709 437.536 131.682L442.072 131.347C442.318 131.313 442.567 131.352 442.799 131.46C443.031 131.569 443.24 131.745 443.408 131.973C443.577 132.201 443.701 132.476 443.77 132.775C443.839 133.074 443.851 133.39 443.806 133.696L443.272 139.905C443.188 140.366 442.986 140.78 442.697 141.083C442.407 141.386 442.047 141.562 441.671 141.583Z" fill="#344966"/>
<path d="M510.71 152.911L738.326 129.252C739.312 129.153 740.307 129.272 741.241 129.602C742.176 129.931 743.027 130.463 743.734 131.16C744.441 131.857 744.987 132.701 745.334 133.633C745.68 134.565 745.819 135.562 745.739 136.554L726.263 359.118C726.04 361.752 724.81 364.197 722.832 365.939C720.854 367.682 718.28 368.587 715.652 368.464L494.577 356.489C492.787 356.383 491.112 355.572 489.914 354.232C488.717 352.893 488.094 351.132 488.181 349.333L501.553 162.549C501.723 160.122 502.731 157.831 504.403 156.072C506.075 154.312 508.305 153.194 510.71 152.911Z" fill="#F0F4EF"/>
<path d="M502.678 151.038L734.047 127.14C735.052 127.032 736.068 127.15 737.021 127.485C737.975 127.82 738.84 128.364 739.555 129.077C740.269 129.79 740.815 130.654 741.151 131.604C741.487 132.555 741.605 133.569 741.497 134.572L721.778 359.124C721.579 361.789 720.331 364.267 718.305 366.015C716.279 367.763 713.641 368.639 710.969 368.45L486.173 356.355C485.267 356.311 484.379 356.086 483.561 355.694C482.744 355.301 482.014 354.748 481.414 354.069C480.815 353.389 480.359 352.597 480.072 351.738C479.785 350.879 479.674 349.972 479.746 349.069L493.33 160.51C493.586 158.109 494.65 155.866 496.347 154.146C498.045 152.426 500.277 151.331 502.678 151.038Z" fill="#344966"/>
<path d="M526.177 199.09L516.793 199.642L515.62 218.146L524.873 217.869L526.177 199.09Z" fill="#B4CDEC"/>
<path d="M516.314 218.456L515.62 228.732L525.482 228.42L526.177 218.145L516.314 218.456Z" fill="#B0D7C0"/>
<path d="M549.401 171.564L538.542 172.338L536.732 199.09L547.44 198.626L549.401 171.564Z" fill="#B4CDEC"/>
<path d="M536.83 197.432L534.621 228.732L545.079 228.425L547.289 196.972L536.83 197.432Z" fill="#B0D7C0"/>
<path d="M559.129 180.783L557.846 196.972L569.231 196.372L570.514 180.033L559.129 180.783Z" fill="#B4CDEC"/>
<path d="M557.946 197.531L555.736 226.615L566.195 226.335L568.405 196.972L557.946 197.531Z" fill="#B0D7C0"/>
<path d="M589.518 194.855L579.655 195.49L578.961 207.559L588.823 206.924L589.518 194.855Z" fill="#B4CDEC"/>
<path d="M578.152 208.103L576.849 226.615L586.102 226.342L587.406 207.559L578.152 208.103Z" fill="#B0D7C0"/>
<path d="M610.631 177.916L609.289 194.174L608.544 204.871L597.962 205.441L598.708 194.602L600.049 178.629L610.631 177.916Z" fill="#B4CDEC"/>
<path d="M599.379 206.029L597.962 226.614L607.103 226.467L608.519 205.441L599.379 206.029Z" fill="#B0D7C0"/>
<path d="M695.087 165.096L675.934 194.855L659.194 172.499C665.678 167.153 673.682 163.897 682.117 163.171C686.532 162.858 690.963 163.516 695.087 165.096Z" fill="#22272E"/>
<path d="M709.558 192.495L676.083 194.855L694.895 165.213C705.263 169.342 711.336 179.665 709.558 192.495Z" fill="#F4C2C9"/>
<path d="M707.754 192.737C707.754 193.168 707.611 193.599 707.611 194.029C704.596 211.111 688.659 225.323 671.861 226.614L675.307 195.034L707.754 192.737Z" fill="#B0D7C0"/>
<path d="M676.084 195.08L672.547 226.466C671.619 226.584 670.682 226.632 669.747 226.608C652.209 226.608 641.45 212.77 645.135 196.079C647.264 187.24 652.403 179.351 659.725 173.681L676.084 195.08Z" fill="white"/>
<path d="M703.532 252.023L696.019 326.129L507.174 322.621L507.463 316.92L548.353 288.418C549.266 287.763 550.364 287.423 551.483 287.449C552.602 287.476 553.683 287.866 554.566 288.564L569.881 299.965C570.449 300.391 571.095 300.699 571.781 300.871C572.467 301.043 573.18 301.075 573.879 300.967C574.578 300.858 575.248 300.61 575.852 300.237C576.455 299.865 576.98 299.375 577.395 298.796L592.566 278.332C593.072 277.646 593.733 277.092 594.493 276.715C595.253 276.337 596.091 276.148 596.937 276.162C597.784 276.177 598.615 276.394 599.362 276.797C600.109 277.199 600.751 277.776 601.235 278.479L614.672 297.334C615.09 297.931 615.623 298.436 616.239 298.82C616.855 299.203 617.54 299.457 618.255 299.566C618.97 299.676 619.7 299.638 620.4 299.455C621.1 299.272 621.757 298.949 622.33 298.503C623.24 297.806 624.344 297.417 625.485 297.391C626.627 297.365 627.747 297.703 628.687 298.357L638.224 305.227C638.818 305.65 639.49 305.948 640.2 306.104C640.91 306.26 641.644 306.27 642.358 306.133C643.072 305.997 643.752 305.717 644.357 305.311C644.962 304.904 645.481 304.378 645.881 303.765L667.266 270.439C667.666 269.826 668.185 269.301 668.79 268.894C669.395 268.488 670.075 268.208 670.789 268.071C671.503 267.935 672.237 267.945 672.947 268.101C673.657 268.257 674.329 268.555 674.923 268.978L681.136 273.509C681.703 273.937 682.349 274.247 683.036 274.42C683.722 274.593 684.436 274.626 685.135 274.517C685.834 274.408 686.505 274.159 687.109 273.786C687.712 273.412 688.236 272.92 688.65 272.34L703.532 252.023Z" fill="#B4CDEC"/>
<path d="M565.66 274.801H557.43C557.24 274.796 557.052 274.831 556.877 274.903C556.703 274.975 556.547 275.083 556.419 275.219L554.542 277.032C554.273 277.287 553.91 277.43 553.532 277.43C553.154 277.43 552.791 277.287 552.521 277.032L551.077 275.219C550.95 275.083 550.794 274.975 550.62 274.903C550.445 274.831 550.257 274.796 550.067 274.801H542.126C541.959 274.809 541.793 274.782 541.638 274.72C541.484 274.657 541.347 274.563 541.236 274.442C541.125 274.321 541.043 274.178 540.997 274.023C540.952 273.868 540.943 273.705 540.971 273.546L542.126 258.488C542.153 258.127 542.314 257.787 542.579 257.531C542.844 257.275 543.196 257.119 543.57 257.094L567.103 256.257C567.448 256.257 567.778 256.389 568.022 256.625C568.266 256.86 568.403 257.179 568.403 257.512L567.103 273.267C567.124 273.461 567.101 273.658 567.038 273.844C566.974 274.029 566.871 274.2 566.735 274.344C566.599 274.489 566.433 274.604 566.248 274.683C566.062 274.762 565.862 274.802 565.66 274.801Z" fill="white"/>
<path d="M643.76 283.439L635.484 283.301C635.293 283.297 635.103 283.331 634.928 283.402C634.752 283.474 634.595 283.58 634.467 283.714L632.58 285.503C632.447 285.639 632.283 285.745 632.101 285.813C631.919 285.881 631.724 285.909 631.529 285.896C631.333 285.883 631.144 285.828 630.974 285.736C630.804 285.645 630.658 285.518 630.547 285.365L629.095 283.577C628.967 283.442 628.81 283.336 628.635 283.265C628.459 283.193 628.269 283.159 628.079 283.164L620.238 283.026C619.512 283.026 619.076 282.476 619.076 281.65L620.238 266.652C620.257 266.316 620.397 265.996 620.634 265.745C620.872 265.495 621.194 265.329 621.545 265.276L645.212 264.726C645.395 264.729 645.576 264.768 645.743 264.84C645.909 264.912 646.059 265.016 646.181 265.145C646.304 265.274 646.397 265.425 646.455 265.59C646.513 265.755 646.535 265.929 646.519 266.102L645.212 282.063C645.225 282.247 645.196 282.431 645.128 282.604C645.059 282.776 644.953 282.933 644.815 283.063C644.678 283.193 644.513 283.294 644.331 283.359C644.149 283.424 643.954 283.451 643.76 283.439Z" fill="#F4C2C9"/>
<path d="M245.335 705.157C244.739 707.027 243.4 714.504 242.358 721.407C231.234 723.014 219.867 721.672 209.47 717.524C210.215 710.334 210.959 702.856 210.959 702.856C210.959 698.83 246.525 701.706 245.335 705.157Z" fill="#22272E"/>
<path d="M241.141 719.774C240.311 726.089 239.482 731.651 239.482 731.651C239.482 731.651 235.748 741.123 226.344 741.123C216.94 741.123 209.334 732.553 209.472 728.945C209.611 727.291 210.026 721.578 210.579 715.715C220.236 720.071 230.804 721.474 241.141 719.774Z" fill="#F4C2C9"/>
<path d="M208.219 726.302C209.66 727.888 211.184 729.4 212.783 730.829C214.403 732.29 219.409 727.762 226.475 728.638C233.542 729.515 235.751 732.29 235.751 732.29C237.384 731.963 238.935 731.318 240.315 730.391C240.45 734.042 241.197 737.644 242.523 741.052C244.731 746.748 255.921 763.397 255.921 766.61C255.921 769.823 255.184 772.306 252.829 773.328C250.473 774.35 234.867 774.496 221.764 774.788C208.661 775.081 198.502 775.811 197.03 770.699C195.558 765.588 201.594 749.669 204.097 739.884C206.6 730.099 206.158 726.448 208.219 726.302Z" fill="#22272E"/>
<path d="M211.58 753.827C211.58 753.827 226.714 744.299 241.14 753.827" stroke="white" stroke-width="1.8" stroke-linecap="round" stroke-linejoin="round"/>
<path d="M213.692 745.358C221.974 742.535 230.747 742.535 239.028 745.358" stroke="white" stroke-width="1.8" stroke-linecap="round" stroke-linejoin="round"/>
<path d="M395.27 714.633C379.224 720.204 362.614 716.775 362.755 716.918C362.192 708.918 361.488 700.489 361.488 700.489C363.6 695.488 393.863 693.203 394.144 695.346C394.144 696.489 394.707 705.918 395.27 714.633Z" fill="#22272E"/>
<path d="M397.382 729.607C397.382 729.607 395.11 736.706 385.266 740.33C375.422 743.955 362.851 734.138 362.7 731.269C362.548 730.06 362.094 723.113 361.488 716.014C361.488 715.863 379.208 719.488 396.473 713.598C396.927 721.905 397.382 729.607 397.382 729.607Z" fill="#F4C2C9"/>
<path d="M363.371 728.883C362.358 728.883 361.635 730.366 361.057 739.709C360.478 749.052 357.586 769.665 361.057 772.78C364.528 775.894 433.802 775.004 441.757 774.411C449.711 773.818 454.05 768.479 451.591 764.92C449.132 761.361 432.067 754.836 417.026 744.455C401.985 734.074 398.37 731.849 396.634 729.328C396.634 729.328 397.502 720.875 393.019 722.21C388.535 723.545 385.498 734.519 379.713 736.002C373.928 737.485 373.205 728.29 363.371 728.883Z" fill="#22272E"/>
<path d="M420.606 745.404C420.606 745.404 416.719 744.221 407.938 753.827" stroke="white" stroke-width="1.8" stroke-linecap="round" stroke-linejoin="round"/>
<path d="M410.051 739.006C410.051 739.006 403.164 738.699 395.271 749.592" stroke="white" stroke-width="1.8" stroke-linecap="round" stroke-linejoin="round"/>
<path d="M215.804 717.833V713.598" stroke="#63737A" stroke-width="1.8" stroke-linecap="round" stroke-linejoin="round"/>
<path d="M226.361 719.95V715.715" stroke="#63737A" stroke-width="1.8" stroke-linecap="round" stroke-linejoin="round"/>
<path d="M236.917 722.067V715.715" stroke="#63737A" stroke-width="1.8" stroke-linecap="round" stroke-linejoin="round"/>
<path d="M367.823 717.832V711.48" stroke="#63737A" stroke-width="1.8" stroke-linecap="round" stroke-linejoin="round"/>
<path d="M380.491 717.832V711.48" stroke="#63737A" stroke-width="1.8" stroke-linecap="round" stroke-linejoin="round"/>
<path d="M391.049 715.716V709.364" stroke="#63737A" stroke-width="1.8" stroke-linecap="round" stroke-linejoin="round"/>
<path d="M205.488 378.163C202.993 389.657 201.625 401.367 201.405 413.126C200.968 433.085 216.569 495.583 222.255 516.706C227.941 537.83 226.775 541.181 225.9 545.26C225.025 549.339 216.277 581.681 213.361 615.188C210.445 648.695 199.947 675.646 201.113 685.989C202.717 699.975 208.695 704.054 211.174 705.656C213.653 707.259 234.065 713.815 247.916 710.61C247.916 710.61 262.642 701.286 265.413 688.175C268.183 675.063 266.579 659.184 276.056 616.353C285.533 573.523 289.907 555.895 291.22 538.85C291.949 528.652 292.094 499.516 292.24 477.227C292.386 462.076 292.386 449.984 292.532 448.818C292.969 445.905 300.114 449.256 303.904 439.932C305.508 435.707 306.383 427.695 306.529 419.099C306.821 408.173 306.091 396.227 304.633 389.671C302.301 377.58 207.82 365.343 205.488 378.163Z" fill="#22272E"/>
<path d="M405.467 689.112C402.986 695.242 398.463 702.247 394.377 703.853C390.292 705.458 371.907 707.939 362.568 707.064C362.568 707.064 346.956 702.539 345.351 690.717C343.746 678.895 346.518 665.76 341.265 639.197C336.012 612.635 331.489 565.639 330.176 551.774C328.863 537.909 300.264 496.605 286.84 471.648C273.416 446.691 258.97 401.009 270.935 390.355C282.9 379.701 325.652 374.884 338.347 383.495C338.347 383.495 353.084 419.399 367.821 462.308C381.391 501.714 384.164 514.995 386.06 526.379C386.184 527.413 386.379 528.437 386.644 529.444C387.228 532.947 387.957 541.996 388.979 553.671C391.313 583.299 394.086 629.273 395.253 639.781C396.858 654.376 407.947 682.982 405.467 689.112Z" fill="#22272E"/>
<path d="M283.367 451.05C292.985 447.372 302.871 444.54 312.926 442.581" stroke="#63737A" stroke-width="1.8" stroke-linecap="round" stroke-linejoin="round"/>
<path d="M283.541 556.151C285.694 545.574 279.016 535.276 268.626 533.15C258.236 531.023 248.069 537.874 245.916 548.451C243.764 559.028 250.441 569.326 260.831 571.452C271.221 573.579 281.389 566.728 283.541 556.151Z" stroke="#63737A" stroke-width="1.80036" stroke-linecap="round" stroke-linejoin="round"/>
<path d="M388.936 553.739C387.185 556.057 384.959 557.928 382.425 559.211C379.891 560.494 377.115 561.157 374.304 561.15C369.244 561.17 364.384 559.07 360.793 555.312C357.202 551.554 355.173 546.446 355.154 541.111C355.135 535.776 357.127 530.652 360.691 526.866C364.256 523.08 369.101 520.941 374.161 520.921C378.51 520.923 382.722 522.528 386.067 525.458" stroke="#63737A" stroke-width="1.8" stroke-linecap="round" stroke-linejoin="round"/>
<path d="M209.47 446.816C214.14 441.961 217.865 436.063 220.409 429.497C222.953 422.931 224.261 415.84 224.25 408.673C219.287 408.357 214.349 407.66 209.47 406.587" stroke="#63737A" stroke-width="1.8" stroke-linecap="round" stroke-linejoin="round"/>
<path d="M291.813 476.458C291.964 461.557 291.964 449.665 292.115 448.519C292.567 445.653 299.957 448.949 303.878 439.779C305.537 435.624 306.442 427.744 306.593 419.29" stroke="#63737A" stroke-width="1.8" stroke-linecap="round" stroke-linejoin="round"/>
<path d="M335.84 211.794C335.84 211.794 347.78 212.372 367.001 250.528C386.222 288.684 393.065 302.414 393.065 302.414C393.065 302.414 405.734 299.379 426.41 296.055C447.087 292.73 476.21 288.539 476.21 288.539C476.21 288.539 484.073 288.684 487.422 299.812C488.275 302.63 488.402 305.614 487.792 308.493C487.181 311.372 485.852 314.052 483.927 316.289C483.203 317.196 482.248 317.894 481.16 318.312C472.278 322.07 420.44 343.75 402.821 347.507C383.455 351.554 373.99 350.976 356.808 327.562C339.626 304.148 326.084 285.938 319.823 276.543C313.561 266.715 309.047 213.239 335.84 211.794Z" fill="#B4CDEC"/>
<path d="M367.837 340.415C367.837 340.415 366.823 332.48 381.742 332.48C396.661 332.48 404.338 344.008 400.717 347.301" stroke="#22272E" stroke-width="1.8" stroke-linecap="round" stroke-linejoin="round"/>
<path d="M393.158 302.838C393.158 302.838 386.174 305.379 384.713 309.19" stroke="#22272E" stroke-width="1.8" stroke-linecap="round" stroke-linejoin="round"/>
<path d="M475.453 289.682C475.453 289.682 481.943 287.307 483.566 286.417C485.188 285.527 488.728 279.294 491.678 275.436C494.629 271.578 503.036 269.352 505.396 269.797C506.038 269.884 506.656 270.099 507.213 270.431C507.771 270.762 508.256 271.203 508.642 271.726C508.642 271.726 516.017 269.055 521.032 266.978C526.047 264.9 535.34 260.3 536.667 264.01C537.405 266.236 531.652 269.5 527.67 271.726C522.802 274.546 519.557 276.623 519.557 276.623C520.33 277.082 520.994 277.705 521.503 278.448C522.013 279.191 522.355 280.037 522.507 280.926C523.097 284.043 524.72 287.456 521.769 292.204C520.884 293.54 524.277 297.25 521.622 300.663C517.049 306.153 505.986 308.973 500.086 310.753C494.186 312.534 480.321 313.425 480.321 313.425C480.321 313.425 475.895 312.386 473.978 302.74C472.06 293.095 475.453 289.682 475.453 289.682Z" fill="#F4C2C9"/>
<path d="M508.367 271.079C508.367 271.079 509.315 273.916 510.398 278.172C511.481 282.428 512.293 285.739 509.45 285.896C506.607 286.054 504.034 281.01 502.951 278.488" stroke="#E26E85" stroke-width="1.8" stroke-linecap="round" stroke-linejoin="round"/>
<path d="M504.46 281.665C504.46 281.665 507.238 288.46 500.837 294.369" stroke="#E26E85" stroke-width="1.8" stroke-linecap="round" stroke-linejoin="round"/>
<path d="M519.842 277.43L511.396 279.547" stroke="#E26E85" stroke-width="1.8" stroke-linecap="round" stroke-linejoin="round"/>
<path d="M507.774 284.834C507.774 284.834 506.424 286.706 507.774 287.759C509.124 288.811 516.552 286.472 521.953 283.782" stroke="#E26E85" stroke-width="1.8" stroke-linecap="round" stroke-linejoin="round"/>
<path d="M508.796 288.017C508.103 288.434 507.578 289.14 507.33 289.987C507.082 290.834 507.131 291.757 507.465 292.565C508.648 295.597 515.005 294.418 521.953 291.891" stroke="#E26E85" stroke-width="1.8" stroke-linecap="round" stroke-linejoin="round"/>
<path d="M509.557 294.369C509.557 294.369 505.773 294.823 507.741 298.604C508.952 300.873 516.217 300.116 517.731 300.721" stroke="#E26E85" stroke-width="1.8" stroke-linecap="round" stroke-linejoin="round"/>
<path d="M467.139 290.134C465.827 292.295 464.186 296.464 465.334 303.874C465.656 307.073 466.736 310.162 468.497 312.914C470.257 315.667 472.651 318.012 475.503 319.776" stroke="#22272E" stroke-width="1.8" stroke-linecap="round" stroke-linejoin="round"/>
<path d="M288.669 157.63C288.669 157.63 284.121 181.521 281.563 188.05C279.005 194.579 292.932 204.818 306.858 205.411C320.785 206.005 319.364 197.547 319.364 197.547L323.485 173.804C323.485 173.953 293.642 152.139 288.669 157.63Z" fill="#F4C2C9"/>
<path d="M294.138 165.213C292.11 182.282 304.858 190.536 319.055 196.972V196.133L321.373 184.24C310.798 180.883 301.526 173.607 294.138 165.213Z" fill="#E26E85"/>
<path d="M227.249 204.96C230.456 195.507 242.703 189.836 252.616 190.708C262.822 191.581 282.358 191.872 301.165 197.689C333.239 207.577 340.966 213.394 342.861 215.139C353.504 225.319 352.483 240.443 346.36 282.179C342.424 309.664 339.071 316.644 339.945 330.168C340.82 343.692 343.298 367.687 344.902 372.631C346.506 377.576 342.424 386.156 338.925 389.209C335.426 392.263 307.142 398.662 280.9 398.08C254.657 397.499 213.399 390.373 206.838 386.01C200.277 381.648 195.612 374.086 197.07 367.542C198.883 357.538 201.218 347.636 204.068 337.875C208.15 324.06 208.442 306.028 214.856 277.089C219.813 255.712 220.542 224.737 227.249 204.96Z" fill="#344966"/>
<mask id="mask1_325_17" style="mask-type:luminance" maskUnits="userSpaceOnUse" x="196" y="190" width="155" height="209">
<path d="M226.877 204.552C230.076 195.072 242.292 189.385 252.181 190.26C262.361 191.135 281.849 191.426 300.609 197.26C332.603 207.177 340.311 213.01 342.201 214.76C352.817 224.969 351.799 240.136 345.691 281.991C341.765 309.554 338.42 316.555 339.293 330.117C340.165 343.68 342.637 367.743 344.237 372.702C345.837 377.66 341.765 386.265 338.275 389.327C334.784 392.39 306.571 398.807 280.394 398.223C254.217 397.64 213.061 390.494 206.517 386.119C199.973 381.744 195.319 374.16 196.773 367.598C198.581 357.565 200.911 347.635 203.754 337.847C207.826 323.992 208.117 305.908 214.515 276.887C219.46 255.449 220.187 224.385 226.877 204.552Z" fill="white"/>
</mask>
<g mask="url(#mask1_325_17)">
<path d="M315.282 188.034C318.802 186.268 320.956 183.435 320.093 181.706C319.231 179.977 315.678 180.008 312.158 181.774C308.639 183.539 306.485 186.372 307.347 188.101C308.21 189.83 311.762 189.8 315.282 188.034Z" fill="#F0F4EF"/>
<path d="M339.408 204.331C342.928 202.565 345.082 199.732 344.219 198.004C343.357 196.275 339.805 196.305 336.285 198.071C332.765 199.837 330.611 202.67 331.474 204.399C332.336 206.127 335.889 206.097 339.408 204.331Z" fill="#F0F4EF"/>
<path d="M337.394 232.37C340.914 230.604 343.068 227.771 342.205 226.043C341.343 224.314 337.79 224.344 334.271 226.11C330.751 227.876 328.597 230.709 329.459 232.438C330.322 234.166 333.874 234.136 337.394 232.37Z" fill="#F0F4EF"/>
<path d="M286.071 202.725C289.591 200.959 291.745 198.126 290.882 196.397C290.02 194.668 286.467 194.699 282.948 196.465C279.428 198.23 277.274 201.063 278.137 202.792C278.999 204.521 282.552 204.491 286.071 202.725Z" fill="#F0F4EF"/>
<path d="M310.062 219.09C313.582 217.324 315.736 214.491 314.874 212.762C314.011 211.033 310.459 211.064 306.939 212.829C303.419 214.595 301.265 217.428 302.128 219.157C302.99 220.886 306.543 220.856 310.062 219.09Z" fill="#F0F4EF"/>
<path d="M256.645 217.355C260.165 215.589 262.319 212.756 261.456 211.027C260.594 209.299 257.041 209.329 253.522 211.095C250.002 212.861 247.848 215.694 248.71 217.422C249.573 219.151 253.125 219.121 256.645 217.355Z" fill="#F0F4EF"/>
<path d="M280.771 233.653C284.291 231.887 286.445 229.054 285.582 227.325C284.72 225.597 281.167 225.627 277.648 227.393C274.128 229.159 271.974 231.992 272.837 233.72C273.699 235.449 277.252 235.419 280.771 233.653Z" fill="#F0F4EF"/>
<path d="M308.104 246.934C311.624 245.168 313.778 242.335 312.915 240.606C312.053 238.877 308.5 238.907 304.98 240.673C301.461 242.439 299.307 245.272 300.169 247.001C301.032 248.73 304.584 248.7 308.104 246.934Z" fill="#F0F4EF"/>
<path d="M332.169 263.446C335.689 261.68 337.843 258.847 336.98 257.118C336.117 255.39 332.565 255.42 329.045 257.186C325.526 258.952 323.372 261.785 324.234 263.513C325.097 265.242 328.649 265.212 332.169 263.446Z" fill="#F0F4EF"/>
<path d="M278.751 261.711C282.271 259.946 284.425 257.113 283.562 255.384C282.7 253.655 279.148 253.685 275.628 255.451C272.108 257.217 269.954 260.05 270.817 261.779C271.679 263.507 275.232 263.477 278.751 261.711Z" fill="#F0F4EF"/>
<path d="M302.877 278.009C306.396 276.243 308.55 273.41 307.688 271.682C306.825 269.953 303.273 269.983 299.753 271.749C296.234 273.515 294.08 276.348 294.942 278.077C295.805 279.805 299.357 279.775 302.877 278.009Z" fill="#F0F4EF"/>
<path d="M330.806 292.431C334.325 290.665 336.479 287.832 335.617 286.104C334.754 284.375 331.202 284.405 327.682 286.171C324.163 287.937 322.009 290.77 322.871 292.498C323.734 294.227 327.286 294.197 330.806 292.431Z" fill="#F0F4EF"/>
<path d="M354.813 308.796C358.332 307.03 360.486 304.197 359.624 302.468C358.761 300.74 355.209 300.77 351.689 302.536C348.17 304.302 346.016 307.135 346.878 308.863C347.741 310.592 351.293 310.562 354.813 308.796Z" fill="#F0F4EF"/>
<path d="M301.447 307.196C304.967 305.43 307.121 302.597 306.258 300.869C305.396 299.14 301.843 299.17 298.324 300.936C294.804 302.702 292.65 305.535 293.512 307.263C294.375 308.992 297.927 308.962 301.447 307.196Z" fill="#F0F4EF"/>
<path d="M325.584 323.503C329.104 321.737 331.258 318.904 330.395 317.175C329.532 315.446 325.98 315.476 322.46 317.242C318.941 319.008 316.787 321.841 317.649 323.57C318.512 325.299 322.064 325.268 325.584 323.503Z" fill="#F0F4EF"/>
<path d="M352.92 336.774C356.439 335.008 358.593 332.175 357.731 330.447C356.868 328.718 353.316 328.748 349.796 330.514C346.277 332.28 344.123 335.113 344.985 336.842C345.848 338.57 349.4 338.54 352.92 336.774Z" fill="#F0F4EF"/>
<path d="M347.685 367.831C351.205 366.065 353.359 363.232 352.496 361.503C351.634 359.775 348.081 359.805 344.562 361.571C341.042 363.337 338.888 366.17 339.751 367.898C340.613 369.627 344.166 369.597 347.685 367.831Z" fill="#F0F4EF"/>
<path d="M227.125 232.197C230.645 230.431 232.799 227.598 231.937 225.87C231.074 224.141 227.522 224.171 224.002 225.937C220.482 227.703 218.328 230.536 219.191 232.265C220.053 233.993 223.606 233.963 227.125 232.197Z" fill="#F0F4EF"/>
<path d="M251.134 248.569C254.654 246.803 256.808 243.97 255.946 242.241C255.083 240.512 251.531 240.542 248.011 242.308C244.491 244.074 242.337 246.907 243.2 248.636C244.062 250.365 247.615 250.335 251.134 248.569Z" fill="#F0F4EF"/>
<path d="M197.899 246.904C201.418 245.138 203.572 242.305 202.71 240.576C201.847 238.847 198.295 238.877 194.775 240.643C191.256 242.409 189.102 245.242 189.964 246.971C190.827 248.7 194.379 248.67 197.899 246.904Z" fill="#F0F4EF"/>
<path d="M221.911 263.281C225.431 261.515 227.585 258.682 226.722 256.954C225.86 255.225 222.307 255.255 218.788 257.021C215.268 258.787 213.114 261.62 213.977 263.349C214.839 265.077 218.391 265.047 221.911 263.281Z" fill="#F0F4EF"/>
<path d="M249.243 276.547C252.762 274.781 254.916 271.948 254.054 270.219C253.191 268.491 249.639 268.521 246.119 270.287C242.6 272.052 240.446 274.885 241.308 276.614C242.171 278.343 245.723 278.313 249.243 276.547Z" fill="#F0F4EF"/>
<path d="M273.369 292.859C276.888 291.094 279.042 288.261 278.18 286.532C277.317 284.803 273.765 284.833 270.245 286.599C266.726 288.365 264.572 291.198 265.434 292.927C266.297 294.656 269.849 294.625 273.369 292.859Z" fill="#F0F4EF"/>
<path d="M220.021 291.245C223.541 289.479 225.695 286.646 224.832 284.917C223.97 283.189 220.417 283.219 216.898 284.985C213.378 286.751 211.224 289.584 212.087 291.312C212.949 293.041 216.502 293.011 220.021 291.245Z" fill="#F0F4EF"/>
<path d="M244.01 307.61C247.53 305.844 249.684 303.011 248.821 301.283C247.959 299.554 244.406 299.584 240.887 301.35C237.367 303.116 235.213 305.949 236.076 307.678C236.938 309.406 240.491 309.376 244.01 307.61Z" fill="#F0F4EF"/>
<path d="M192.677 277.96C196.197 276.194 198.351 273.361 197.488 271.632C196.626 269.904 193.073 269.934 189.553 271.7C186.034 273.466 183.88 276.299 184.742 278.027C185.605 279.756 189.157 279.726 192.677 277.96Z" fill="#F0F4EF"/>
<path d="M190.658 306.003C194.178 304.238 196.332 301.405 195.469 299.676C194.607 297.947 191.055 297.977 187.535 299.743C184.015 301.509 181.861 304.342 182.724 306.071C183.586 307.799 187.139 307.769 190.658 306.003Z" fill="#F0F4EF"/>
<path d="M214.784 322.316C218.303 320.55 220.457 317.717 219.595 315.988C218.732 314.259 215.18 314.29 211.66 316.056C208.141 317.821 205.987 320.654 206.849 322.383C207.712 324.112 211.264 324.082 214.784 322.316Z" fill="#F0F4EF"/>
<path d="M242.727 336.739C246.247 334.973 248.401 332.14 247.539 330.411C246.676 328.682 243.124 328.712 239.604 330.478C236.084 332.244 233.93 335.077 234.793 336.806C235.655 338.535 239.208 338.504 242.727 336.739Z" fill="#F0F4EF"/>
<path d="M318.184 382.694C321.703 380.928 323.857 378.095 322.995 376.366C322.132 374.637 318.58 374.667 315.06 376.433C311.541 378.199 309.387 381.032 310.249 382.761C311.112 384.49 314.664 384.459 318.184 382.694Z" fill="#F0F4EF"/>
<path d="M264.755 380.966C268.274 379.2 270.428 376.367 269.566 374.638C268.703 372.909 265.151 372.94 261.631 374.705C258.112 376.471 255.958 379.304 256.82 381.033C257.683 382.762 261.235 382.732 264.755 380.966Z" fill="#F0F4EF"/>
<path d="M288.824 397.459C292.344 395.693 294.498 392.86 293.635 391.131C292.773 389.403 289.22 389.433 285.7 391.199C282.181 392.964 280.027 395.797 280.889 397.526C281.752 399.255 285.304 399.225 288.824 397.459Z" fill="#F0F4EF"/>
<path d="M213.309 351.382C216.828 349.616 218.982 346.783 218.12 345.054C217.257 343.325 213.705 343.355 210.185 345.121C206.665 346.887 204.511 349.72 205.374 351.449C206.236 353.178 209.789 353.147 213.309 351.382Z" fill="#F0F4EF"/>
<path d="M237.427 367.667C240.947 365.901 243.101 363.068 242.239 361.339C241.376 359.61 237.824 359.64 234.304 361.406C230.784 363.172 228.63 366.005 229.493 367.734C230.355 369.463 233.908 369.433 237.427 367.667Z" fill="#F0F4EF"/>
<path d="M208.059 382.444C211.579 380.679 213.733 377.846 212.87 376.117C212.008 374.388 208.455 374.418 204.936 376.184C201.416 377.95 199.262 380.783 200.124 382.512C200.987 384.241 204.539 384.21 208.059 382.444Z" fill="#F0F4EF"/>
<path d="M235.408 395.71C238.927 393.944 241.081 391.111 240.219 389.382C239.356 387.653 235.804 387.683 232.284 389.449C228.765 391.215 226.611 394.048 227.473 395.777C228.336 397.506 231.888 397.476 235.408 395.71Z" fill="#F0F4EF"/>
</g>
<path d="M267.029 311.412C283.364 314.798 299.985 316.683 316.676 317.041C317.762 317.069 318.802 317.477 319.61 318.191C320.417 318.905 320.939 319.879 321.082 320.937C321.89 326.766 324.506 332.208 328.573 336.525C328.954 336.905 329.254 337.357 329.456 337.852C329.657 338.348 329.757 338.878 329.748 339.411C329.895 345.473 330.189 365.967 326.076 369.143C321.376 372.607 271.435 375.782 240.443 367.266C239.456 367.019 238.578 366.463 237.942 365.681C237.306 364.9 236.947 363.937 236.917 362.937C237.064 357.019 237.358 344.607 238.386 336.813C238.53 336.039 238.858 335.308 239.343 334.681C239.827 334.055 240.456 333.549 241.177 333.205C246.024 331.04 257.187 325.267 261.153 314.443C261.627 313.349 262.47 312.45 263.541 311.898C264.612 311.346 265.844 311.174 267.029 311.412Z" stroke="#F0F4EF" stroke-width="1.8" stroke-linecap="round" stroke-linejoin="round"/>
<path d="M278.763 183.549C278.915 183.205 279.144 182.903 279.432 182.668C279.72 182.432 280.058 182.271 280.418 182.197C280.779 182.123 281.151 182.138 281.505 182.241C281.858 182.344 282.183 182.533 282.452 182.79C285.255 185.826 291.305 190.381 302.224 192.506C318.898 195.694 320.521 193.113 320.521 193.113C320.521 193.113 323.177 194.024 323.472 196.301C323.559 199.982 323.162 203.659 322.292 207.231C321.406 210.115 309.012 210.419 299.126 208.294C290.39 206.646 282.327 202.367 275.959 195.997C275.456 195.498 275.115 194.851 274.983 194.144C274.851 193.438 274.934 192.706 275.222 192.05C276.107 189.773 277.583 186.434 278.763 183.549Z" fill="#B4CDEC"/>
<path d="M350.918 129.957C351.061 136.288 350.07 142.593 347.992 148.568C345.067 156.248 340.24 177.665 330.731 184.607C321.223 191.549 300.451 190.22 291.381 172.348C282.312 154.476 285.237 135.717 289.918 120.652C294.599 105.586 313.909 100.121 330.731 106.324C347.554 112.528 350.918 123.31 350.918 129.957Z" fill="#F4C2C9"/>
<path d="M289.797 140.012C290.786 141.329 291.614 142.763 292.263 144.283C293.569 147.375 296.326 145.608 297.342 140.012C298.357 134.415 300.679 130.439 302.42 130.733C304.656 131.276 307.008 131.033 309.09 130.043C311.172 129.053 312.862 127.375 313.883 125.284C317.51 118.51 319.106 119.54 319.106 119.54C319.106 119.54 322.008 112.471 329.553 122.633C337.098 132.795 341.886 140.748 350.882 139.128C359.878 137.508 367.859 122.633 361.039 108.348C354.22 94.062 332.745 90.6746 316.785 94.9456C300.824 99.2166 292.553 95.682 282.977 103.929C273.401 112.177 275.722 120.866 275.142 130.586C274.561 140.306 269.628 145.461 276.157 154.15C282.687 162.839 280.946 170.939 284.573 175.799C284.573 175.799 288.491 162.986 288.055 153.708C287.62 144.43 289.797 140.012 289.797 140.012Z" fill="#22272E"/>
<path d="M331.901 147.636C331.798 151.167 330.293 154.523 327.7 157.008C325.107 159.492 321.625 160.914 317.978 160.978C316.161 160.964 314.366 160.598 312.698 159.901C311.03 159.204 309.523 158.191 308.266 156.922C307.009 155.652 306.027 154.152 305.378 152.509C304.73 150.866 304.428 149.113 304.49 147.356C304.478 145.538 304.837 143.737 305.545 142.054C306.254 140.372 307.298 138.841 308.618 137.55C309.939 136.258 311.509 135.232 313.239 134.529C314.97 133.826 316.826 133.46 318.703 133.453C320.539 133.524 322.341 133.95 324.004 134.705C325.668 135.461 327.158 136.531 328.388 137.853C329.617 139.174 330.562 140.721 331.165 142.401C331.769 144.081 332.019 145.861 331.901 147.636Z" stroke="#22272E" stroke-width="1.8" stroke-linecap="round" stroke-linejoin="round"/>
<path d="M355.03 156.604C357.052 149.644 354.752 142.852 349.894 141.433C345.036 140.014 339.459 144.506 337.437 151.465C335.416 158.425 337.715 165.217 342.573 166.636C347.432 168.055 353.009 163.564 355.03 156.604Z" stroke="#22272E" stroke-width="1.8" stroke-linecap="round" stroke-linejoin="round"/>
<path d="M338.265 150.391C338.265 150.391 338.089 146.949 331.931 148.842" stroke="#22272E" stroke-width="1.8" stroke-linecap="round" stroke-linejoin="round"/>
<path d="M306.592 141.921L289.701 137.687" stroke="#22272E" stroke-width="1.8" stroke-linecap="round" stroke-linejoin="round"/>
<path d="M291.815 143.244C291.815 143.244 290.326 135.713 283.212 135.571C276.099 135.429 271.798 154.186 289.499 156.743" fill="#F4C2C9"/>
<path d="M281.257 139.939C282.116 139.722 283.022 139.769 283.853 140.072C284.685 140.376 285.403 140.922 285.911 141.638C286.401 142.522 286.639 143.52 286.6 144.526C286.6 145.036 286.428 145.376 286.428 145.885C286.428 146.395 286.256 146.565 286.256 146.905C286.121 147.461 286.063 148.032 286.083 148.603C286.047 148.814 286.059 149.031 286.118 149.237C286.178 149.443 286.284 149.633 286.428 149.793C287.355 150.785 288.467 151.592 289.703 152.171C288.884 152.462 288.01 152.567 287.145 152.478C286.279 152.39 285.445 152.111 284.704 151.661C283.877 151.038 283.322 150.126 283.153 149.113C283.033 148.205 283.091 147.282 283.326 146.395C283.498 146.055 283.498 145.545 283.67 145.206C283.843 144.866 283.843 144.696 283.843 144.356C284.016 143.919 284.016 143.434 283.843 142.997C283.656 142.336 283.329 141.721 282.884 141.194C282.438 140.667 281.884 140.239 281.257 139.939Z" fill="#22272E"/>
<path d="M335.779 148.274C335.848 149.866 336.09 151.436 336.495 152.93C336.671 153.584 336.912 154.201 337.211 154.764C337.64 155.462 337.954 156.281 338.131 157.163C338.295 158.107 338.306 159.089 338.165 160.04C338.024 160.991 337.733 161.887 337.313 162.666C336.94 163.416 336.451 164.042 335.881 164.5C335.341 165.009 334.693 165.257 334.04 165.206C334.946 164.287 335.624 163.006 335.983 161.537C336.381 160.346 336.489 159.01 336.29 157.728C336.11 157.076 335.869 156.46 335.574 155.893C335.263 155.053 335.055 154.147 334.961 153.212C334.915 151.496 335.197 149.793 335.779 148.274Z" fill="#22272E"/>
<path d="M321.371 171.565C319.132 171.491 316.961 170.858 315.097 169.736C313.233 168.615 311.75 167.049 310.814 165.213" stroke="#22272E" stroke-width="1.8" stroke-linecap="round" stroke-linejoin="round"/>
<path d="M315.065 150.331C314.709 150.266 314.372 150.149 314.076 149.986C313.779 149.822 313.528 149.616 313.337 149.38C313.146 149.143 313.018 148.88 312.961 148.605C312.905 148.331 312.92 148.051 313.006 147.781L313.755 145.656C313.841 145.387 313.996 145.132 314.212 144.908C314.427 144.683 314.7 144.493 315.013 144.348C315.326 144.204 315.673 144.107 316.035 144.064C316.398 144.021 316.768 144.033 317.124 144.098C317.481 144.163 317.817 144.281 318.114 144.444C318.41 144.607 318.661 144.813 318.853 145.05C319.044 145.287 319.172 145.55 319.228 145.824C319.285 146.098 319.27 146.378 319.183 146.648L318.435 148.773C318.349 149.043 318.194 149.297 317.978 149.522C317.762 149.746 317.49 149.936 317.177 150.081C316.864 150.226 316.516 150.322 316.154 150.365C315.792 150.408 315.422 150.397 315.065 150.331Z" fill="#22272E"/>
<path d="M338.289 156.684C337.932 156.619 337.596 156.501 337.299 156.338C337.003 156.175 336.752 155.969 336.56 155.732C336.369 155.495 336.241 155.232 336.185 154.958C336.128 154.683 336.143 154.403 336.23 154.134L336.978 152.009C337.064 151.739 337.219 151.484 337.435 151.26C337.651 151.036 337.923 150.846 338.236 150.701C338.549 150.556 338.897 150.459 339.259 150.416C339.621 150.374 339.991 150.385 340.348 150.451C340.704 150.515 341.041 150.633 341.337 150.796C341.634 150.959 341.885 151.165 342.076 151.402C342.267 151.639 342.395 151.902 342.452 152.176C342.508 152.451 342.493 152.731 342.407 153L341.658 155.125C341.572 155.395 341.417 155.65 341.201 155.874C340.986 156.099 340.713 156.289 340.4 156.433C340.087 156.578 339.74 156.675 339.377 156.718C339.015 156.761 338.645 156.749 338.289 156.684Z" fill="#22272E"/>
<path d="M320.243 139.786C318.823 139.991 318.177 138.449 316.112 138.552C312.884 138.655 311.077 139.169 310.819 138.038C310.69 137.215 313.143 135.673 316.241 135.57C320.759 135.57 322.825 139.477 320.243 139.786Z" fill="#22272E"/>
<path d="M338.851 144.632C339.872 145.255 341.33 144.112 342.788 144.84C344.975 145.775 345.704 146.607 346.433 145.879C347.162 145.151 346.433 143.384 344.392 142.449C341.038 140.785 336.664 143.488 338.851 144.632Z" fill="#22272E"/>
<path d="M154.574 389.013C153.715 391.085 153.155 393.302 152.916 395.579C152.916 398.06 154.701 420.97 154.191 425.493C153.681 430.017 152.406 438.918 151.641 440.231C150.876 441.545 146.287 437.459 146.159 423.742C146.032 410.026 141.952 391.202 145.394 389.013C148.836 386.824 153.554 387.262 154.574 389.013Z" fill="#F4C2C9"/>
<path d="M60.4093 455.797L94.9543 400.633C95.3367 400.023 95.8353 399.497 96.4208 399.085C97.0062 398.674 97.6668 398.385 98.3639 398.235C99.061 398.086 99.7805 398.079 100.48 398.215C101.18 398.351 101.846 398.627 102.439 399.027L183.764 451.419C184.365 451.807 184.884 452.312 185.29 452.906C185.696 453.499 185.981 454.169 186.128 454.876C186.276 455.583 186.283 456.312 186.148 457.022C186.014 457.731 185.742 458.406 185.347 459.008L150.802 514.172C150.42 514.782 149.921 515.308 149.336 515.72C148.75 516.131 148.089 516.42 147.392 516.57C146.695 516.719 145.976 516.726 145.276 516.59C144.576 516.454 143.91 516.178 143.317 515.778L61.9926 463.386C60.8056 462.579 59.976 461.335 59.6803 459.918C59.3846 458.5 59.6461 457.022 60.4093 455.797Z" fill="#22272E"/>
<path d="M156.946 499.522L173.53 471.146C173.702 470.841 173.94 470.587 174.223 470.407C174.505 470.226 174.824 470.123 175.152 470.109C175.479 470.094 175.805 470.167 176.1 470.321C176.396 470.476 176.652 470.707 176.847 470.995L179.472 474.768C179.731 475.13 179.882 475.569 179.907 476.028C179.932 476.486 179.828 476.941 179.611 477.334L164.685 502.993C164.486 503.38 164.172 503.68 163.795 503.844C163.418 504.009 163.001 504.028 162.612 503.899L158.328 502.993C158.006 502.9 157.708 502.728 157.455 502.49C157.202 502.253 157.002 501.956 156.869 501.622C156.736 501.289 156.674 500.926 156.687 500.562C156.701 500.199 156.789 499.843 156.946 499.522Z" fill="#B4CDEC"/>
<path d="M150.351 387.155C150.351 387.155 149.481 412.345 149.336 417.702C149.19 423.058 149.481 433.626 148.175 438.693C146.869 443.76 144.693 456.5 140.775 457.368C136.858 458.237 141.066 441.733 141.066 438.548C140.747 434.892 140.165 431.264 139.325 427.691C139.325 427.691 137.874 435.653 136.858 439.127C135.842 442.602 129.168 453.46 126.557 453.025C123.945 452.591 127.137 444.484 129.169 439.562C131.055 435.074 131.78 425.664 131.78 425.664C130.649 428.541 129.34 431.345 127.863 434.061C126.122 436.956 120.173 445.932 117.707 445.497C115.24 445.063 119.303 435.943 121.769 431.744C123.166 429.554 124.058 427.082 124.381 424.506C124.381 424.506 120.463 428.414 117.997 430.296C115.53 432.178 106.825 436.377 106.1 434.205C105.374 432.034 109.292 429.717 112.919 426.388C116.546 423.058 120.463 416.399 121.334 415.24C122.204 414.082 119.738 403.948 123.655 397.144C127.573 390.34 129.894 387.589 130.91 382.957C131.925 378.324 149.916 383.825 150.351 387.155Z" fill="#F4C2C9"/>
<path d="M241.937 190.641C241.937 190.641 225.255 189.032 205.207 214.19C185.158 239.349 165.403 260.411 159.842 270.358C154.281 280.304 141.989 317.603 135.843 347.003C129.696 376.403 129.111 381.669 129.257 384.887C129.404 387.812 144.184 391.908 153.842 391.762C154.691 391.779 155.525 391.535 156.231 391.065C156.937 390.594 157.482 389.918 157.793 389.129C161.598 380.206 174.915 349.782 180.183 338.666C186.329 325.648 193.5 306.34 194.378 305.024C195.256 303.707 235.206 263.044 242.669 252.367C250.132 241.689 257.303 224.429 255.693 209.217C253.937 192.689 245.449 190.495 241.937 190.641Z" fill="#B4CDEC"/>
<path d="M162.67 265.62C162.67 265.62 167.042 259.258 172.543 265.028C178.326 271.094 175.787 284.261 167.748 292.546C161.119 299.352 151.669 296.541 152.515 290.179" stroke="#22272E" stroke-width="1.8" stroke-linecap="round" stroke-linejoin="round"/>
<path d="M131.348 376.944C135.311 378.971 147.201 384.586 158.796 383.026" stroke="#22272E" stroke-width="1.8" stroke-linecap="round" stroke-linejoin="round"/>
<path d="M513.68 418.294L538.041 338.237C538.396 337.17 539.078 336.244 539.99 335.59C540.901 334.937 541.995 334.589 543.116 334.598L687.248 338.674C687.809 338.68 688.361 338.815 688.861 339.069C689.361 339.324 689.796 339.69 690.133 340.141C690.469 340.591 690.698 341.113 690.801 341.666C690.905 342.22 690.879 342.79 690.728 343.332L662.453 441.002C662.111 442.194 661.349 443.221 660.308 443.891C659.267 444.56 658.02 444.827 656.798 444.641L516.87 422.952C516.327 422.923 515.798 422.769 515.323 422.502C514.848 422.235 514.441 421.862 514.133 421.412C513.825 420.962 513.624 420.446 513.545 419.906C513.467 419.365 513.513 418.814 513.68 418.294Z" fill="#22272E"/>
<path d="M511.499 421.408L426.941 429.345L571.918 465.209C575.424 466.092 579.092 466.092 582.598 465.209L661.304 444.778L511.499 421.408Z" fill="#63737A"/>
<path d="M571.827 466.619L426.941 429.877C426.951 431.254 427.4 432.59 428.219 433.678C429.037 434.766 430.181 435.547 431.473 435.9L568.026 473.245C573.79 474.802 579.859 474.698 585.57 472.944L657.209 451.26C658.408 450.905 659.46 450.151 660.201 449.116C660.941 448.081 661.329 446.823 661.303 445.538L582.646 466.469C579.115 467.494 575.384 467.546 571.827 466.619Z" fill="#22272E"/>
<path d="M608.464 351.772L598.205 386.089C598.055 386.507 597.778 386.87 597.411 387.128C597.044 387.386 596.605 387.527 596.154 387.531L538.56 382.628C538.27 382.607 537.988 382.522 537.734 382.38C537.481 382.239 537.262 382.044 537.094 381.81C536.926 381.576 536.813 381.308 536.763 381.026C536.712 380.744 536.725 380.454 536.802 380.177L546.474 348.744C546.593 348.334 546.842 347.974 547.185 347.714C547.528 347.455 547.946 347.31 548.379 347.302L606.559 349.32C606.859 349.33 607.153 349.404 607.42 349.539C607.688 349.674 607.921 349.866 608.103 350.101C608.286 350.335 608.413 350.607 608.475 350.896C608.538 351.185 608.534 351.484 608.464 351.772Z" fill="white"/>
<path d="M595.85 357.888L589.48 379.061L545.177 375.803L546.77 371.065L563.13 363.662L572.396 371.065L595.85 357.888Z" fill="#F4C2C9"/>
<path d="M564.052 401.177L559.813 413.771C559.663 414.196 559.361 414.556 558.959 414.787C558.557 415.017 558.083 415.104 557.621 415.03L529.997 411.532C529.713 411.506 529.439 411.42 529.196 411.278C528.952 411.137 528.746 410.945 528.591 410.716C528.436 410.487 528.338 410.227 528.303 409.957C528.268 409.686 528.297 409.411 528.389 409.153L532.043 397.399C532.193 396.993 532.47 396.641 532.836 396.391C533.202 396.14 533.639 396.004 534.089 396L562.298 398.799C562.6 398.787 562.9 398.848 563.171 398.976C563.442 399.104 563.676 399.295 563.85 399.532C564.024 399.768 564.134 400.043 564.169 400.33C564.205 400.617 564.164 400.909 564.052 401.177Z" fill="#344966"/>
<path d="M606.299 405.532L601.787 420.06C601.642 420.506 601.35 420.884 600.963 421.126C600.575 421.368 600.117 421.458 599.672 421.381L574.292 417.859C574.008 417.822 573.737 417.719 573.497 417.557C573.257 417.396 573.055 417.18 572.906 416.927C572.757 416.673 572.665 416.388 572.636 416.092C572.607 415.796 572.643 415.497 572.741 415.218L576.971 401.57C577.099 401.144 577.367 400.779 577.728 400.538C578.089 400.296 578.519 400.194 578.945 400.249L604.607 402.891C604.902 402.907 605.19 402.995 605.448 403.148C605.705 403.301 605.925 403.514 606.089 403.77C606.253 404.027 606.358 404.319 606.394 404.625C606.43 404.931 606.398 405.242 606.299 405.532Z" fill="#B4CDEC"/>
<path d="M656.987 410.332L651.831 426.417C651.675 426.861 651.361 427.237 650.944 427.478C650.527 427.719 650.035 427.81 649.556 427.733L616.645 423.492C616.34 423.455 616.047 423.353 615.789 423.192C615.531 423.031 615.314 422.816 615.154 422.563C614.994 422.311 614.895 422.026 614.864 421.731C614.833 421.437 614.872 421.139 614.976 420.86L619.981 405.8C620.12 405.375 620.408 405.011 620.796 404.771C621.184 404.53 621.647 404.429 622.105 404.483L655.016 407.7C655.342 407.707 655.662 407.786 655.952 407.932C656.241 408.078 656.491 408.287 656.682 408.542C656.873 408.798 657 409.092 657.053 409.403C657.106 409.713 657.084 410.032 656.987 410.332Z" fill="#F4C2C9"/>
<path d="M639.981 358.948C639.362 361.114 637.971 363.024 636.031 364.368C634.091 365.712 631.717 366.412 629.293 366.355C624.736 366.064 622.378 362.433 623.635 358.367C624.33 356.429 625.652 354.735 627.423 353.514C629.194 352.293 631.329 351.604 633.537 351.541C634.536 351.504 635.531 351.684 636.442 352.067C637.352 352.449 638.153 353.024 638.779 353.744C639.406 354.464 639.841 355.31 640.05 356.214C640.258 357.118 640.235 358.054 639.981 358.948Z" fill="#344966"/>
<path d="M648.636 353.654L669.75 355.771" stroke="#63737A" stroke-width="1.8" stroke-linecap="round" stroke-linejoin="round"/>
<path d="M616.965 381.178L661.304 385.413" stroke="#63737A" stroke-width="1.8" stroke-linecap="round" stroke-linejoin="round"/>
<path d="M646.524 362.123L667.638 364.24" stroke="#63737A" stroke-width="1.8" stroke-linecap="round" stroke-linejoin="round"/>
<path d="M763.788 145.882L653.576 154.616C652.917 154.659 652.257 154.559 651.64 154.322C651.022 154.084 650.461 153.715 649.995 153.238C649.528 152.762 649.167 152.19 648.934 151.559C648.701 150.929 648.603 150.255 648.645 149.583L653.286 84.5942C653.417 82.7099 654.181 80.9296 655.449 79.554C656.718 78.1784 658.412 77.2919 660.247 77.0443L772.199 61.5004C772.88 61.4137 773.571 61.4818 774.223 61.6997C774.875 61.9177 775.472 62.2801 775.971 62.7611C776.47 63.2421 776.858 63.8297 777.109 64.4819C777.359 65.1341 777.465 65.8347 777.419 66.5337L771.184 138.48C770.974 140.394 770.124 142.176 768.777 143.525C767.429 144.874 765.667 145.706 763.788 145.882Z" fill="#B4CDEC"/>
<path d="M759.565 143.764L649.353 152.498C648.695 152.542 648.035 152.442 647.417 152.204C646.8 151.966 646.239 151.597 645.772 151.121C645.306 150.644 644.944 150.072 644.711 149.442C644.478 148.811 644.38 148.137 644.423 147.465L649.063 82.4766C649.194 80.5923 649.958 78.812 651.227 77.4364C652.495 76.0608 654.19 75.1743 656.024 74.9267L767.976 59.3828C768.657 59.2961 769.348 59.3642 770 59.5821C770.653 59.8001 771.249 60.1625 771.748 60.6435C772.247 61.1245 772.636 61.7121 772.886 62.3643C773.136 63.0165 773.243 63.7171 773.197 64.416L766.961 136.362C766.802 138.296 765.967 140.107 764.61 141.465C763.252 142.824 761.462 143.64 759.565 143.764Z" fill="#B0D7C0"/>
<path d="M686.622 99.8247C686.425 101.859 685.53 103.77 684.082 105.252C682.635 106.734 680.717 107.7 678.637 107.996C677.725 108.112 676.799 108.023 675.928 107.735C675.058 107.448 674.267 106.97 673.617 106.338C672.967 105.706 672.476 104.938 672.18 104.092C671.884 103.246 671.792 102.345 671.912 101.459C672.079 99.436 672.945 97.5274 674.369 96.0438C675.794 94.5602 677.693 93.5889 679.757 93.2879C683.96 92.7432 686.902 95.7392 686.622 99.8247Z" fill="#22272E"/>
<path d="M684.112 127.747L668.986 129.189C668.228 129.27 667.461 129.179 666.743 128.923C666.025 128.666 665.375 128.252 664.843 127.71C664.311 127.168 663.909 126.513 663.67 125.795C663.43 125.076 663.358 124.314 663.46 123.564C663.833 119.739 665.48 116.147 668.139 113.352C670.799 110.558 674.32 108.721 678.149 108.13C685.711 107.265 691.529 113.034 690.801 120.967C690.616 122.678 689.856 124.278 688.642 125.508C687.428 126.738 685.832 127.526 684.112 127.747Z" fill="#22272E"/>
<path d="M703.532 91.1066L752.094 86.8719" stroke="#63737A" stroke-width="1.8" stroke-linecap="round" stroke-linejoin="round"/>
<path d="M703.532 105.927L749.983 99.5753" stroke="#63737A" stroke-width="1.8" stroke-linecap="round" stroke-linejoin="round"/>
<path d="M701.421 118.631L730.98 114.396" stroke="#63737A" stroke-width="1.8" stroke-linecap="round" stroke-linejoin="round"/>
<path d="M638.102 31.6323C632.44 26.0462 624.455 22.7518 614.583 21.6059C608.029 20.652 601.335 21.5458 595.274 24.1841C588.306 27.192 583.079 32.4917 579.159 40.2265L572.626 42.9479L576.401 46.8153L593.387 49.8232C594.557 46.1973 596.599 42.9046 599.339 40.2265C602.243 37.3617 606.163 36.2159 611.099 36.9321C616.035 37.6482 619.374 39.5103 620.68 42.5182C621.986 45.5623 622.141 48.9679 621.116 52.115C620.235 55.0568 618.523 57.6901 616.18 59.7065C614.708 61.0002 613.043 62.063 611.244 62.8577L605.437 65.7224C599.775 68.4438 596 71.0221 594.113 73.6003C592.241 76.4642 590.729 79.5426 589.612 82.7674L583.805 84.6294L587.58 88.4968L605.001 93.2236C605.673 90.4586 606.749 87.8047 608.195 85.3456C609.942 82.6616 612.473 80.5639 615.454 79.3297L621.406 76.6083C626.063 74.68 630.453 72.1773 634.472 69.16C638.937 65.4131 642.045 60.3356 643.328 54.6932C645.796 45.2397 644.054 37.505 638.102 31.6323Z" fill="#F0F4EF"/>
<path d="M593.356 100.022L592.806 99.8783C591.615 99.5581 590.375 99.4909 589.159 99.6806C587.943 99.8703 586.776 100.313 585.726 100.983C584.677 101.652 583.766 102.535 583.048 103.579C582.33 104.623 581.819 105.807 581.546 107.062C580.772 109.598 580.952 112.348 582.049 114.751C583.146 117.153 585.078 119.027 587.451 119.991L588 120.279C592.944 122.003 598.162 118.842 599.672 113.095C601.183 107.349 598.299 101.459 593.356 100.022Z" fill="#F0F4EF"/>
<path d="M591.501 19.924C597.554 17.3763 604.159 16.4708 610.663 17.2967C620.461 18.4644 628.241 21.8214 634.004 27.5138C639.767 33.2062 641.64 41.3798 639.047 51.305C637.736 57.0393 634.658 62.2023 630.258 66.0468C627.809 68.2362 623.486 70.7175 617.291 73.6366L611.384 76.4098C608.425 77.6675 605.913 79.8051 604.18 82.5401C602.832 85.0886 601.769 87.781 601.01 90.5678L583.721 85.7512C586.17 78.1614 588.187 73.1988 590.204 70.5715C592.221 67.9443 595.823 65.317 601.442 62.5438L607.205 59.6246C608.981 58.7962 610.63 57.7149 612.104 56.4136C614.505 54.4262 616.221 51.7172 617.003 48.6778C617.879 45.4532 617.727 42.0309 616.57 38.8986C615.418 35.8334 612.104 33.936 607.061 33.2062C602.019 32.4764 598.272 33.644 595.391 36.5632C592.613 39.2449 590.577 42.6164 589.484 46.3424L572.626 43.2773C576.661 31.4547 582.712 23.8648 591.501 19.924ZM589.628 97.5738L590.204 97.7198C592.777 98.6078 594.908 100.476 596.145 102.928C597.382 105.38 597.628 108.223 596.832 110.856C595.247 116.694 589.628 119.905 584.585 118.154L584.009 117.862C581.519 116.883 579.493 114.979 578.341 112.538C577.19 110.097 577.001 107.303 577.813 104.726C578.446 102.191 580.045 100.015 582.26 98.6738C584.475 97.3329 587.125 96.9372 589.628 97.5738Z" fill="#344966"/>
<path d="M195.715 110.211H252.243L257.984 113.947C258.404 114.223 258.89 114.377 259.389 114.395C259.889 114.413 260.384 114.292 260.822 114.047C261.26 113.802 261.624 113.441 261.876 113.002C262.128 112.563 262.258 112.063 262.253 111.556V71.0537C262.253 69.0718 261.477 67.1711 260.097 65.7697C258.717 64.3683 256.844 63.581 254.892 63.581H195.715C193.763 63.581 191.891 64.3683 190.511 65.7697C189.13 67.1711 188.355 69.0718 188.355 71.0537V102.738C188.355 104.72 189.13 106.621 190.511 108.022C191.891 109.423 193.763 110.211 195.715 110.211Z" fill="#B4CDEC"/>
<path d="M243.251 78.402H205.246" stroke="#22272E" stroke-width="1.8" stroke-linecap="round" stroke-linejoin="round"/>
<path d="M243.251 86.8719H205.246" stroke="#22272E" stroke-width="1.8" stroke-linecap="round" stroke-linejoin="round"/>
<path d="M243.252 97.4582H222.138" stroke="#22272E" stroke-width="1.8" stroke-linecap="round" stroke-linejoin="round"/>
</svg>
